<svg xmlns="http://www.w3.org/2000/svg" viewBox="0 0 256 256" width="256" height="256">
  <ellipse cx="128" cy="208" rx="88" ry="13" fill="#000" opacity="0.11"/>
  <defs>
    <linearGradient id="lettuce_body" x1="0" y1="0" x2="0" y2="1">
      <stop offset="0" stop-color="#a3d262"/>
      <stop offset=".5" stop-color="#7fb23e"/>
      <stop offset="1" stop-color="#5f8d2b"/>
    </linearGradient>
  </defs>
  <!-- wide draped leaf: flat-ish base with a big frilly ruffled top edge -->
  <path d="M30 150
           Q24 120 44 118
           Q40 96 64 102
           Q66 80 92 92
           Q98 72 122 90
           Q132 70 154 90
           Q164 72 186 92
           Q196 76 214 96
           Q236 100 230 124
           Q240 142 224 152
           Q236 172 212 178
           Q196 196 174 180
           Q158 196 140 180
           Q122 198 104 180
           Q86 196 70 180
           Q48 192 38 172
           Q22 168 30 150 Z"
        fill="url(#lettuce_body)" stroke="#4d7322" stroke-width="6" stroke-linejoin="round"/>
  <!-- vein lines -->
  <path d="M128 168 L80 116 M128 168 L122 108 M128 168 L172 114 M128 168 L210 120 M128 168 L52 128"
        fill="none" stroke="#9ccb5c" stroke-width="4" stroke-linecap="round" opacity="0.7"/>
  <!-- highlight on ruffle -->
  <path d="M64 110 Q120 92 196 110" fill="none" stroke="#d4ee9c" stroke-width="6" stroke-linecap="round" opacity="0.75"/>
</svg>
