<svg xmlns="http://www.w3.org/2000/svg" viewBox="0 0 256 256" width="256" height="256">
  <ellipse cx="128" cy="208" rx="84" ry="12" fill="#000" opacity="0.11"/>
  <defs>
    <radialGradient id="pickle_slice" cx="0.4" cy="0.35" r="0.75">
      <stop offset="0" stop-color="#9bc25a"/>
      <stop offset=".6" stop-color="#6f9a35"/>
      <stop offset="1" stop-color="#557827"/>
    </radialGradient>
  </defs>
  <!-- row of 3 round bumpy dill slices, overlapping -->
  <g stroke="#3f5a1c" stroke-width="6" stroke-linejoin="round">
    <!-- left -->
    <path d="M58 118 q5-9 14-6 q3-9 12-5 q6-8 14-2 q9-4 13 5 q9 0 9 11 q7 5 2 14 q4 8-5 12 q-1 9-11 9 q-4 8-13 4 q-8 5-15-1 q-9 2-13-7 q-9-2-7-12 q-6-7 1-14 q-2-9 9-12 Z" fill="url(#pickle_slice)"/>
    <!-- middle -->
    <path d="M114 112 q5-9 14-6 q3-9 12-5 q6-8 14-2 q9-4 13 5 q9 0 9 11 q7 5 2 14 q4 8-5 12 q-1 9-11 9 q-4 8-13 4 q-8 5-15-1 q-9 2-13-7 q-9-2-7-12 q-6-7 1-14 q-2-9 9-12 Z" fill="url(#pickle_slice)"/>
    <!-- right -->
    <path d="M170 118 q5-9 14-6 q3-9 12-5 q6-8 14-2 q9-4 13 5 q9 0 9 11 q7 5 2 14 q4 8-5 12 q-1 9-11 9 q-4 8-13 4 q-8 5-15-1 q-9 2-13-7 q-9-2-7-12 q-6-7 1-14 q-2-9 9-12 Z" fill="url(#pickle_slice)"/>
  </g>
  <!-- inner translucent flesh + seed specks -->
  <g>
    <circle cx="96" cy="145" r="20" fill="#bcd884" opacity="0.55"/>
    <circle cx="152" cy="139" r="20" fill="#bcd884" opacity="0.55"/>
    <circle cx="208" cy="145" r="20" fill="#bcd884" opacity="0.55"/>
    <g fill="#5d7b2c">
      <ellipse cx="92" cy="140" rx="2.4" ry="3.4"/><ellipse cx="101" cy="150" rx="2.4" ry="3.4"/><ellipse cx="90" cy="152" rx="2.2" ry="3.2"/>
      <ellipse cx="148" cy="134" rx="2.4" ry="3.4"/><ellipse cx="157" cy="144" rx="2.4" ry="3.4"/><ellipse cx="146" cy="146" rx="2.2" ry="3.2"/>
      <ellipse cx="204" cy="140" rx="2.4" ry="3.4"/><ellipse cx="213" cy="150" rx="2.4" ry="3.4"/><ellipse cx="202" cy="152" rx="2.2" ry="3.2"/>
    </g>
  </g>
  <!-- highlight -->
  <path d="M82 128 q12-10 26-7" fill="none" stroke="#dff0b6" stroke-width="4" stroke-linecap="round" opacity="0.7"/>
</svg>
