<svg xmlns="http://www.w3.org/2000/svg" viewBox="0 0 256 256" width="256" height="256">
  <ellipse cx="128" cy="206" rx="80" ry="12" fill="#000" opacity="0.11"/>
  <defs>
    <radialGradient id="tomato_skin" cx="0.42" cy="0.35" r="0.72">
      <stop offset="0" stop-color="#f4665b"/>
      <stop offset=".7" stop-color="#e8473b"/>
      <stop offset="1" stop-color="#c12f26"/>
    </radialGradient>
    <radialGradient id="tomato_pulp" cx="0.45" cy="0.4" r="0.7">
      <stop offset="0" stop-color="#ffb3a3"/>
      <stop offset="1" stop-color="#f17b6c"/>
    </radialGradient>
  </defs>
  <!-- wide draped slice slightly squashed, edge sticking out -->
  <ellipse cx="128" cy="138" rx="92" ry="44" fill="url(#tomato_skin)" stroke="#9c2018" stroke-width="6"/>
  <!-- pulpy lighter center -->
  <ellipse cx="128" cy="138" rx="74" ry="33" fill="url(#tomato_pulp)"/>
  <!-- seed locules dividers -->
  <g fill="#fcd9b0" opacity="0.85" stroke="#e89a78" stroke-width="2">
    <ellipse cx="128" cy="138" rx="22" ry="11"/>
    <path d="M128 138 L78 122 M128 138 L78 154 M128 138 L178 122 M128 138 L178 154 M128 138 L128 108 M128 138 L128 168"
          fill="none" stroke="#f6b596" stroke-width="6" stroke-linecap="round"/>
  </g>
  <!-- seeds -->
  <g fill="#e8c27a" stroke="#c79a4e" stroke-width="1.4">
    <ellipse cx="96" cy="124" rx="3.2" ry="4.6"/>
    <ellipse cx="160" cy="124" rx="3.2" ry="4.6"/>
    <ellipse cx="96" cy="154" rx="3.2" ry="4.6"/>
    <ellipse cx="160" cy="154" rx="3.2" ry="4.6"/>
    <ellipse cx="128" cy="116" rx="3.2" ry="4.6"/>
    <ellipse cx="128" cy="162" rx="3.2" ry="4.6"/>
  </g>
  <!-- top highlight -->
  <path d="M70 120 Q110 102 160 110" fill="none" stroke="#ffd2c8" stroke-width="6" stroke-linecap="round" opacity="0.7"/>
</svg>
