<svg xmlns="http://www.w3.org/2000/svg" viewBox="0 0 256 256" width="256" height="256">
  <ellipse cx="128" cy="210" rx="82" ry="12" fill="#000" opacity="0.11"/>
  <defs>
    <linearGradient id="amcheese_g" x1="0" y1="0" x2="0" y2="1">
      <stop offset="0" stop-color="#ffd366"/>
      <stop offset="1" stop-color="#f0a82c"/>
    </linearGradient>
  </defs>
  <path d="M34 118
    Q30 108 40 106
    L88 102 Q108 100 128 102 Q150 100 170 104 L214 110
    Q226 112 222 124
    L218 150 Q214 168 196 176
    Q150 156 110 178
    Q72 158 44 170
    Q34 162 34 144 Z"
    fill="url(#amcheese_g)" stroke="#43291a" stroke-width="6" stroke-linejoin="round"/>
  <path d="M196 176 Q200 192 190 200 Q182 196 184 178 Z" fill="#f0a82c" stroke="#43291a" stroke-width="5" stroke-linejoin="round"/>
  <path d="M110 178 Q112 194 102 200 Q94 194 98 176 Z" fill="#f0a82c" stroke="#43291a" stroke-width="5" stroke-linejoin="round"/>
  <path d="M44 170 Q42 186 52 192 Q60 186 56 168 Z" fill="#f0a82c" stroke="#43291a" stroke-width="5" stroke-linejoin="round"/>
  <path d="M50 116 L120 110 Q140 109 160 112 L200 117" fill="none" stroke="#fff" stroke-width="7" stroke-linecap="round" opacity="0.55"/>
</svg>
