<svg xmlns="http://www.w3.org/2000/svg" viewBox="0 0 256 256" width="256" height="256">
  <defs>
    <linearGradient id="churroshell-body" x1="0" y1="0" x2="0" y2="1">
      <stop offset="0" stop-color="#dba264"/>
      <stop offset="1" stop-color="#b3743a"/>
    </linearGradient>
    <linearGradient id="churroshell-cream" x1="0" y1="0" x2="0" y2="1">
      <stop offset="0" stop-color="#fff7e0"/>
      <stop offset="1" stop-color="#f1e2b6"/>
    </linearGradient>
    <clipPath id="churroshell-clip">
      <path d="M56 96 C56 64 96 56 128 56 C160 56 200 64 200 96 L200 158 C200 192 160 200 128 200 C96 200 56 192 56 158 Z"/>
    </clipPath>
  </defs>
  <ellipse cx="128" cy="224" rx="62" ry="11" fill="#000" opacity="0.12"/>
  <path d="M56 96 C56 64 96 56 128 56 C160 56 200 64 200 96 L200 158 C200 192 160 200 128 200 C96 200 56 192 56 158 Z" fill="url(#churroshell-body)" stroke="#6e421d" stroke-width="6" stroke-linejoin="round"/>
  <!-- churro ridges -->
  <g clip-path="url(#churroshell-clip)" stroke="#8c5526" stroke-width="7" stroke-linecap="round" opacity="0.85">
    <path d="M78 50 L60 210"/>
    <path d="M104 50 L88 210"/>
    <path d="M130 50 L128 210"/>
    <path d="M156 50 L168 210"/>
    <path d="M182 50 L196 210"/>
  </g>
  <!-- cinnamon sugar specks -->
  <g clip-path="url(#churroshell-clip)" fill="#f7e2b4">
    <circle cx="100" cy="100" r="2.5"/>
    <circle cx="132" cy="92" r="2.5"/>
    <circle cx="162" cy="108" r="2.5"/>
    <circle cx="112" cy="140" r="2.5"/>
    <circle cx="146" cy="150" r="2.5"/>
    <circle cx="90" cy="160" r="2.5"/>
  </g>
  <ellipse cx="72" cy="98" rx="20" ry="30" fill="url(#churroshell-cream)" stroke="#6e421d" stroke-width="6"/>
  <ellipse cx="69" cy="92" rx="8" ry="13" fill="#fffdf2" opacity="0.7"/>
  <ellipse cx="184" cy="98" rx="20" ry="30" fill="url(#churroshell-cream)" stroke="#6e421d" stroke-width="6"/>
  <ellipse cx="181" cy="92" rx="8" ry="13" fill="#fffdf2" opacity="0.7"/>
</svg>
