<svg xmlns="http://www.w3.org/2000/svg" viewBox="0 0 256 256" width="256" height="256">
  <defs>
    <linearGradient id="clovershell-body" x1="0" y1="0" x2="0" y2="1">
      <stop offset="0" stop-color="#6cae45"/>
      <stop offset="1" stop-color="#3e7322"/>
    </linearGradient>
    <linearGradient id="clovershell-cream" x1="0" y1="0" x2="0" y2="1">
      <stop offset="0" stop-color="#fff7e0"/>
      <stop offset="1" stop-color="#f1e3b8"/>
    </linearGradient>
  </defs>
  <ellipse cx="128" cy="224" rx="62" ry="11" fill="#000" opacity="0.12"/>
  <path d="M56 96 C56 64 96 56 128 56 C160 56 200 64 200 96 L200 158 C200 192 160 200 128 200 C96 200 56 192 56 158 Z" fill="url(#clovershell-body)" stroke="#284a16" stroke-width="6" stroke-linejoin="round"/>
  <ellipse cx="72" cy="98" rx="20" ry="30" fill="url(#clovershell-cream)" stroke="#284a16" stroke-width="6"/>
  <ellipse cx="69" cy="92" rx="8" ry="13" fill="#fffdf2" opacity="0.7"/>
  <ellipse cx="184" cy="98" rx="20" ry="30" fill="url(#clovershell-cream)" stroke="#284a16" stroke-width="6"/>
  <ellipse cx="181" cy="92" rx="8" ry="13" fill="#fffdf2" opacity="0.7"/>
  <!-- shell ridges -->
  <path d="M108 64 L96 196" stroke="#284a16" stroke-width="4" stroke-linecap="round" opacity="0.35"/>
  <path d="M148 64 L160 196" stroke="#284a16" stroke-width="4" stroke-linecap="round" opacity="0.35"/>
  <!-- four-leaf clover -->
  <g stroke="#1f3d12" stroke-width="4" stroke-linejoin="round">
    <path d="M128 128 C120 112 100 116 104 130 C108 142 126 132 128 128 Z" fill="#9ad968"/>
    <path d="M128 128 C144 120 148 100 134 104 C122 108 124 126 128 128 Z" fill="#9ad968"/>
    <path d="M128 128 C136 144 156 140 152 126 C148 114 130 124 128 128 Z" fill="#9ad968"/>
    <path d="M128 128 C112 136 108 156 122 152 C134 148 132 130 128 128 Z" fill="#9ad968"/>
  </g>
  <path d="M128 150 Q126 168 138 178" stroke="#1f3d12" stroke-width="5" fill="none" stroke-linecap="round"/>
  <circle cx="124" cy="124" r="3" fill="#cdeeb0"/>
</svg>
