<svg xmlns="http://www.w3.org/2000/svg" viewBox="0 0 256 256" width="256" height="256">
  <defs>
    <linearGradient id="dirtcakeshell-body" x1="0" y1="0" x2="0" y2="1">
      <stop offset="0" stop-color="#4d3838"/>
      <stop offset="1" stop-color="#2e2020"/>
    </linearGradient>
    <linearGradient id="dirtcakeshell-cream" x1="0" y1="0" x2="0" y2="1">
      <stop offset="0" stop-color="#fff7e0"/>
      <stop offset="1" stop-color="#efe1bd"/>
    </linearGradient>
    <clipPath id="dirtcakeshell-clip">
      <path d="M56 96 C56 64 96 56 128 56 C160 56 200 64 200 96 L200 158 C200 192 160 200 128 200 C96 200 56 192 56 158 Z"/>
    </clipPath>
  </defs>
  <ellipse cx="128" cy="224" rx="62" ry="11" fill="#000" opacity="0.12"/>
  <path d="M56 96 C56 64 96 56 128 56 C160 56 200 64 200 96 L200 158 C200 192 160 200 128 200 C96 200 56 192 56 158 Z" fill="url(#dirtcakeshell-body)" stroke="#1f1414" stroke-width="6" stroke-linejoin="round"/>
  <!-- crumb texture -->
  <g clip-path="url(#dirtcakeshell-clip)">
    <circle cx="92" cy="100" r="5" fill="#231717"/>
    <circle cx="120" cy="86" r="4" fill="#5e4646"/>
    <circle cx="150" cy="104" r="5" fill="#231717"/>
    <circle cx="104" cy="130" r="4" fill="#5e4646"/>
    <circle cx="138" cy="124" r="5" fill="#231717"/>
    <circle cx="168" cy="138" r="4" fill="#5e4646"/>
    <circle cx="86" cy="158" r="5" fill="#231717"/>
    <circle cx="116" cy="170" r="4" fill="#5e4646"/>
    <circle cx="152" cy="166" r="5" fill="#231717"/>
    <circle cx="178" cy="118" r="4" fill="#231717"/>
  </g>
  <ellipse cx="72" cy="98" rx="20" ry="30" fill="url(#dirtcakeshell-cream)" stroke="#1f1414" stroke-width="6"/>
  <ellipse cx="69" cy="92" rx="8" ry="13" fill="#fffdf2" opacity="0.7"/>
  <ellipse cx="184" cy="98" rx="20" ry="30" fill="url(#dirtcakeshell-cream)" stroke="#1f1414" stroke-width="6"/>
  <ellipse cx="181" cy="92" rx="8" ry="13" fill="#fffdf2" opacity="0.7"/>
  <!-- gummy worm -->
  <path d="M104 150 Q116 120 132 144 Q150 168 168 138" fill="none" stroke="#e6473a" stroke-width="13" stroke-linecap="round"/>
  <path d="M104 150 Q116 120 132 144" fill="none" stroke="#f4c430" stroke-width="6" stroke-linecap="round" opacity="0.85"/>
  <circle cx="168" cy="138" r="4" fill="#fff" opacity="0.5"/>
</svg>
