<svg xmlns="http://www.w3.org/2000/svg" viewBox="0 0 256 256" width="256" height="256">
  <defs>
    <linearGradient id="gingerbreadshell-body" x1="0" y1="0" x2="0" y2="1">
      <stop offset="0" stop-color="#bd804a"/>
      <stop offset="1" stop-color="#915329"/>
    </linearGradient>
    <linearGradient id="gingerbreadshell-cream" x1="0" y1="0" x2="0" y2="1">
      <stop offset="0" stop-color="#fff7e0"/>
      <stop offset="1" stop-color="#f1e2bb"/>
    </linearGradient>
  </defs>
  <ellipse cx="128" cy="224" rx="62" ry="11" fill="#000" opacity="0.12"/>
  <path d="M56 96 C56 64 96 56 128 56 C160 56 200 64 200 96 L200 158 C200 192 160 200 128 200 C96 200 56 192 56 158 Z" fill="url(#gingerbreadshell-body)" stroke="#3c2a1a" stroke-width="6" stroke-linejoin="round"/>
  <ellipse cx="72" cy="98" rx="20" ry="30" fill="url(#gingerbreadshell-cream)" stroke="#3c2a1a" stroke-width="6"/>
  <ellipse cx="69" cy="92" rx="8" ry="13" fill="#fffdf2" opacity="0.7"/>
  <ellipse cx="184" cy="98" rx="20" ry="30" fill="url(#gingerbreadshell-cream)" stroke="#3c2a1a" stroke-width="6"/>
  <ellipse cx="181" cy="92" rx="8" ry="13" fill="#fffdf2" opacity="0.7"/>
  <!-- white icing zigzag -->
  <path d="M70 84 L88 96 L106 84 L124 96 L142 84 L160 96 L178 84" stroke="#fffbf0" stroke-width="6" stroke-linecap="round" stroke-linejoin="round" fill="none"/>
  <path d="M70 178 L88 166 L106 178 L124 166 L142 178 L160 166 L178 178" stroke="#fffbf0" stroke-width="6" stroke-linecap="round" stroke-linejoin="round" fill="none"/>
  <!-- white icing dots -->
  <circle cx="108" cy="120" r="6" fill="#fffbf0"/>
  <circle cx="148" cy="116" r="6" fill="#fffbf0"/>
  <circle cx="128" cy="140" r="6" fill="#fffbf0"/>
  <circle cx="100" cy="146" r="5" fill="#fffbf0"/>
  <circle cx="156" cy="144" r="5" fill="#fffbf0"/>
  <path d="M86 76 C104 70 122 70 132 75" stroke="#dba874" stroke-width="7" stroke-linecap="round" fill="none" opacity="0.6"/>
</svg>
