<svg xmlns="http://www.w3.org/2000/svg" viewBox="0 0 256 256" width="256" height="256">
  <defs>
    <linearGradient id="harvestshell-body" x1="0" y1="0" x2="0" y2="1">
      <stop offset="0" stop-color="#e8a04e"/>
      <stop offset="1" stop-color="#c4762d"/>
    </linearGradient>
    <linearGradient id="harvestshell-cream" x1="0" y1="0" x2="0" y2="1">
      <stop offset="0" stop-color="#fff7e0"/>
      <stop offset="1" stop-color="#f0dcab"/>
    </linearGradient>
    <clipPath id="harvestshell-clip">
      <path d="M56 96 C56 64 96 56 128 56 C160 56 200 64 200 96 L200 158 C200 192 160 200 128 200 C96 200 56 192 56 158 Z"/>
    </clipPath>
  </defs>
  <ellipse cx="128" cy="224" rx="62" ry="11" fill="#000" opacity="0.12"/>
  <path d="M56 96 C56 64 96 56 128 56 C160 56 200 64 200 96 L200 158 C200 192 160 200 128 200 C96 200 56 192 56 158 Z" fill="url(#harvestshell-body)" stroke="#3c2a1a" stroke-width="6" stroke-linejoin="round"/>
  <!-- brown diagonal stripes -->
  <g clip-path="url(#harvestshell-clip)">
    <path d="M70 50 L40 200" stroke="#7a4a22" stroke-width="13" opacity="0.85"/>
    <path d="M110 50 L80 210" stroke="#7a4a22" stroke-width="13" opacity="0.85"/>
    <path d="M150 50 L120 210" stroke="#7a4a22" stroke-width="13" opacity="0.85"/>
    <path d="M190 50 L160 210" stroke="#7a4a22" stroke-width="13" opacity="0.85"/>
    <path d="M226 50 L196 210" stroke="#7a4a22" stroke-width="13" opacity="0.85"/>
  </g>
  <ellipse cx="72" cy="98" rx="20" ry="30" fill="url(#harvestshell-cream)" stroke="#3c2a1a" stroke-width="6"/>
  <ellipse cx="69" cy="92" rx="8" ry="13" fill="#fffdf2" opacity="0.7"/>
  <ellipse cx="184" cy="98" rx="20" ry="30" fill="url(#harvestshell-cream)" stroke="#3c2a1a" stroke-width="6"/>
  <ellipse cx="181" cy="92" rx="8" ry="13" fill="#fffdf2" opacity="0.7"/>
  <path d="M84 76 C104 68 124 68 134 74" stroke="#f6c98a" stroke-width="7" stroke-linecap="round" fill="none" opacity="0.6"/>
</svg>
