<svg xmlns="http://www.w3.org/2000/svg" viewBox="0 0 256 256" width="256" height="256">
  <defs>
    <linearGradient id="starlightshell-body" x1="0" y1="0" x2="0" y2="1">
      <stop offset="0" stop-color="#5468ad"/>
      <stop offset="1" stop-color="#2f4076"/>
    </linearGradient>
    <linearGradient id="starlightshell-cream" x1="0" y1="0" x2="0" y2="1">
      <stop offset="0" stop-color="#fff7e8"/>
      <stop offset="1" stop-color="#f0e4c4"/>
    </linearGradient>
    <clipPath id="starlightshell-clip">
      <path d="M56 96 C56 64 96 56 128 56 C160 56 200 64 200 96 L200 158 C200 192 160 200 128 200 C96 200 56 192 56 158 Z"/>
    </clipPath>
  </defs>
  <ellipse cx="128" cy="224" rx="62" ry="11" fill="#000" opacity="0.12"/>
  <path d="M56 96 C56 64 96 56 128 56 C160 56 200 64 200 96 L200 158 C200 192 160 200 128 200 C96 200 56 192 56 158 Z" fill="url(#starlightshell-body)" stroke="#1c264a" stroke-width="6" stroke-linejoin="round"/>
  <!-- star sprinkles -->
  <g clip-path="url(#starlightshell-clip)" stroke="#1c264a" stroke-width="3" stroke-linejoin="round">
    <path d="M100 94 l4 9 10 1 -7 7 2 10 -9 -5 -9 5 2 -10 -7 -7 10 -1 z" fill="#ffe066"/>
    <path d="M154 100 l3 7 8 1 -6 5 2 8 -7 -4 -7 4 2 -8 -6 -5 8 -1 z" fill="#ffd1e8"/>
    <path d="M120 142 l3 7 8 1 -6 5 2 8 -7 -4 -7 4 2 -8 -6 -5 8 -1 z" fill="#a8e6ff"/>
    <path d="M168 150 l3 6 7 1 -5 5 1 7 -6 -3 -6 3 1 -7 -5 -5 7 -1 z" fill="#ffe066"/>
    <path d="M92 156 l3 6 7 1 -5 5 1 7 -6 -3 -6 3 1 -7 -5 -5 7 -1 z" fill="#ffd1e8"/>
  </g>
  <!-- tiny dot stars -->
  <g clip-path="url(#starlightshell-clip)" fill="#dfe7ff">
    <circle cx="138" cy="86" r="2.5"/>
    <circle cx="178" cy="120" r="2.5"/>
    <circle cx="86" cy="120" r="2.5"/>
    <circle cx="144" cy="170" r="2.5"/>
  </g>
  <ellipse cx="72" cy="98" rx="20" ry="30" fill="url(#starlightshell-cream)" stroke="#1c264a" stroke-width="6"/>
  <ellipse cx="69" cy="92" rx="8" ry="13" fill="#fffdf6" opacity="0.7"/>
  <ellipse cx="184" cy="98" rx="20" ry="30" fill="url(#starlightshell-cream)" stroke="#1c264a" stroke-width="6"/>
  <ellipse cx="181" cy="92" rx="8" ry="13" fill="#fffdf6" opacity="0.7"/>
  <path d="M86 76 C104 70 122 70 132 75" stroke="#8294cf" stroke-width="7" stroke-linecap="round" fill="none" opacity="0.6"/>
</svg>
