<svg xmlns="http://www.w3.org/2000/svg" viewBox="0 0 256 256" width="256" height="256">
  <defs>
    <linearGradient id="sunburstshell-body" x1="0" y1="0" x2="0" y2="1">
      <stop offset="0" stop-color="#ffc54e"/>
      <stop offset="1" stop-color="#ef9c1e"/>
    </linearGradient>
    <linearGradient id="sunburstshell-cream" x1="0" y1="0" x2="0" y2="1">
      <stop offset="0" stop-color="#fff7e0"/>
      <stop offset="1" stop-color="#f3e3b0"/>
    </linearGradient>
    <clipPath id="sunburstshell-clip">
      <path d="M56 96 C56 64 96 56 128 56 C160 56 200 64 200 96 L200 158 C200 192 160 200 128 200 C96 200 56 192 56 158 Z"/>
    </clipPath>
  </defs>
  <ellipse cx="128" cy="224" rx="62" ry="11" fill="#000" opacity="0.12"/>
  <path d="M56 96 C56 64 96 56 128 56 C160 56 200 64 200 96 L200 158 C200 192 160 200 128 200 C96 200 56 192 56 158 Z" fill="url(#sunburstshell-body)" stroke="#9c5d12" stroke-width="6" stroke-linejoin="round"/>
  <!-- radiating sun rays from center -->
  <g clip-path="url(#sunburstshell-clip)" stroke="#fff0b8" stroke-width="9" stroke-linecap="round" opacity="0.85">
    <path d="M128 128 L128 40"/>
    <path d="M128 128 L128 216"/>
    <path d="M128 128 L60 70"/>
    <path d="M128 128 L196 70"/>
    <path d="M128 128 L60 186"/>
    <path d="M128 128 L196 186"/>
    <path d="M128 128 L40 128"/>
    <path d="M128 128 L216 128"/>
  </g>
  <circle cx="128" cy="128" r="16" fill="#ffe680" stroke="#9c5d12" stroke-width="5"/>
  <circle cx="122" cy="122" r="5" fill="#fff7d6" opacity="0.8"/>
  <ellipse cx="72" cy="98" rx="20" ry="30" fill="url(#sunburstshell-cream)" stroke="#9c5d12" stroke-width="6"/>
  <ellipse cx="69" cy="92" rx="8" ry="13" fill="#fffdf2" opacity="0.7"/>
  <ellipse cx="184" cy="98" rx="20" ry="30" fill="url(#sunburstshell-cream)" stroke="#9c5d12" stroke-width="6"/>
  <ellipse cx="181" cy="92" rx="8" ry="13" fill="#fffdf2" opacity="0.7"/>
</svg>
