<svg xmlns="http://www.w3.org/2000/svg" viewBox="0 0 1200 340" width="1200" height="340" font-family="'Trebuchet MS','Segoe UI',system-ui,sans-serif">
  <defs>
    <linearGradient id="bn_bg" x1="0" y1="0" x2="0" y2="1">
      <stop offset="0" stop-color="#FFEFC9"/><stop offset="1" stop-color="#FFE0AE"/>
    </linearGradient>
    <linearGradient id="bn_bun" x1="0" y1="0" x2="0" y2="1"><stop offset="0" stop-color="#F2BD6C"/><stop offset="1" stop-color="#DB9A44"/></linearGradient>
  </defs>

  <!-- panel -->
  <rect x="10" y="10" width="1180" height="320" rx="32" fill="url(#bn_bg)" stroke="#43291a" stroke-width="10"/>

  <!-- corner sprinkles -->
  <g stroke-width="6" stroke-linecap="round">
    <line x1="60" y1="50" x2="84" y2="44" stroke="#E0584D" transform="rotate(20 72 47)"/>
    <line x1="120" y1="300" x2="144" y2="294" stroke="#3a7de0" transform="rotate(-25 132 297)"/>
    <line x1="1080" y1="58" x2="1104" y2="52" stroke="#3fb04f" transform="rotate(35 1092 55)"/>
    <line x1="700" y1="40" x2="724" y2="34" stroke="#f4c020" transform="rotate(-15 712 37)"/>
  </g>

  <!-- wordmark -->
  <text x="64" y="180" font-size="104" font-weight="bold" fill="#43291a" letter-spacing="1">Oorulogix</text>
  <rect x="68" y="196" width="372" height="9" rx="4.5" fill="#E0922f"/>
  <text x="68" y="246" font-size="31" font-weight="bold" fill="#8a5a2c">Flat Food Icons</text>
  <text x="70" y="285" font-size="23" fill="#a9763a">1000+ open-source SVG icons · MIT</text>

  <!-- mini icon cluster (right) -->
  <!-- coffee cup -->
  <g transform="translate(792 96)">
    <g fill="none" stroke="#c9b79a" stroke-width="5" stroke-linecap="round" opacity="0.7"><path d="M30 6 q-7 -10 0 -20"/><path d="M52 6 q7 -10 0 -20"/></g>
    <path d="M14 40 L70 40 L62 132 Q61 138 54 138 L30 138 Q23 138 22 132 Z" fill="#fff" stroke="#5a4a35" stroke-width="6" stroke-linejoin="round"/>
    <path d="M9 40 L75 40 L72 28 Q72 22 65 22 L19 22 Q12 22 12 28 Z" fill="#7A5A3A" stroke="#4a3520" stroke-width="6" stroke-linejoin="round"/>
    <path d="M20 84 L64 84 L60 110 L24 110 Z" fill="#C98A4B" stroke="#8a5a2c" stroke-width="5" stroke-linejoin="round"/>
  </g>
  <!-- burger -->
  <g transform="translate(902 104)">
    <ellipse cx="64" cy="150" rx="56" ry="9" fill="#000" opacity="0.10"/>
    <path d="M16 116 Q16 112 22 112 L106 112 Q112 112 112 116 L112 130 Q112 140 100 140 L28 140 Q16 140 16 130 Z" fill="url(#bn_bun)" stroke="#5a3418" stroke-width="6" stroke-linejoin="round"/>
    <path d="M18 96 L110 96 L110 108 L100 120 L88 106 L74 122 L64 106 L52 120 L40 106 L28 118 L18 108 Z" fill="#F8BE3C" stroke="#C8841A" stroke-width="5" stroke-linejoin="round"/>
    <path d="M14 92 Q14 50 64 46 Q114 50 114 92 Q114 98 106 98 L22 98 Q14 98 14 92 Z" fill="url(#bn_bun)" stroke="#5a3418" stroke-width="6" stroke-linejoin="round"/>
    <g fill="#FCEFD0" stroke="#C79A55" stroke-width="2"><ellipse cx="46" cy="72" rx="5" ry="3"/><ellipse cx="70" cy="66" rx="5" ry="3"/><ellipse cx="86" cy="78" rx="5" ry="3"/></g>
  </g>
  <!-- pizza slice -->
  <g transform="translate(1016 92) rotate(8)">
    <path d="M18 16 Q56 2 94 16 L86 36 Q56 26 26 36 Z" fill="#E0A24B" stroke="#9a5f25" stroke-width="6" stroke-linejoin="round"/>
    <path d="M26 34 L86 34 L62 150 Q56 158 50 150 Z" fill="#F6CD6E" stroke="#cf9447" stroke-width="6" stroke-linejoin="round"/>
    <circle cx="48" cy="64" r="11" fill="#C7382F" stroke="#9c2820" stroke-width="3"/>
    <circle cx="62" cy="100" r="9" fill="#C7382F" stroke="#9c2820" stroke-width="3"/>
    <ellipse cx="60" cy="74" rx="6" ry="3.5" fill="#4f8a2e"/>
  </g>

  <!-- baseline shadow line -->
  <ellipse cx="950" cy="262" rx="190" ry="14" fill="#000" opacity="0.06"/>
</svg>
