<svg xmlns="http://www.w3.org/2000/svg" viewBox="0 0 256 256" width="256" height="256">
  <!-- whole pepperoni pizza, top-down -->
  <ellipse cx="128" cy="140" rx="104" ry="104" fill="#000" opacity="0.10"/>
  <circle cx="128" cy="128" r="104" fill="#E0A24B" stroke="#9a5f25" stroke-width="7"/>
  <circle cx="128" cy="128" r="86" fill="#F2C879" stroke="#cf9447" stroke-width="3"/>
  <circle cx="128" cy="128" r="80" fill="#E8443A"/>
  <circle cx="128" cy="128" r="80" fill="#F6CD6E" opacity="0.78"/>
  <g fill="#FBE39B" opacity="0.7">
    <circle cx="96" cy="100" r="13"/><circle cx="150" cy="92" r="11"/><circle cx="170" cy="140" r="14"/>
    <circle cx="104" cy="158" r="12"/><circle cx="140" cy="160" r="10"/>
  </g>
  <g fill="#C7382F" stroke="#9c2820" stroke-width="3">
    <circle cx="100" cy="96" r="13"/><circle cx="158" cy="100" r="13"/><circle cx="128" cy="128" r="13"/>
    <circle cx="92" cy="150" r="13"/><circle cx="168" cy="150" r="13"/><circle cx="132" cy="172" r="13"/>
  </g>
  <g fill="#E0584D" opacity="0.6">
    <circle cx="96" cy="92" r="4"/><circle cx="154" cy="96" r="4"/><circle cx="124" cy="124" r="4"/>
    <circle cx="88" cy="146" r="4"/><circle cx="164" cy="146" r="4"/><circle cx="128" cy="168" r="4"/>
  </g>
  <g fill="#4f8a2e">
    <ellipse cx="124" cy="100" rx="7" ry="4" transform="rotate(30 124 100)"/>
    <ellipse cx="150" cy="150" rx="7" ry="4" transform="rotate(-20 150 150)"/>
    <ellipse cx="100" cy="130" rx="7" ry="4" transform="rotate(10 100 130)"/>
  </g>
</svg>
