<svg xmlns="http://www.w3.org/2000/svg" viewBox="0 0 256 256" width="256" height="256">
  <defs>
    <radialGradient id="pepperoni-grad" cx="40%" cy="35%" r="75%">
      <stop offset="0%" stop-color="#e0584c"/>
      <stop offset="100%" stop-color="#c7382f"/>
    </radialGradient>
  </defs>
  <ellipse cx="128" cy="222" rx="90" ry="13" fill="#000" opacity="0.10"/>

  <!-- back-left round -->
  <g>
    <circle cx="92" cy="96" r="42" fill="url(#pepperoni-grad)" stroke="#8f2620" stroke-width="6"/>
    <circle cx="92" cy="96" r="42" fill="none" stroke="#a32c24" stroke-width="3" opacity="0.6" transform="scale(0.86) translate(15,15.5)"/>
    <circle cx="74" cy="84" r="6" fill="#9c2a22" opacity="0.7"/>
    <circle cx="104" cy="110" r="5" fill="#9c2a22" opacity="0.7"/>
    <circle cx="110" cy="78" r="4.5" fill="#9c2a22" opacity="0.7"/>
    <path d="M70 72 Q82 64 98 70" fill="none" stroke="#fff" stroke-width="6" stroke-linecap="round" opacity="0.45"/>
  </g>

  <!-- right round -->
  <g>
    <circle cx="170" cy="124" r="48" fill="url(#pepperoni-grad)" stroke="#8f2620" stroke-width="6"/>
    <circle cx="170" cy="124" r="48" fill="none" stroke="#a32c24" stroke-width="3" opacity="0.6" transform="scale(0.86) translate(27,20)"/>
    <circle cx="152" cy="110" r="6.5" fill="#9c2a22" opacity="0.7"/>
    <circle cx="186" cy="140" r="6" fill="#9c2a22" opacity="0.7"/>
    <circle cx="188" cy="106" r="5" fill="#9c2a22" opacity="0.7"/>
    <circle cx="154" cy="142" r="4.5" fill="#9c2a22" opacity="0.7"/>
    <path d="M148 96 Q164 88 182 96" fill="none" stroke="#fff" stroke-width="7" stroke-linecap="round" opacity="0.45"/>
  </g>

  <!-- front-left round -->
  <g>
    <circle cx="98" cy="166" r="40" fill="url(#pepperoni-grad)" stroke="#8f2620" stroke-width="6"/>
    <circle cx="98" cy="166" r="40" fill="none" stroke="#a32c24" stroke-width="3" opacity="0.6" transform="scale(0.86) translate(16,28)"/>
    <circle cx="82" cy="156" r="5.5" fill="#9c2a22" opacity="0.7"/>
    <circle cx="112" cy="178" r="5" fill="#9c2a22" opacity="0.7"/>
    <circle cx="114" cy="150" r="4" fill="#9c2a22" opacity="0.7"/>
    <path d="M78 146 Q92 138 108 144" fill="none" stroke="#fff" stroke-width="6" stroke-linecap="round" opacity="0.45"/>
  </g>
</svg>
