<svg xmlns="http://www.w3.org/2000/svg" viewBox="0 0 256 256" width="256" height="256">
  <ellipse cx="128" cy="226" rx="48" ry="10" fill="#000" opacity="0.12"/>
  <defs>
    <linearGradient id="hazelnut_body" x1="0" y1="0" x2="1" y2="0">
      <stop offset="0" stop-color="#D9A064"/>
      <stop offset="1" stop-color="#C68B4E"/>
    </linearGradient>
    <clipPath id="hazelnut_bottle">
      <path d="M98 96 Q98 84 110 82 L110 70 L146 70 L146 82 Q158 84 158 96 L162 196 Q162 216 142 216 L114 216 Q94 216 94 196 Z"/>
    </clipPath>
  </defs>
  <!-- flip cap -->
  <rect x="108" y="40" width="40" height="34" rx="7" fill="#3c2a1a"/>
  <rect x="108" y="40" width="40" height="13" rx="6" fill="#5a4a35"/>
  <rect x="108" y="40" width="40" height="34" rx="7" fill="none" stroke="#43291a" stroke-width="6" stroke-linejoin="round"/>
  <!-- nozzle neck -->
  <rect x="116" y="66" width="24" height="12" fill="#4a3424"/>
  <!-- bottle body -->
  <g clip-path="url(#hazelnut_bottle)">
    <rect x="90" y="66" width="80" height="160" fill="url(#hazelnut_body)"/>
    <rect x="104" y="120" width="48" height="44" fill="#FBF4E7"/>
  </g>
  <path d="M98 96 Q98 84 110 82 L110 70 L146 70 L146 82 Q158 84 158 96 L162 196 Q162 216 142 216 L114 216 Q94 216 94 196 Z" fill="none" stroke="#43291a" stroke-width="6" stroke-linejoin="round"/>
  <!-- white label dab outline -->
  <rect x="104" y="120" width="48" height="44" rx="6" fill="none" stroke="#43291a" stroke-width="5" stroke-linejoin="round"/>
  <!-- hazelnut motif on label -->
  <ellipse cx="128" cy="142" rx="11" ry="13" fill="#C68B4E"/>
  <path d="M128 130 Q120 130 121 138 L135 138 Q136 130 128 130 Z" fill="#8a5a30"/>
  <!-- highlight -->
  <path d="M106 100 L102 192" stroke="#fff" stroke-width="6" stroke-linecap="round" opacity="0.35"/>
</svg>
