<svg xmlns="http://www.w3.org/2000/svg" viewBox="0 0 256 256" width="256" height="256">
  <ellipse cx="128" cy="226" rx="48" ry="10" fill="#000" opacity="0.12"/>
  <defs>
    <linearGradient id="rose_body" x1="0" y1="0" x2="1" y2="0">
      <stop offset="0" stop-color="#E287A6"/>
      <stop offset="1" stop-color="#D87093"/>
    </linearGradient>
    <clipPath id="rose_bottle">
      <path d="M98 96 Q98 84 110 82 L110 70 L146 70 L146 82 Q158 84 158 96 L162 196 Q162 216 142 216 L114 216 Q94 216 94 196 Z"/>
    </clipPath>
  </defs>
  <!-- flip cap -->
  <rect x="108" y="40" width="40" height="34" rx="7" fill="#3c2a1a"/>
  <rect x="108" y="40" width="40" height="13" rx="6" fill="#5a4a35"/>
  <rect x="108" y="40" width="40" height="34" rx="7" fill="none" stroke="#43291a" stroke-width="6" stroke-linejoin="round"/>
  <!-- nozzle neck -->
  <rect x="116" y="66" width="24" height="12" fill="#4a3424"/>
  <!-- bottle body -->
  <g clip-path="url(#rose_bottle)">
    <rect x="90" y="66" width="80" height="160" fill="url(#rose_body)"/>
    <rect x="104" y="120" width="48" height="44" fill="#FCF1F5"/>
  </g>
  <path d="M98 96 Q98 84 110 82 L110 70 L146 70 L146 82 Q158 84 158 96 L162 196 Q162 216 142 216 L114 216 Q94 216 94 196 Z" fill="none" stroke="#43291a" stroke-width="6" stroke-linejoin="round"/>
  <!-- white label dab outline -->
  <rect x="104" y="120" width="48" height="44" rx="6" fill="none" stroke="#43291a" stroke-width="5" stroke-linejoin="round"/>
  <!-- rose bloom motif -->
  <circle cx="128" cy="140" r="11" fill="#D87093"/>
  <path d="M128 140 Q122 134 128 132 Q134 134 128 140" fill="#fcf1f5" opacity="0.8"/>
  <path d="M128 140 Q121 142 122 148 Q128 146 128 140" fill="#b9577a" opacity="0.6"/>
  <path d="M128 140 Q135 142 134 148 Q128 146 128 140" fill="#b9577a" opacity="0.6"/>
  <circle cx="128" cy="140" r="11" fill="none" stroke="#5a4a35" stroke-width="4"/>
  <!-- leaf -->
  <path d="M139 152 Q146 150 146 156 Q140 158 139 152 Z" fill="#9aa86f" stroke="#5a4a35" stroke-width="3" stroke-linejoin="round"/>
  <!-- highlight -->
  <path d="M106 100 L102 192" stroke="#fff" stroke-width="6" stroke-linecap="round" opacity="0.4"/>
</svg>
