<svg xmlns="http://www.w3.org/2000/svg" viewBox="0 0 256 256" width="256" height="256">
  <defs>
    <linearGradient id="eggnog-body" x1="0" y1="0" x2="1" y2="1">
      <stop offset="0" stop-color="#f7eec6"/>
      <stop offset="1" stop-color="#f0e2b0"/>
    </linearGradient>
  </defs>
  <ellipse cx="128" cy="224" rx="58" ry="11" fill="#000" opacity="0.12"/>
  <path d="M78 96 L178 96 L178 206 Q178 212 172 212 L84 212 Q78 212 78 206 Z" fill="url(#eggnog-body)" stroke="#5a3a1f" stroke-width="6" stroke-linejoin="round"/>
  <path d="M78 96 L128 60 L178 96 Z" fill="#fbf5dc" stroke="#5a3a1f" stroke-width="6" stroke-linejoin="round"/>
  <path d="M128 60 L128 96" stroke="#5a3a1f" stroke-width="5" stroke-linecap="round"/>
  <path d="M101 78 L155 78" stroke="#5a3a1f" stroke-width="5" stroke-linecap="round"/>
  <path d="M88 104 L100 104 L100 200 L88 200 Z" fill="#fff" opacity="0.28"/>
  <rect x="96" y="128" width="64" height="52" rx="8" fill="#fffdf2" stroke="#5a3a1f" stroke-width="5"/>
  <!-- nutmeg dots accent -->
  <circle cx="116" cy="142" r="4" fill="#a9682f"/>
  <circle cx="132" cy="138" r="3.5" fill="#c4823f"/>
  <circle cx="144" cy="148" r="4" fill="#a9682f"/>
  <circle cx="124" cy="154" r="4.5" fill="#8f561f"/>
  <circle cx="138" cy="164" r="4" fill="#c4823f"/>
  <circle cx="118" cy="166" r="3.5" fill="#a9682f"/>
  <circle cx="150" cy="160" r="3" fill="#8f561f"/>
  <circle cx="108" cy="154" r="3" fill="#c4823f"/>
</svg>
