<svg xmlns="http://www.w3.org/2000/svg" viewBox="0 0 256 256" width="256" height="256">
  <defs>
    <linearGradient id="goldenmilk-body" x1="0" y1="0" x2="1" y2="1">
      <stop offset="0" stop-color="#edc04a"/>
      <stop offset="1" stop-color="#e0a92a"/>
    </linearGradient>
  </defs>
  <ellipse cx="128" cy="224" rx="58" ry="11" fill="#000" opacity="0.12"/>
  <path d="M78 96 L178 96 L178 206 Q178 212 172 212 L84 212 Q78 212 78 206 Z" fill="url(#goldenmilk-body)" stroke="#5a3a1f" stroke-width="6" stroke-linejoin="round"/>
  <path d="M78 96 L128 60 L178 96 Z" fill="#f3d175" stroke="#5a3a1f" stroke-width="6" stroke-linejoin="round"/>
  <path d="M128 60 L128 96" stroke="#5a3a1f" stroke-width="5" stroke-linecap="round"/>
  <path d="M101 78 L155 78" stroke="#5a3a1f" stroke-width="5" stroke-linecap="round"/>
  <path d="M88 104 L100 104 L100 200 L88 200 Z" fill="#fff" opacity="0.24"/>
  <rect x="96" y="128" width="64" height="52" rx="8" fill="#fff6e0" stroke="#5a3a1f" stroke-width="5"/>
  <!-- turmeric root accent -->
  <path d="M112 168 Q108 150 120 144 Q128 152 124 162 Q132 156 140 160 Q148 166 142 176 Q128 182 112 168 Z" fill="#e08a1e" stroke="#5a3a1f" stroke-width="5" stroke-linejoin="round"/>
  <path d="M120 150 L122 160 M134 164 L136 172" stroke="#a8631a" stroke-width="3" stroke-linecap="round"/>
  <!-- spice dots -->
  <circle cx="138" cy="142" r="3" fill="#c47a18"/>
  <circle cx="146" cy="150" r="2.5" fill="#e0a92a"/>
  <circle cx="108" cy="160" r="2.5" fill="#c47a18"/>
</svg>
