<svg xmlns="http://www.w3.org/2000/svg" viewBox="0 0 256 256" width="256" height="256">
  <defs>
    <linearGradient id="irishcreammilk-body" x1="0" y1="0" x2="1" y2="1">
      <stop offset="0" stop-color="#ddc4a4"/>
      <stop offset="1" stop-color="#cdb190"/>
    </linearGradient>
  </defs>
  <ellipse cx="128" cy="224" rx="58" ry="11" fill="#000" opacity="0.12"/>
  <path d="M78 96 L178 96 L178 206 Q178 212 172 212 L84 212 Q78 212 78 206 Z" fill="url(#irishcreammilk-body)" stroke="#5a3a1f" stroke-width="6" stroke-linejoin="round"/>
  <path d="M78 96 L128 60 L178 96 Z" fill="#e8d6bd" stroke="#5a3a1f" stroke-width="6" stroke-linejoin="round"/>
  <path d="M128 60 L128 96" stroke="#5a3a1f" stroke-width="5" stroke-linecap="round"/>
  <path d="M101 78 L155 78" stroke="#5a3a1f" stroke-width="5" stroke-linecap="round"/>
  <path d="M88 104 L100 104 L100 200 L88 200 Z" fill="#fff" opacity="0.22"/>
  <rect x="96" y="128" width="64" height="52" rx="8" fill="#fbf3e7" stroke="#5a3a1f" stroke-width="5"/>
  <!-- coffee bean accent -->
  <ellipse cx="128" cy="154" rx="14" ry="20" fill="#5a3a24" stroke="#43291a" stroke-width="5" transform="rotate(18 128 154)"/>
  <path d="M122 138 Q132 154 122 170" fill="none" stroke="#caa97e" stroke-width="4" stroke-linecap="round" transform="rotate(18 128 154)"/>
  <ellipse cx="121" cy="146" rx="3" ry="5" fill="#8a6440" opacity="0.6" transform="rotate(18 128 154)"/>
</svg>
