<svg xmlns="http://www.w3.org/2000/svg" viewBox="0 0 256 256" width="256" height="256">
  <defs>
    <linearGradient id="lollipopmilk-body" x1="0" y1="0" x2="1" y2="1">
      <stop offset="0" stop-color="#f78cb8"/>
      <stop offset="1" stop-color="#f06aa0"/>
    </linearGradient>
  </defs>
  <ellipse cx="128" cy="224" rx="58" ry="11" fill="#000" opacity="0.12"/>
  <path d="M78 96 L178 96 L178 206 Q178 212 172 212 L84 212 Q78 212 78 206 Z" fill="url(#lollipopmilk-body)" stroke="#5a3a1f" stroke-width="6" stroke-linejoin="round"/>
  <path d="M78 96 L128 60 L178 96 Z" fill="#f9aacb" stroke="#5a3a1f" stroke-width="6" stroke-linejoin="round"/>
  <path d="M128 60 L128 96" stroke="#5a3a1f" stroke-width="5" stroke-linecap="round"/>
  <path d="M101 78 L155 78" stroke="#5a3a1f" stroke-width="5" stroke-linecap="round"/>
  <path d="M88 104 L100 104 L100 200 L88 200 Z" fill="#fff" opacity="0.22"/>
  <rect x="96" y="128" width="64" height="52" rx="8" fill="#fff2f7" stroke="#5a3a1f" stroke-width="5"/>
  <!-- lollipop swirl accent -->
  <circle cx="128" cy="152" r="17" fill="#fff" stroke="#5a3a1f" stroke-width="5"/>
  <path d="M128 152 m0 0 Q140 152 140 142 Q140 132 128 132 Q112 132 112 148 Q112 168 132 168 Q156 168 156 144" fill="none" stroke="#f0427e" stroke-width="5" stroke-linecap="round"/>
  <path d="M128 169 L128 184" stroke="#5a3a1f" stroke-width="5" stroke-linecap="round"/>
</svg>
