<svg xmlns="http://www.w3.org/2000/svg" viewBox="0 0 256 256" width="256" height="256">
  <defs>
    <linearGradient id="rainbowmilk-body" x1="0" y1="0" x2="1" y2="1">
      <stop offset="0" stop-color="#ffffff"/>
      <stop offset="1" stop-color="#eef2f6"/>
    </linearGradient>
    <clipPath id="rainbowmilk-clip">
      <path d="M78 96 L178 96 L178 206 Q178 212 172 212 L84 212 Q78 212 78 206 Z"/>
    </clipPath>
  </defs>
  <ellipse cx="128" cy="224" rx="58" ry="11" fill="#000" opacity="0.12"/>
  <path d="M78 96 L178 96 L178 206 Q178 212 172 212 L84 212 Q78 212 78 206 Z" fill="url(#rainbowmilk-body)" stroke="#5a3a1f" stroke-width="6" stroke-linejoin="round"/>
  <!-- pastel rainbow stripes -->
  <g clip-path="url(#rainbowmilk-clip)">
    <rect x="78" y="188" width="100" height="24" fill="#a7d8a0"/>
    <rect x="78" y="170" width="100" height="18" fill="#aee0e6"/>
    <rect x="78" y="152" width="100" height="18" fill="#b9b6e6"/>
    <rect x="78" y="134" width="100" height="18" fill="#f6c0d6"/>
    <rect x="78" y="116" width="100" height="18" fill="#fbd9a0"/>
  </g>
  <path d="M78 96 L128 60 L178 96 Z" fill="#fbfdff" stroke="#5a3a1f" stroke-width="6" stroke-linejoin="round"/>
  <path d="M128 60 L128 96" stroke="#5a3a1f" stroke-width="5" stroke-linecap="round"/>
  <path d="M101 78 L155 78" stroke="#5a3a1f" stroke-width="5" stroke-linecap="round"/>
  <path d="M88 104 L100 104 L100 200 L88 200 Z" fill="#fff" opacity="0.3" clip-path="url(#rainbowmilk-clip)"/>
  <!-- rainbow arc accent -->
  <path d="M104 154 A24 24 0 0 1 152 154" fill="none" stroke="#f06aa0" stroke-width="6" stroke-linecap="round"/>
  <path d="M112 154 A16 16 0 0 1 144 154" fill="none" stroke="#f6b94a" stroke-width="6" stroke-linecap="round"/>
  <path d="M120 154 A8 8 0 0 1 136 154" fill="none" stroke="#6cc1d6" stroke-width="6" stroke-linecap="round"/>
</svg>
