<svg xmlns="http://www.w3.org/2000/svg" viewBox="0 0 256 256" width="256" height="256">
  <defs>
    <linearGradient id="ginger-body" x1="0" y1="0" x2="1" y2="1">
      <stop offset="0" stop-color="#eec062"/>
      <stop offset="1" stop-color="#c07f24"/>
    </linearGradient>
  </defs>
  <ellipse cx="128" cy="224" rx="58" ry="11" fill="#000" opacity="0.12"/>
  <!-- cap -->
  <rect x="106" y="34" width="44" height="22" rx="6" fill="#5a3a1f" stroke="#43291a" stroke-width="6" stroke-linejoin="round"/>
  <rect x="114" y="22" width="28" height="16" rx="5" fill="#724c28" stroke="#43291a" stroke-width="6" stroke-linejoin="round"/>
  <!-- neck -->
  <rect x="112" y="54" width="32" height="20" fill="#d99a3a" stroke="#43291a" stroke-width="6" stroke-linejoin="round"/>
  <!-- body -->
  <path d="M96 76 Q88 84 88 104 L88 178 Q88 206 128 206 Q168 206 168 178 L168 104 Q168 84 160 76 Z" fill="url(#ginger-body)" stroke="#43291a" stroke-width="6" stroke-linejoin="round"/>
  <!-- label dab -->
  <ellipse cx="128" cy="148" rx="30" ry="34" fill="#fff6e4" stroke="#43291a" stroke-width="5"/>
  <!-- ginger root accent -->
  <path d="M114 152 q-4 -10 6 -12 q4 -8 12 -4 q10 -2 12 8 q8 4 2 13 q2 9 -8 9 q-6 6 -13 0 q-9 1 -11 -8 q-6 -5 0 -14 z" fill="#dcab57" stroke="#9c6e20" stroke-width="2.5" stroke-linejoin="round"/>
  <path d="M122 144 q4 6 2 14 M132 142 q-2 8 4 16 M140 150 q-6 4 -10 10" fill="none" stroke="#9c6e20" stroke-width="2"/>
  <!-- highlight -->
  <path d="M104 92 Q98 100 98 120 L98 168" fill="none" stroke="#f6d795" stroke-width="8" stroke-linecap="round" opacity="0.82"/>
  <circle cx="150" cy="100" r="5" fill="#fcebc6" opacity="0.88"/>
</svg>
