<svg xmlns="http://www.w3.org/2000/svg" viewBox="0 0 256 256" width="256" height="256">
  <defs>
    <linearGradient id="honeydew-body" x1="0" y1="0" x2="1" y2="1">
      <stop offset="0" stop-color="#d3ec92"/>
      <stop offset="1" stop-color="#9cc24a"/>
    </linearGradient>
  </defs>
  <ellipse cx="128" cy="224" rx="58" ry="11" fill="#000" opacity="0.12"/>
  <!-- cap -->
  <rect x="106" y="34" width="44" height="22" rx="6" fill="#46531f" stroke="#333d16" stroke-width="6" stroke-linejoin="round"/>
  <rect x="114" y="22" width="28" height="16" rx="5" fill="#5d6e2a" stroke="#333d16" stroke-width="6" stroke-linejoin="round"/>
  <!-- neck -->
  <rect x="112" y="54" width="32" height="20" fill="#b8d96a" stroke="#333d16" stroke-width="6" stroke-linejoin="round"/>
  <!-- body -->
  <path d="M96 76 Q88 84 88 104 L88 178 Q88 206 128 206 Q168 206 168 178 L168 104 Q168 84 160 76 Z" fill="url(#honeydew-body)" stroke="#333d16" stroke-width="6" stroke-linejoin="round"/>
  <!-- label dab -->
  <ellipse cx="128" cy="148" rx="30" ry="34" fill="#fbffec" stroke="#333d16" stroke-width="5"/>
  <!-- melon wedge accent -->
  <path d="M111 158 q17 -24 34 0 q-17 9 -34 0 z" fill="#cdeb8a" stroke="#7a9636" stroke-width="2.5" stroke-linejoin="round"/>
  <path d="M114 156 q14 -18 28 0" fill="none" stroke="#9cc24a" stroke-width="4"/>
  <path d="M116 159 q12 -14 24 0" fill="none" stroke="#7a9636" stroke-width="2"/>
  <circle cx="124" cy="151" r="1.8" fill="#5d6e2a"/>
  <circle cx="132" cy="152" r="1.8" fill="#5d6e2a"/>
  <!-- highlight -->
  <path d="M104 92 Q98 100 98 120 L98 168" fill="none" stroke="#e8f7bd" stroke-width="8" stroke-linecap="round" opacity="0.85"/>
  <circle cx="150" cy="100" r="5" fill="#f2fbd6" opacity="0.9"/>
</svg>
