<svg xmlns="http://www.w3.org/2000/svg" viewBox="0 0 256 256" width="256" height="256">
  <defs>
    <linearGradient id="tropical-body" x1="0" y1="0" x2="1" y2="1">
      <stop offset="0" stop-color="#ff8a55"/>
      <stop offset="1" stop-color="#dd3a14"/>
    </linearGradient>
  </defs>
  <ellipse cx="128" cy="224" rx="58" ry="11" fill="#000" opacity="0.12"/>
  <!-- cap -->
  <rect x="106" y="34" width="44" height="22" rx="6" fill="#5a2414" stroke="#43201a" stroke-width="6" stroke-linejoin="round"/>
  <rect x="114" y="22" width="28" height="16" rx="5" fill="#74321e" stroke="#43201a" stroke-width="6" stroke-linejoin="round"/>
  <!-- neck -->
  <rect x="112" y="54" width="32" height="20" fill="#f0532a" stroke="#43201a" stroke-width="6" stroke-linejoin="round"/>
  <!-- body -->
  <path d="M96 76 Q88 84 88 104 L88 178 Q88 206 128 206 Q168 206 168 178 L168 104 Q168 84 160 76 Z" fill="url(#tropical-body)" stroke="#43201a" stroke-width="6" stroke-linejoin="round"/>
  <!-- label dab -->
  <ellipse cx="128" cy="148" rx="30" ry="34" fill="#fff1e8" stroke="#43201a" stroke-width="5"/>
  <!-- pineapple accent -->
  <ellipse cx="128" cy="155" rx="11" ry="14" fill="#f4c33e" stroke="#b07e1d" stroke-width="2.5"/>
  <path d="M120 146 l16 18 M136 146 l-16 18" stroke="#b07e1d" stroke-width="2"/>
  <path d="M128 141 q-7 -10 -2 -16 M128 141 q0 -12 0 -16 M128 141 q7 -10 2 -16" fill="none" stroke="#4a9c3a" stroke-width="4" stroke-linecap="round"/>
  <!-- highlight -->
  <path d="M104 92 Q98 100 98 120 L98 168" fill="none" stroke="#ffbe98" stroke-width="8" stroke-linecap="round" opacity="0.8"/>
  <circle cx="150" cy="100" r="5" fill="#ffd9c2" opacity="0.85"/>
</svg>
