<svg xmlns="http://www.w3.org/2000/svg" viewBox="0 0 256 256" width="256" height="256">
  <defs>
    <linearGradient id="cherry-body" x1="0" y1="0" x2="1" y2="1">
      <stop offset="0" stop-color="#ef85a0"/>
      <stop offset="1" stop-color="#c8425f"/>
    </linearGradient>
  </defs>
  <ellipse cx="128" cy="224" rx="58" ry="11" fill="#000" opacity="0.12"/>
  <!-- cap -->
  <rect x="106" y="34" width="44" height="22" rx="6" fill="#4a1f2c" stroke="#3c1a22" stroke-width="6" stroke-linejoin="round"/>
  <rect x="114" y="22" width="28" height="16" rx="5" fill="#642a3a" stroke="#3c1a22" stroke-width="6" stroke-linejoin="round"/>
  <!-- neck -->
  <rect x="112" y="54" width="32" height="20" fill="#e2607a" stroke="#3c1a22" stroke-width="6" stroke-linejoin="round"/>
  <!-- body -->
  <path d="M96 76 Q88 84 88 104 L88 178 Q88 206 128 206 Q168 206 168 178 L168 104 Q168 84 160 76 Z" fill="url(#cherry-body)" stroke="#3c1a22" stroke-width="6" stroke-linejoin="round"/>
  <!-- label dab -->
  <ellipse cx="128" cy="148" rx="30" ry="34" fill="#fff0f4" stroke="#3c1a22" stroke-width="5"/>
  <!-- cherry accent -->
  <circle cx="122" cy="156" r="9" fill="#d62f4e" stroke="#8c1d32" stroke-width="2.5"/>
  <circle cx="136" cy="158" r="8" fill="#e2607a" stroke="#8c1d32" stroke-width="2.5"/>
  <path d="M122 147 q4 -12 14 -14 M136 150 q3 -10 10 -12" fill="none" stroke="#5e7a2a" stroke-width="3" stroke-linecap="round"/>
  <circle cx="119" cy="153" r="2.5" fill="#fff" opacity="0.8"/>
  <!-- highlight -->
  <path d="M104 92 Q98 100 98 120 L98 168" fill="none" stroke="#f8b8c8" stroke-width="8" stroke-linecap="round" opacity="0.8"/>
  <circle cx="150" cy="100" r="5" fill="#fde0e8" opacity="0.85"/>
</svg>
