<svg xmlns="http://www.w3.org/2000/svg" viewBox="0 0 256 256" width="256" height="256">
  <ellipse cx="128" cy="226" rx="56" ry="10" fill="#000" opacity="0.12"/>
  <defs>
    <linearGradient id="ice_faceA" x1="0" y1="0" x2="0" y2="1">
      <stop offset="0" stop-color="#F2F8FC"/>
      <stop offset="1" stop-color="#DDEBF2"/>
    </linearGradient>
    <linearGradient id="ice_faceB" x1="0" y1="0" x2="0" y2="1">
      <stop offset="0" stop-color="#DDEBF2"/>
      <stop offset="1" stop-color="#C2D8E5"/>
    </linearGradient>
  </defs>
  <!-- bottom cube -->
  <g stroke="#5a7184" stroke-width="6" stroke-linejoin="round">
    <path d="M70 150 L106 132 L150 150 L114 170 Z" fill="url(#ice_faceA)"/>
    <path d="M70 150 L114 170 L114 208 L70 188 Z" fill="url(#ice_faceB)"/>
    <path d="M150 150 L114 170 L114 208 L150 188 Z" fill="#CFE0EB"/>
  </g>
  <!-- right cube -->
  <g stroke="#5a7184" stroke-width="6" stroke-linejoin="round">
    <path d="M138 120 L172 104 L210 120 L176 138 Z" fill="url(#ice_faceA)"/>
    <path d="M138 120 L176 138 L176 174 L138 158 Z" fill="url(#ice_faceB)"/>
    <path d="M210 120 L176 138 L176 174 L210 158 Z" fill="#CFE0EB"/>
  </g>
  <!-- top cube -->
  <g stroke="#5a7184" stroke-width="6" stroke-linejoin="round">
    <path d="M84 96 L118 80 L156 96 L122 114 Z" fill="url(#ice_faceA)"/>
    <path d="M84 96 L122 114 L122 150 L84 134 Z" fill="url(#ice_faceB)"/>
    <path d="M156 96 L122 114 L122 150 L156 134 Z" fill="#CFE0EB"/>
  </g>
  <!-- frost highlights -->
  <path d="M92 100 L112 90" stroke="#fff" stroke-width="5" stroke-linecap="round" opacity="0.7"/>
  <path d="M146 110 L164 102" stroke="#fff" stroke-width="5" stroke-linecap="round" opacity="0.6"/>
  <path d="M78 154 L100 144" stroke="#fff" stroke-width="5" stroke-linecap="round" opacity="0.6"/>
  <!-- sparkle -->
  <path d="M180 92 l0 -10 M180 92 l0 10 M180 92 l-9 0 M180 92 l9 0" stroke="#fff" stroke-width="4" stroke-linecap="round" opacity="0.85"/>
</svg>
