<svg xmlns="http://www.w3.org/2000/svg" viewBox="0 0 256 256" width="256" height="256">
  <defs>
    <radialGradient id="toffeebits-pile" cx="50%" cy="40%" r="65%">
      <stop offset="0%" stop-color="#ffe9bf"/>
      <stop offset="100%" stop-color="#e6b46a"/>
    </radialGradient>
    <linearGradient id="toffeebits-chunk" x1="0" y1="0" x2="0" y2="1">
      <stop offset="0%" stop-color="#e8a23c"/>
      <stop offset="100%" stop-color="#b06a22"/>
    </linearGradient>
  </defs>
  <ellipse cx="128" cy="224" rx="62" ry="11" fill="#000" opacity="0.12"/>
  <path d="M58 150 C58 120 92 104 128 104 C168 104 200 122 200 150 C200 172 168 184 128 184 C90 184 58 174 58 150 Z" fill="url(#toffeebits-pile)" stroke="#43291a" stroke-width="6" stroke-linejoin="round"/>
  <path d="M70 138 C92 124 168 124 188 140 C170 130 96 130 70 138 Z" fill="#fff" opacity="0.4"/>
  <!-- toffee chunks (rounded rectangles, varied angles) -->
  <g stroke="#3c2a1a" stroke-width="4" stroke-linejoin="round">
    <rect x="82" y="120" width="22" height="15" rx="4" fill="url(#toffeebits-chunk)" transform="rotate(-14 93 127)"/>
    <rect x="150" y="120" width="20" height="14" rx="4" fill="url(#toffeebits-chunk)" transform="rotate(18 160 127)"/>
    <rect x="116" y="150" width="22" height="15" rx="4" fill="url(#toffeebits-chunk)" transform="rotate(6 127 157)"/>
    <rect x="72" y="154" width="18" height="13" rx="4" fill="url(#toffeebits-chunk)" transform="rotate(-22 81 160)"/>
    <rect x="166" y="152" width="18" height="13" rx="4" fill="url(#toffeebits-chunk)" transform="rotate(24 175 158)"/>
  </g>
  <!-- highlights -->
  <g fill="#ffe0a8" opacity="0.8">
    <rect x="86" y="123" width="8" height="3" rx="1.5" transform="rotate(-14 90 124)"/>
    <rect x="153" y="123" width="7" height="3" rx="1.5" transform="rotate(18 156 124)"/>
    <rect x="120" y="153" width="8" height="3" rx="1.5" transform="rotate(6 124 154)"/>
  </g>
</svg>
