<svg xmlns="http://www.w3.org/2000/svg" viewBox="0 0 256 256" width="256" height="256">
  <defs>
    <radialGradient id="xosprinkles-pile" cx="50%" cy="40%" r="65%">
      <stop offset="0%" stop-color="#fff0f5"/>
      <stop offset="100%" stop-color="#ffd0e0"/>
    </radialGradient>
  </defs>
  <ellipse cx="128" cy="224" rx="62" ry="11" fill="#000" opacity="0.12"/>
  <path d="M58 150 C58 120 92 104 128 104 C168 104 200 122 200 150 C200 172 168 184 128 184 C90 184 58 174 58 150 Z" fill="url(#xosprinkles-pile)" stroke="#43291a" stroke-width="6" stroke-linejoin="round"/>
  <path d="M70 138 C92 124 168 124 188 140 C170 130 96 130 70 138 Z" fill="#fff" opacity="0.45"/>
  <!-- heart -->
  <path d="M94 128 C90 122 80 124 80 132 C80 138 90 144 94 148 C98 144 108 138 108 132 C108 124 98 122 94 128 Z" fill="#ff5f97" stroke="#3c2a1a" stroke-width="4" stroke-linejoin="round"/>
  <!-- X sprinkle -->
  <g stroke="#e23b6e" stroke-width="6" stroke-linecap="round">
    <line x1="152" y1="122" x2="166" y2="136"/>
    <line x1="166" y1="122" x2="152" y2="136"/>
  </g>
  <g stroke="#3c2a1a" stroke-width="2" stroke-linecap="round" opacity="0.5">
    <line x1="152" y1="122" x2="166" y2="136"/>
    <line x1="166" y1="122" x2="152" y2="136"/>
  </g>
  <!-- O sprinkle -->
  <circle cx="128" cy="162" r="11" fill="none" stroke="#ff9ec4" stroke-width="6"/>
  <circle cx="128" cy="162" r="11" fill="none" stroke="#3c2a1a" stroke-width="1.5" opacity="0.4"/>
  <!-- small heart -->
  <path d="M82 162 C80 158 74 159 74 164 C74 168 80 171 82 173 C84 171 90 168 90 164 C90 159 84 158 82 162 Z" fill="#ff5f97" stroke="#3c2a1a" stroke-width="3.5" stroke-linejoin="round"/>
  <!-- X small -->
  <g stroke="#e23b6e" stroke-width="5" stroke-linecap="round">
    <line x1="168" y1="156" x2="178" y2="166"/>
    <line x1="178" y1="156" x2="168" y2="166"/>
  </g>
  <!-- dots -->
  <ellipse cx="112" cy="150" rx="5" ry="3.5" fill="#ff9ec4" stroke="#3c2a1a" stroke-width="3" transform="rotate(20 112 150)"/>
  <ellipse cx="148" cy="148" rx="5" ry="3.5" fill="#ff5f97" stroke="#3c2a1a" stroke-width="3" transform="rotate(-18 148 148)"/>
</svg>
