<svg xmlns="http://www.w3.org/2000/svg" viewBox="0 0 256 256" width="256" height="256">
  <defs>
    <linearGradient id="powdermidnight-glass" x1="0" y1="0" x2="1" y2="1">
      <stop offset="0" stop-color="#4a4a6e"/>
      <stop offset="1" stop-color="#2a2a4a"/>
    </linearGradient>
    <linearGradient id="powdermidnight-lid" x1="0" y1="0" x2="0" y2="1">
      <stop offset="0" stop-color="#8a8aa6"/>
      <stop offset="1" stop-color="#5a5a78"/>
    </linearGradient>
  </defs>
  <ellipse cx="128" cy="224" rx="58" ry="11" fill="#000" opacity="0.12"/>
  <path d="M58 214 q22 -26 70 -26 q48 0 70 26 q-32 10 -70 10 q-38 0 -70 -10 Z" fill="#2a2a4a" stroke="#3c2a1a" stroke-width="6" stroke-linejoin="round"/>
  <!-- sparkles in mound -->
  <path d="M100 200 l2 5 l5 2 l-5 2 l-2 5 l-2 -5 l-5 -2 l5 -2 Z" fill="#fff7c0"/>
  <path d="M152 204 l1.6 4 l4 1.6 l-4 1.6 l-1.6 4 l-1.6 -4 l-4 -1.6 l4 -1.6 Z" fill="#fff7c0"/>
  <rect x="84" y="92" width="88" height="100" rx="20" fill="url(#powdermidnight-glass)" stroke="#3c2a1a" stroke-width="6" stroke-linejoin="round"/>
  <rect x="90" y="128" width="76" height="58" rx="14" fill="#2a2a4a" opacity="0.9"/>
  <!-- sparkles inside -->
  <path d="M110 146 l2 5 l5 2 l-5 2 l-2 5 l-2 -5 l-5 -2 l5 -2 Z" fill="#fff7c0"/>
  <path d="M146 158 l1.6 4 l4 1.6 l-4 1.6 l-1.6 4 l-1.6 -4 l-4 -1.6 l4 -1.6 Z" fill="#fff7c0"/>
  <circle cx="128" cy="172" r="2.2" fill="#fff7c0"/>
  <rect x="96" y="104" width="14" height="74" rx="7" fill="#ffffff" opacity="0.28"/>
  <rect x="98" y="76" width="60" height="22" rx="8" fill="#3a3a5a" stroke="#3c2a1a" stroke-width="6" stroke-linejoin="round"/>
  <rect x="92" y="54" width="72" height="30" rx="12" fill="url(#powdermidnight-lid)" stroke="#3c2a1a" stroke-width="6" stroke-linejoin="round"/>
  <circle cx="112" cy="69" r="3.4" fill="#2a2a3a"/>
  <circle cx="128" cy="66" r="3.4" fill="#2a2a3a"/>
  <circle cx="144" cy="69" r="3.4" fill="#2a2a3a"/>
  <circle cx="120" cy="76" r="3" fill="#2a2a3a"/>
  <circle cx="136" cy="76" r="3" fill="#2a2a3a"/>
  <rect x="98" y="58" width="10" height="20" rx="5" fill="#ffffff" opacity="0.3"/>
</svg>
