<svg xmlns="http://www.w3.org/2000/svg" viewBox="0 0 256 256" width="256" height="256">
  <defs>
    <linearGradient id="powderpeppermint-glass" x1="0" y1="0" x2="1" y2="1">
      <stop offset="0" stop-color="#ffffff"/>
      <stop offset="1" stop-color="#ffdfe0"/>
    </linearGradient>
    <linearGradient id="powderpeppermint-lid" x1="0" y1="0" x2="0" y2="1">
      <stop offset="0" stop-color="#f59a9a"/>
      <stop offset="1" stop-color="#ef6a6a"/>
    </linearGradient>
  </defs>
  <ellipse cx="128" cy="224" rx="58" ry="11" fill="#000" opacity="0.12"/>
  <path d="M58 214 q22 -26 70 -26 q48 0 70 26 q-32 10 -70 10 q-38 0 -70 -10 Z" fill="#fceeee" stroke="#5a3a1f" stroke-width="6" stroke-linejoin="round"/>
  <!-- red flecks in mound -->
  <circle cx="98" cy="204" r="3" fill="#ef6a6a"/>
  <circle cx="128" cy="208" r="3" fill="#ef6a6a"/>
  <circle cx="156" cy="203" r="3" fill="#ef6a6a"/>
  <circle cx="114" cy="210" r="2.6" fill="#ef6a6a"/>
  <circle cx="142" cy="210" r="2.6" fill="#ef6a6a"/>
  <rect x="84" y="92" width="88" height="100" rx="20" fill="url(#powderpeppermint-glass)" stroke="#5a3a1f" stroke-width="6" stroke-linejoin="round"/>
  <rect x="90" y="128" width="76" height="58" rx="14" fill="#fde4e4" opacity="0.95"/>
  <circle cx="106" cy="150" r="3.2" fill="#ef6a6a"/>
  <circle cx="138" cy="142" r="3.2" fill="#ef6a6a"/>
  <circle cx="150" cy="166" r="3" fill="#ef6a6a"/>
  <circle cx="118" cy="170" r="3" fill="#ef6a6a"/>
  <rect x="96" y="104" width="14" height="74" rx="7" fill="#ffffff" opacity="0.5"/>
  <rect x="98" y="76" width="60" height="22" rx="8" fill="#ffeded" stroke="#5a3a1f" stroke-width="6" stroke-linejoin="round"/>
  <rect x="92" y="54" width="72" height="30" rx="12" fill="url(#powderpeppermint-lid)" stroke="#5a3a1f" stroke-width="6" stroke-linejoin="round"/>
  <circle cx="112" cy="69" r="3.4" fill="#7a2a2a"/>
  <circle cx="128" cy="66" r="3.4" fill="#7a2a2a"/>
  <circle cx="144" cy="69" r="3.4" fill="#7a2a2a"/>
  <circle cx="120" cy="76" r="3" fill="#7a2a2a"/>
  <circle cx="136" cy="76" r="3" fill="#7a2a2a"/>
  <rect x="98" y="58" width="10" height="20" rx="5" fill="#ffffff" opacity="0.34"/>
</svg>
