<svg xmlns="http://www.w3.org/2000/svg" viewBox="0 0 256 256" width="256" height="256">
  <defs>
    <linearGradient id="powdergolddust-glass" x1="0" y1="0" x2="1" y2="1">
      <stop offset="0" stop-color="#f6d878"/>
      <stop offset="1" stop-color="#e8c24a"/>
    </linearGradient>
    <linearGradient id="powdergolddust-lid" x1="0" y1="0" x2="0" y2="1">
      <stop offset="0" stop-color="#f2e0a0"/>
      <stop offset="1" stop-color="#c9a838"/>
    </linearGradient>
  </defs>
  <ellipse cx="128" cy="224" rx="58" ry="11" fill="#000" opacity="0.12"/>
  <path d="M58 214 q22 -26 70 -26 q48 0 70 26 q-32 10 -70 10 q-38 0 -70 -10 Z" fill="#e8c24a" stroke="#5a3a1f" stroke-width="6" stroke-linejoin="round"/>
  <!-- gold sparkles in mound -->
  <path d="M100 200 l2 5 l5 2 l-5 2 l-2 5 l-2 -5 l-5 -2 l5 -2 Z" fill="#fffbe0"/>
  <path d="M152 204 l1.6 4 l4 1.6 l-4 1.6 l-1.6 4 l-1.6 -4 l-4 -1.6 l4 -1.6 Z" fill="#fffbe0"/>
  <rect x="84" y="92" width="88" height="100" rx="20" fill="url(#powdergolddust-glass)" stroke="#5a3a1f" stroke-width="6" stroke-linejoin="round"/>
  <rect x="90" y="128" width="76" height="58" rx="14" fill="#e8c24a" opacity="0.9"/>
  <path d="M110 146 l2 5 l5 2 l-5 2 l-2 5 l-2 -5 l-5 -2 l5 -2 Z" fill="#fffbe0"/>
  <path d="M146 158 l1.6 4 l4 1.6 l-4 1.6 l-1.6 4 l-1.6 -4 l-4 -1.6 l4 -1.6 Z" fill="#fffbe0"/>
  <circle cx="128" cy="172" r="2.2" fill="#fffbe0"/>
  <rect x="96" y="104" width="14" height="74" rx="7" fill="#ffffff" opacity="0.45"/>
  <rect x="98" y="76" width="60" height="22" rx="8" fill="#efce5c" stroke="#5a3a1f" stroke-width="6" stroke-linejoin="round"/>
  <rect x="92" y="54" width="72" height="30" rx="12" fill="url(#powdergolddust-lid)" stroke="#5a3a1f" stroke-width="6" stroke-linejoin="round"/>
  <circle cx="112" cy="69" r="3.4" fill="#8a6a1f"/>
  <circle cx="128" cy="66" r="3.4" fill="#8a6a1f"/>
  <circle cx="144" cy="69" r="3.4" fill="#8a6a1f"/>
  <circle cx="120" cy="76" r="3" fill="#8a6a1f"/>
  <circle cx="136" cy="76" r="3" fill="#8a6a1f"/>
  <rect x="98" y="58" width="10" height="20" rx="5" fill="#ffffff" opacity="0.4"/>
</svg>
