<svg xmlns="http://www.w3.org/2000/svg" viewBox="0 0 256 256" width="256" height="256">
  <defs>
    <linearGradient id="powdercherryblossom-glass" x1="0" y1="0" x2="1" y2="1">
      <stop offset="0" stop-color="#fad6e0"/>
      <stop offset="1" stop-color="#f3b9c8"/>
    </linearGradient>
    <linearGradient id="powdercherryblossom-lid" x1="0" y1="0" x2="0" y2="1">
      <stop offset="0" stop-color="#fbe0e8"/>
      <stop offset="1" stop-color="#e89aaf"/>
    </linearGradient>
  </defs>
  <ellipse cx="128" cy="224" rx="58" ry="11" fill="#000" opacity="0.12"/>
  <path d="M58 214 q22 -26 70 -26 q48 0 70 26 q-32 10 -70 10 q-38 0 -70 -10 Z" fill="#f3b9c8" stroke="#5a3a1f" stroke-width="6" stroke-linejoin="round"/>
  <path d="M76 206 q20 -12 52 -12 q32 0 52 12" fill="none" stroke="#fad6e0" stroke-width="5" stroke-linecap="round" opacity="0.7"/>
  <!-- tiny blossom petals in mound -->
  <circle cx="104" cy="204" r="2.6" fill="#ffffff"/>
  <circle cx="150" cy="205" r="2.6" fill="#ffffff"/>
  <rect x="84" y="92" width="88" height="100" rx="20" fill="url(#powdercherryblossom-glass)" stroke="#5a3a1f" stroke-width="6" stroke-linejoin="round"/>
  <rect x="90" y="128" width="76" height="58" rx="14" fill="#f3b9c8" opacity="0.95"/>
  <path d="M90 132 q38 -14 76 0" fill="none" stroke="#fde2ea" stroke-width="5" stroke-linecap="round" opacity="0.8"/>
  <!-- little flower detail -->
  <g transform="translate(128 156)">
    <circle cx="0" cy="-6" r="3.2" fill="#ffffff"/>
    <circle cx="6" cy="-2" r="3.2" fill="#ffffff"/>
    <circle cx="4" cy="5" r="3.2" fill="#ffffff"/>
    <circle cx="-4" cy="5" r="3.2" fill="#ffffff"/>
    <circle cx="-6" cy="-2" r="3.2" fill="#ffffff"/>
    <circle cx="0" cy="0" r="2.4" fill="#e8729a"/>
  </g>
  <rect x="96" y="104" width="14" height="74" rx="7" fill="#ffffff" opacity="0.46"/>
  <rect x="98" y="76" width="60" height="22" rx="8" fill="#f6c4d2" stroke="#5a3a1f" stroke-width="6" stroke-linejoin="round"/>
  <rect x="92" y="54" width="72" height="30" rx="12" fill="url(#powdercherryblossom-lid)" stroke="#5a3a1f" stroke-width="6" stroke-linejoin="round"/>
  <circle cx="112" cy="69" r="3.4" fill="#a85a72"/>
  <circle cx="128" cy="66" r="3.4" fill="#a85a72"/>
  <circle cx="144" cy="69" r="3.4" fill="#a85a72"/>
  <circle cx="120" cy="76" r="3" fill="#a85a72"/>
  <circle cx="136" cy="76" r="3" fill="#a85a72"/>
  <rect x="98" y="58" width="10" height="20" rx="5" fill="#ffffff" opacity="0.42"/>
</svg>
