<svg xmlns="http://www.w3.org/2000/svg" viewBox="0 0 256 256" width="256" height="256">
  <defs>
    <linearGradient id="powderspicedchocolate-glass" x1="0" y1="0" x2="1" y2="1">
      <stop offset="0" stop-color="#8a5a38"/>
      <stop offset="1" stop-color="#6b4226"/>
    </linearGradient>
    <linearGradient id="powderspicedchocolate-lid" x1="0" y1="0" x2="0" y2="1">
      <stop offset="0" stop-color="#b89070"/>
      <stop offset="1" stop-color="#8a6648"/>
    </linearGradient>
  </defs>
  <ellipse cx="128" cy="224" rx="58" ry="11" fill="#000" opacity="0.12"/>
  <path d="M58 214 q22 -26 70 -26 q48 0 70 26 q-32 10 -70 10 q-38 0 -70 -10 Z" fill="#6b4226" stroke="#43291a" stroke-width="6" stroke-linejoin="round"/>
  <path d="M76 206 q20 -12 52 -12 q32 0 52 12" fill="none" stroke="#8a5a38" stroke-width="5" stroke-linecap="round" opacity="0.7"/>
  <!-- cinnamon fleck accents -->
  <circle cx="106" cy="205" r="2.4" fill="#c87a3a"/>
  <circle cx="148" cy="206" r="2.4" fill="#c87a3a"/>
  <rect x="84" y="92" width="88" height="100" rx="20" fill="url(#powderspicedchocolate-glass)" stroke="#43291a" stroke-width="6" stroke-linejoin="round"/>
  <rect x="90" y="128" width="76" height="58" rx="14" fill="#6b4226" opacity="0.9"/>
  <path d="M90 132 q38 -14 76 0" fill="none" stroke="#9a6a44" stroke-width="5" stroke-linecap="round" opacity="0.75"/>
  <circle cx="112" cy="152" r="2.6" fill="#c87a3a"/>
  <circle cx="144" cy="148" r="2.6" fill="#c87a3a"/>
  <circle cx="130" cy="170" r="2.4" fill="#c87a3a"/>
  <rect x="96" y="104" width="14" height="74" rx="7" fill="#ffffff" opacity="0.28"/>
  <rect x="98" y="76" width="60" height="22" rx="8" fill="#7a4e30" stroke="#43291a" stroke-width="6" stroke-linejoin="round"/>
  <rect x="92" y="54" width="72" height="30" rx="12" fill="url(#powderspicedchocolate-lid)" stroke="#43291a" stroke-width="6" stroke-linejoin="round"/>
  <circle cx="112" cy="69" r="3.4" fill="#43291a"/>
  <circle cx="128" cy="66" r="3.4" fill="#43291a"/>
  <circle cx="144" cy="69" r="3.4" fill="#43291a"/>
  <circle cx="120" cy="76" r="3" fill="#43291a"/>
  <circle cx="136" cy="76" r="3" fill="#43291a"/>
  <rect x="98" y="58" width="10" height="20" rx="5" fill="#ffffff" opacity="0.3"/>
</svg>
