<svg xmlns="http://www.w3.org/2000/svg" viewBox="0 0 256 256" width="256" height="256">
  <ellipse cx="128" cy="226" rx="54" ry="10" fill="#000" opacity="0.12"/>
  <defs>
    <clipPath id="carmac_c">
      <path d="M92 104 L164 104 L158 192 Q156 206 142 206 L114 206 Q100 206 98 192 Z"/>
    </clipPath>
    <linearGradient id="carmac_g" x1="0" y1="0" x2="0" y2="1">
      <stop offset="0" stop-color="#6b462b"/>
      <stop offset="1" stop-color="#5C3A23"/>
    </linearGradient>
  </defs>
  <!-- glass liquid layers -->
  <g clip-path="url(#carmac_c)">
    <rect x="88" y="104" width="80" height="42" fill="#FBF6EA"/>
    <rect x="88" y="146" width="80" height="66" fill="url(#carmac_g)"/>
    <!-- foam cap swell -->
    <ellipse cx="128" cy="146" rx="36" ry="14" fill="#FBF6EA"/>
    <!-- caramel drizzle sinking in -->
    <path d="M104 118 Q110 132 104 146 Q98 160 106 174" fill="none" stroke="#D9913B" stroke-width="5" stroke-linecap="round"/>
    <path d="M150 116 Q144 130 150 144 Q156 158 148 172" fill="none" stroke="#D9913B" stroke-width="5" stroke-linecap="round"/>
    <path d="M128 120 Q122 134 128 150" fill="none" stroke="#D9913B" stroke-width="4" stroke-linecap="round"/>
    <!-- highlight stripe -->
    <path d="M102 116 L98 196" fill="none" stroke="#ffffff" stroke-width="6" stroke-linecap="round" opacity="0.4"/>
  </g>
  <!-- foam mound -->
  <path d="M98 104 Q108 90 128 90 Q148 90 158 104 Z" fill="#FBF6EA" stroke="#5a4a35" stroke-width="5" stroke-linejoin="round"/>
  <!-- caramel drizzle over foam -->
  <path d="M106 100 Q118 94 128 100 Q138 106 150 100" fill="none" stroke="#D9913B" stroke-width="5" stroke-linecap="round"/>
  <ellipse cx="117" cy="98" rx="5" ry="3" fill="#ffffff" opacity="0.7"/>
  <!-- glass outline -->
  <path d="M92 104 L164 104 L158 192 Q156 206 142 206 L114 206 Q100 206 98 192 Z" fill="none" stroke="#43291a" stroke-width="6" stroke-linejoin="round"/>
  <line x1="98" y1="104" x2="158" y2="104" stroke="#43291a" stroke-width="6" stroke-linecap="round"/>
</svg>
