<svg xmlns="http://www.w3.org/2000/svg" viewBox="0 0 256 256" width="256" height="256">
  <ellipse cx="128" cy="226" rx="54" ry="10" fill="#000" opacity="0.12"/>
  <defs>
    <clipPath id="hazmac_c">
      <path d="M92 104 L164 104 L158 192 Q156 206 142 206 L114 206 Q100 206 98 192 Z"/>
    </clipPath>
    <linearGradient id="hazmac_g" x1="0" y1="0" x2="0" y2="1">
      <stop offset="0" stop-color="#6b462b"/>
      <stop offset="1" stop-color="#5C3A23"/>
    </linearGradient>
  </defs>
  <!-- glass liquid layers -->
  <g clip-path="url(#hazmac_c)">
    <rect x="88" y="104" width="80" height="44" fill="#E8CFA9"/>
    <rect x="88" y="148" width="80" height="64" fill="url(#hazmac_g)"/>
    <!-- crema cap swell -->
    <ellipse cx="128" cy="148" rx="36" ry="14" fill="#E8CFA9"/>
    <!-- highlight stripe -->
    <path d="M102 116 L98 196" fill="none" stroke="#ffffff" stroke-width="6" stroke-linecap="round" opacity="0.35"/>
  </g>
  <!-- crema mound peeking above rim -->
  <path d="M98 104 Q108 91 128 91 Q148 91 158 104 Z" fill="#E8CFA9" stroke="#5a4a35" stroke-width="5" stroke-linejoin="round"/>
  <!-- hazelnut drizzle over crema -->
  <path d="M104 101 Q116 95 126 101 Q137 107 150 100" fill="none" stroke="#C68B4E" stroke-width="5" stroke-linecap="round"/>
  <path d="M110 96 Q120 100 132 96" fill="none" stroke="#C68B4E" stroke-width="4" stroke-linecap="round"/>
  <ellipse cx="117" cy="99" rx="5" ry="3" fill="#ffffff" opacity="0.6"/>
  <!-- glass outline -->
  <path d="M92 104 L164 104 L158 192 Q156 206 142 206 L114 206 Q100 206 98 192 Z" fill="none" stroke="#43291a" stroke-width="6" stroke-linejoin="round"/>
  <line x1="98" y1="104" x2="158" y2="104" stroke="#43291a" stroke-width="6" stroke-linecap="round"/>
</svg>
