<svg xmlns="http://www.w3.org/2000/svg" viewBox="0 0 256 256" width="256" height="256">
  <ellipse cx="128" cy="222" rx="72" ry="12" fill="#000" opacity="0.11"/>
  <defs>
    <radialGradient id="berry_a" cx="0.38" cy="0.32" r="0.8">
      <stop offset="0" stop-color="#a96fe0"/>
      <stop offset="1" stop-color="#6c3bb0"/>
    </radialGradient>
    <radialGradient id="berry_b" cx="0.38" cy="0.32" r="0.8">
      <stop offset="0" stop-color="#7b8fe8"/>
      <stop offset="1" stop-color="#4456b8"/>
    </radialGradient>
  </defs>
  <!-- berry bit 1 -->
  <path d="M70 96 q-6 -18 14 -22 q22 -4 24 14 q3 18 -16 22 q-18 4 -22 -14 Z" fill="url(#berry_a)" stroke="#4a2680" stroke-width="6" stroke-linejoin="round"/>
  <circle cx="80" cy="84" r="6" fill="#fff" opacity="0.55"/>
  <!-- berry bit 2 -->
  <path d="M150 78 q-4 -18 16 -20 q22 -2 22 16 q0 18 -20 20 q-16 2 -18 -16 Z" fill="url(#berry_b)" stroke="#2e3a86" stroke-width="6" stroke-linejoin="round"/>
  <circle cx="160" cy="68" r="6" fill="#fff" opacity="0.55"/>
  <!-- berry bit 3 -->
  <path d="M104 142 q-6 -20 16 -22 q22 -2 22 18 q0 18 -20 20 q-16 2 -18 -16 Z" fill="url(#berry_a)" stroke="#4a2680" stroke-width="6" stroke-linejoin="round"/>
  <circle cx="114" cy="132" r="6" fill="#fff" opacity="0.55"/>
  <!-- berry bit 4 -->
  <path d="M168 138 q-4 -16 14 -18 q20 -2 20 14 q0 16 -18 18 q-14 2 -16 -14 Z" fill="url(#berry_b)" stroke="#2e3a86" stroke-width="5" stroke-linejoin="round"/>
  <circle cx="177" cy="130" r="5" fill="#fff" opacity="0.5"/>
  <!-- berry bit 5 -->
  <path d="M60 158 q-4 -16 14 -18 q20 -2 20 14 q0 16 -18 18 q-14 2 -16 -14 Z" fill="url(#berry_a)" stroke="#4a2680" stroke-width="5" stroke-linejoin="round"/>
  <circle cx="69" cy="150" r="5" fill="#fff" opacity="0.5"/>
  <!-- berry bit 6 -->
  <path d="M120 178 q-4 -16 14 -18 q20 -2 20 14 q0 16 -18 18 q-14 2 -16 -14 Z" fill="url(#berry_b)" stroke="#2e3a86" stroke-width="5" stroke-linejoin="round"/>
  <circle cx="129" cy="170" r="5" fill="#fff" opacity="0.5"/>
</svg>
