<svg xmlns="http://www.w3.org/2000/svg" viewBox="0 0 256 256" width="256" height="256">
  <ellipse cx="128" cy="222" rx="74" ry="13" fill="#000" opacity="0.11"/>
  <defs>
    <linearGradient id="coconut_a" x1="0" y1="0" x2="0" y2="1">
      <stop offset="0" stop-color="#ffffff"/>
      <stop offset="1" stop-color="#e3dcc6"/>
    </linearGradient>
    <linearGradient id="coconut_b" x1="0" y1="0" x2="0" y2="1">
      <stop offset="0" stop-color="#f7f1e1"/>
      <stop offset="1" stop-color="#ddd4bd"/>
    </linearGradient>
  </defs>
  <!-- flake 1: curling ribbon -->
  <path d="M58 92 Q92 70 126 88 Q102 104 130 122 Q90 134 60 116 Q78 104 58 92 Z" fill="url(#coconut_a)" stroke="#9a9072" stroke-width="6" stroke-linejoin="round"/>
  <path d="M70 94 Q96 82 116 92" fill="none" stroke="#fff" stroke-width="4" stroke-linecap="round" opacity="0.8"/>
  <!-- flake 2 -->
  <path d="M138 70 Q176 60 198 84 Q172 96 196 114 Q160 122 140 102 Q156 86 138 70 Z" fill="url(#coconut_b)" stroke="#9a9072" stroke-width="6" stroke-linejoin="round"/>
  <path d="M150 78 Q174 72 188 86" fill="none" stroke="#fff" stroke-width="4" stroke-linecap="round" opacity="0.75"/>
  <!-- flake 3 -->
  <path d="M86 142 Q126 130 156 150 Q128 166 158 186 Q116 194 90 174 Q108 158 86 142 Z" fill="url(#coconut_a)" stroke="#9a9072" stroke-width="6" stroke-linejoin="round"/>
  <path d="M100 150 Q128 142 146 154" fill="none" stroke="#fff" stroke-width="4" stroke-linecap="round" opacity="0.8"/>
  <!-- flake 4 (small) -->
  <path d="M172 142 Q200 134 212 154 Q194 164 210 180 Q182 186 168 168 Q184 158 172 142 Z" fill="url(#coconut_b)" stroke="#9a9072" stroke-width="5" stroke-linejoin="round"/>
  <path d="M180 150 Q198 146 204 158" fill="none" stroke="#fff" stroke-width="3.5" stroke-linecap="round" opacity="0.75"/>
</svg>
