<svg xmlns="http://www.w3.org/2000/svg" viewBox="0 0 256 256" width="256" height="256">
  <ellipse cx="128" cy="222" rx="74" ry="13" fill="#000" opacity="0.11"/>
  <defs>
    <linearGradient id="mint_g" x1="0" y1="0" x2="0" y2="1">
      <stop offset="0" stop-color="#7fd9a3"/>
      <stop offset="1" stop-color="#46b073"/>
    </linearGradient>
    <linearGradient id="mint_c" x1="0" y1="0" x2="0" y2="1">
      <stop offset="0" stop-color="#5c3a24"/>
      <stop offset="1" stop-color="#3a2415"/>
    </linearGradient>
  </defs>
  <!-- green mint curl 1 -->
  <path d="M62 100 Q70 64 108 72 Q128 78 124 102 Q120 124 100 122 Q86 120 90 106 Q94 94 106 98" fill="none" stroke="url(#mint_g)" stroke-width="18" stroke-linecap="round"/>
  <path d="M70 96 Q78 78 102 82" fill="none" stroke="#bff0d2" stroke-width="5" stroke-linecap="round" opacity="0.7"/>
  <!-- chocolate curl 1 -->
  <path d="M150 70 Q190 64 196 100 Q200 126 174 130 Q154 132 156 112 Q158 98 172 102" fill="none" stroke="url(#mint_c)" stroke-width="18" stroke-linecap="round"/>
  <path d="M160 78 Q186 74 190 98" fill="none" stroke="#8a5e3c" stroke-width="5" stroke-linecap="round" opacity="0.6"/>
  <!-- green mint curl 2 -->
  <path d="M86 150 Q96 184 134 180 Q160 176 156 152 Q152 134 134 138 Q120 142 126 154" fill="none" stroke="url(#mint_g)" stroke-width="18" stroke-linecap="round"/>
  <path d="M96 158 Q104 176 128 174" fill="none" stroke="#bff0d2" stroke-width="5" stroke-linecap="round" opacity="0.7"/>
  <!-- chocolate curl 2 (small) -->
  <path d="M168 150 Q204 148 204 178 Q204 198 182 196 Q166 194 170 178" fill="none" stroke="url(#mint_c)" stroke-width="16" stroke-linecap="round"/>
  <path d="M176 158 Q196 158 197 178" fill="none" stroke="#8a5e3c" stroke-width="4.5" stroke-linecap="round" opacity="0.6"/>
</svg>
