<svg xmlns="http://www.w3.org/2000/svg" viewBox="0 0 256 256" width="256" height="256">
  <ellipse cx="128" cy="222" rx="76" ry="13" fill="#000" opacity="0.11"/>
  <defs>
    <linearGradient id="sprinkles_p" x1="0" y1="0" x2="0" y2="1">
      <stop offset="0" stop-color="#ff8fc0"/>
      <stop offset="1" stop-color="#ec5d9b"/>
    </linearGradient>
    <linearGradient id="sprinkles_y" x1="0" y1="0" x2="0" y2="1">
      <stop offset="0" stop-color="#ffe07a"/>
      <stop offset="1" stop-color="#f6c43c"/>
    </linearGradient>
    <linearGradient id="sprinkles_b" x1="0" y1="0" x2="0" y2="1">
      <stop offset="0" stop-color="#7fd0ff"/>
      <stop offset="1" stop-color="#48a8ef"/>
    </linearGradient>
    <linearGradient id="sprinkles_g" x1="0" y1="0" x2="0" y2="1">
      <stop offset="0" stop-color="#9be88a"/>
      <stop offset="1" stop-color="#5fc24f"/>
    </linearGradient>
  </defs>
  <!-- pink sprinkle -->
  <g transform="rotate(28 88 96)">
    <rect x="64" y="84" width="48" height="20" rx="10" fill="url(#sprinkles_p)" stroke="#b83b71" stroke-width="6"/>
    <rect x="72" y="89" width="22" height="5" rx="2.5" fill="#fff" opacity="0.7"/>
  </g>
  <!-- yellow sprinkle -->
  <g transform="rotate(-34 168 86)">
    <rect x="144" y="74" width="48" height="20" rx="10" fill="url(#sprinkles_y)" stroke="#c8922a" stroke-width="6"/>
    <rect x="152" y="79" width="22" height="5" rx="2.5" fill="#fff" opacity="0.7"/>
  </g>
  <!-- blue sprinkle -->
  <g transform="rotate(62 100 156)">
    <rect x="76" y="146" width="48" height="20" rx="10" fill="url(#sprinkles_b)" stroke="#2f7dc0" stroke-width="6"/>
    <rect x="84" y="151" width="22" height="5" rx="2.5" fill="#fff" opacity="0.7"/>
  </g>
  <!-- green sprinkle -->
  <g transform="rotate(-12 170 162)">
    <rect x="146" y="152" width="48" height="20" rx="10" fill="url(#sprinkles_g)" stroke="#3d9433" stroke-width="6"/>
    <rect x="154" y="157" width="22" height="5" rx="2.5" fill="#fff" opacity="0.7"/>
  </g>
  <!-- pink sprinkle 2 -->
  <g transform="rotate(76 128 196)">
    <rect x="106" y="186" width="44" height="19" rx="9.5" fill="url(#sprinkles_p)" stroke="#b83b71" stroke-width="6"/>
    <rect x="113" y="191" width="20" height="5" rx="2.5" fill="#fff" opacity="0.7"/>
  </g>
</svg>
