<svg xmlns="http://www.w3.org/2000/svg" viewBox="0 0 256 256" width="256" height="256">
  <ellipse cx="128" cy="212" rx="78" ry="13" fill="#000" opacity="0.12"/>
  <defs>
    <radialGradient id="bread-flatbread_top" cx="0.45" cy="0.4" r="0.75">
      <stop offset="0" stop-color="#f3e0b0"/>
      <stop offset="1" stop-color="#e2c98f"/>
    </radialGradient>
    <linearGradient id="bread-flatbread_edge" x1="0" y1="0" x2="0" y2="1">
      <stop offset="0" stop-color="#dcc086"/>
      <stop offset="1" stop-color="#c7a766"/>
    </linearGradient>
  </defs>
  <!-- thin flat oval, slight 3/4 -->
  <path d="M40 150 Q40 160 56 164 Q92 174 128 174 Q164 174 200 164 Q216 160 216 150 L216 144 L40 144 Z"
        fill="url(#bread-flatbread_edge)" stroke="#5a3a1f" stroke-width="6" stroke-linejoin="round"/>
  <ellipse cx="128" cy="142" rx="88" ry="42" fill="url(#bread-flatbread_top)" stroke="#5a3a1f" stroke-width="6"/>
  <!-- subtle inner rim -->
  <ellipse cx="128" cy="142" rx="76" ry="33" fill="none" stroke="#d8bb82" stroke-width="3" opacity="0.7"/>
  <!-- toasty char spots -->
  <g fill="#a9763f" opacity="0.85">
    <ellipse cx="98" cy="128" rx="8" ry="5" transform="rotate(-12 98 128)"/>
    <ellipse cx="150" cy="134" rx="9" ry="5.5" transform="rotate(16 150 134)"/>
    <ellipse cx="120" cy="152" rx="7" ry="4.5" transform="rotate(8 120 152)"/>
    <ellipse cx="172" cy="150" rx="6" ry="4"/>
    <ellipse cx="76" cy="146" rx="5.5" ry="4"/>
  </g>
  <!-- darker char centers -->
  <g fill="#7a4f28" opacity="0.7">
    <circle cx="99" cy="128" r="2.6"/><circle cx="151" cy="134" r="2.8"/><circle cx="121" cy="152" r="2.2"/>
  </g>
  <!-- light flour specks -->
  <g fill="#fff" opacity="0.5">
    <circle cx="132" cy="124" r="1.8"/><circle cx="160" cy="146" r="1.8"/><circle cx="106" cy="146" r="1.6"/>
  </g>
  <!-- highlight -->
  <path d="M70 128 Q100 118 134 122" stroke="#fff" stroke-width="5" stroke-linecap="round" fill="none" opacity="0.4"/>
</svg>
