<svg xmlns="http://www.w3.org/2000/svg" viewBox="0 0 256 256" width="256" height="256">
  <ellipse cx="128" cy="218" rx="68" ry="12" fill="#000" opacity="0.12"/>
  <defs>
    <linearGradient id="bread-three-cheese_crust" x1="0" y1="0" x2="0" y2="1">
      <stop offset="0" stop-color="#edc079"/>
      <stop offset="1" stop-color="#d9a253"/>
    </linearGradient>
    <linearGradient id="bread-three-cheese_crumb" x1="0" y1="0" x2="1" y2="1">
      <stop offset="0" stop-color="#f3d294"/>
      <stop offset="1" stop-color="#e6b86a"/>
    </linearGradient>
    <linearGradient id="bread-three-cheese_melt" x1="0" y1="0" x2="0" y2="1">
      <stop offset="0" stop-color="#fadd72"/>
      <stop offset="1" stop-color="#f4c84a"/>
    </linearGradient>
  </defs>
  <path d="M64 96 Q64 56 128 56 Q192 56 192 96 L192 192 Q192 202 182 202 L74 202 Q64 202 64 192 Z"
        fill="url(#bread-three-cheese_crust)" stroke="#4a2f1a" stroke-width="6" stroke-linejoin="round"/>
  <path d="M78 100 Q80 70 128 70 Q176 70 178 100 L178 184 Q178 190 172 190 L84 190 Q78 190 78 184 Z"
        fill="url(#bread-three-cheese_crumb)" stroke="#d9a253" stroke-width="4" stroke-linejoin="round"/>
  <!-- melted cheese pools/streaks on top -->
  <path d="M96 96 Q108 84 122 94 Q134 84 146 94 Q160 86 166 100 Q172 116 158 122 Q168 134 154 142
           Q160 156 144 158 Q132 168 120 158 Q104 164 100 150 Q88 146 92 132 Q82 120 92 110 Z"
        fill="url(#bread-three-cheese_melt)" stroke="#d99e1f" stroke-width="3.5" stroke-linejoin="round" opacity="0.95"/>
  <!-- cheese drip streaks -->
  <path d="M110 158 Q108 172 112 180" stroke="#f4c84a" stroke-width="6" stroke-linecap="round" fill="none"/>
  <path d="M148 156 Q150 170 146 178" stroke="#f4c84a" stroke-width="6" stroke-linecap="round" fill="none"/>
  <!-- glossy cheese flecks -->
  <circle cx="118" cy="112" r="3" fill="#fde8a0"/>
  <circle cx="142" cy="120" r="3" fill="#fde8a0"/>
  <circle cx="128" cy="138" r="3.4" fill="#fde8a0"/>
  <circle cx="106" cy="130" r="2.6" fill="#fde8a0"/>
  <!-- toasty bubbles -->
  <circle cx="132" cy="104" r="2.2" fill="#d99e1f"/>
  <circle cx="150" cy="138" r="2.2" fill="#d99e1f"/>
  <path d="M92 82 Q116 68 142 76" stroke="#fff" stroke-width="6" stroke-linecap="round" fill="none" opacity="0.3"/>
</svg>
