<svg xmlns="http://www.w3.org/2000/svg" viewBox="0 0 256 256" width="256" height="256">
  <ellipse cx="128" cy="218" rx="66" ry="12" fill="#000" opacity="0.12"/>
  <defs>
    <linearGradient id="bread-pumpernickel_crust" x1="0" y1="0" x2="0" y2="1">
      <stop offset="0" stop-color="#4a2f1c"/>
      <stop offset="1" stop-color="#35200f"/>
    </linearGradient>
    <linearGradient id="bread-pumpernickel_crumb" x1="0" y1="0" x2="1" y2="1">
      <stop offset="0" stop-color="#55371f"/>
      <stop offset="1" stop-color="#3f2713"/>
    </linearGradient>
  </defs>
  <!-- dense square slice, gently rounded top -->
  <path d="M66 92 Q66 60 128 60 Q190 60 190 92 L190 190 Q190 200 180 200 L76 200 Q66 200 66 190 Z"
        fill="url(#bread-pumpernickel_crust)" stroke="#241408" stroke-width="6" stroke-linejoin="round"/>
  <path d="M80 96 Q82 72 128 72 Q174 72 176 96 L176 184 Q176 190 170 190 L86 190 Q80 190 80 184 Z"
        fill="url(#bread-pumpernickel_crumb)" stroke="#2e1c0d" stroke-width="4" stroke-linejoin="round"/>
  <!-- fine dense crumb specks -->
  <g fill="#6e4a2c" opacity="0.85">
    <circle cx="100" cy="108" r="2"/><circle cx="124" cy="116" r="2.2"/><circle cx="148" cy="110" r="2"/>
    <circle cx="112" cy="130" r="2"/><circle cx="136" cy="134" r="2.2"/><circle cx="158" cy="128" r="2"/>
    <circle cx="98" cy="148" r="2"/><circle cx="122" cy="152" r="2"/><circle cx="146" cy="150" r="2.2"/>
    <circle cx="110" cy="168" r="2"/><circle cx="134" cy="170" r="2"/><circle cx="156" cy="166" r="2"/>
  </g>
  <!-- darker pits -->
  <g fill="#2a180b" opacity="0.7">
    <circle cx="116" cy="124" r="1.8"/><circle cx="142" cy="142" r="1.8"/>
    <circle cx="104" cy="160" r="1.8"/><circle cx="150" cy="120" r="1.8"/>
  </g>
  <path d="M94 84 Q116 72 140 78" stroke="#7a5634" stroke-width="5" stroke-linecap="round" fill="none" opacity="0.5"/>
</svg>
