<svg xmlns="http://www.w3.org/2000/svg" viewBox="0 0 256 256" width="256" height="256">
  <ellipse cx="128" cy="206" rx="82" ry="12" fill="#000" opacity="0.11"/>
  <defs>
    <linearGradient id="bunBottom_body" x1="0" y1="0" x2="0" y2="1">
      <stop offset="0" stop-color="#eab064"/>
      <stop offset="1" stop-color="#cf8d3a"/>
    </linearGradient>
    <linearGradient id="bunBottom_crumb" x1="0" y1="0" x2="0" y2="1">
      <stop offset="0" stop-color="#f6e0b4"/>
      <stop offset="1" stop-color="#ecca8e"/>
    </linearGradient>
    <clipPath id="bunBottom_crumbclip">
      <ellipse cx="128" cy="108" rx="90" ry="26"/>
    </clipPath>
  </defs>
  <!-- bun body / crust -->
  <path d="M36 108 Q36 88 128 88 Q220 88 220 108 L220 150 Q220 174 196 178 L60 178 Q36 174 36 150 Z" fill="url(#bunBottom_body)" stroke="#5a3418" stroke-width="6" stroke-linejoin="round"/>
  <!-- lighter cut crumb face on top -->
  <ellipse cx="128" cy="108" rx="90" ry="26" fill="url(#bunBottom_crumb)" stroke="#5a3418" stroke-width="6"/>
  <!-- crumb texture pores -->
  <g fill="#e0bd80" opacity="0.7" clip-path="url(#bunBottom_crumbclip)">
    <circle cx="92" cy="104" r="3.4"/>
    <circle cx="128" cy="112" r="4"/>
    <circle cx="164" cy="104" r="3.4"/>
    <circle cx="108" cy="118" r="2.8"/>
    <circle cx="150" cy="118" r="2.8"/>
    <circle cx="74" cy="110" r="2.6"/>
    <circle cx="184" cy="110" r="2.6"/>
  </g>
  <!-- soft inner-rim highlight -->
  <path d="M50 100 Q90 84 128 86 Q98 92 80 102 Q64 102 50 100 Z" fill="#fff" opacity="0.3" clip-path="url(#bunBottom_crumbclip)"/>
</svg>
