<svg xmlns="http://www.w3.org/2000/svg" viewBox="0 0 256 256" width="256" height="256">
  <ellipse cx="128" cy="216" rx="72" ry="12" fill="#000" opacity="0.12"/>
  <defs>
    <linearGradient id="cheese-asiago_body" x1="0" y1="0" x2="1" y2="1">
      <stop offset="0" stop-color="#f6ecc8"/>
      <stop offset="1" stop-color="#e6d6a8"/>
    </linearGradient>
  </defs>
  <!-- wedge front face thickness -->
  <path d="M48 150 L210 122 L214 152 L60 188 Z" fill="#cdba84" stroke="#4a2f1a" stroke-width="6" stroke-linejoin="round"/>
  <!-- wedge top -->
  <path d="M48 150 L196 70 L210 122 Z" fill="url(#cheese-asiago_body)" stroke="#4a2f1a" stroke-width="6" stroke-linejoin="round"/>
  <!-- rough rind along the back edge -->
  <path d="M194 72 Q200 78 196 84 Q204 88 200 96 Q208 100 203 108 Q210 114 208 122" fill="none" stroke="#b79a5e" stroke-width="9" stroke-linecap="round" stroke-linejoin="round"/>
  <!-- crumbly texture flecks -->
  <g fill="#cdba84">
    <circle cx="92" cy="138" r="3"/>
    <circle cx="120" cy="120" r="2.5"/>
    <circle cx="150" cy="104" r="3"/>
    <circle cx="110" cy="146" r="2.5"/>
    <circle cx="140" cy="128" r="2.5"/>
    <circle cx="168" cy="110" r="2.5"/>
  </g>
  <path d="M72 144 L160 96" stroke="#fff" stroke-width="5" stroke-linecap="round" opacity="0.4"/>
</svg>
