<svg xmlns="http://www.w3.org/2000/svg" viewBox="0 0 256 256" width="256" height="256">
  <ellipse cx="128" cy="218" rx="74" ry="12" fill="#000" opacity="0.12"/>
  <defs>
    <linearGradient id="cheese-pepperjack_body" x1="0" y1="0" x2="1" y2="1">
      <stop offset="0" stop-color="#f8efc6"/>
      <stop offset="1" stop-color="#e9d79e"/>
    </linearGradient>
  </defs>
  <path d="M58 66 L198 66 L198 178 L58 178 Z" fill="#d7c486" stroke="#4a2f1a" stroke-width="6" stroke-linejoin="round"/>
  <path d="M58 60 L198 60 L198 172 L58 172 Z" fill="url(#cheese-pepperjack_body)" stroke="#4a2f1a" stroke-width="6" stroke-linejoin="round"/>
  <path d="M76 78 L124 78" stroke="#fff" stroke-width="6" stroke-linecap="round" opacity="0.45"/>
  <!-- red pepper bits -->
  <g fill="#cf3320" stroke="#9c1f12" stroke-width="2">
    <circle cx="88" cy="96" r="5"/>
    <circle cx="150" cy="84" r="4.5"/>
    <circle cx="124" cy="130" r="5.5"/>
    <circle cx="176" cy="120" r="4"/>
    <circle cx="96" cy="150" r="4.5"/>
    <circle cx="168" cy="156" r="5"/>
  </g>
  <!-- green pepper bits -->
  <g fill="#4e9c3a" stroke="#347025" stroke-width="2">
    <circle cx="116" cy="92" r="4.5"/>
    <circle cx="158" cy="112" r="4"/>
    <circle cx="78" cy="128" r="4.5"/>
    <circle cx="142" cy="150" r="4.5"/>
    <circle cx="106" cy="116" r="3.5"/>
    <circle cx="184" cy="92" r="3.5"/>
  </g>
</svg>
