<svg xmlns="http://www.w3.org/2000/svg" viewBox="0 0 256 256" width="256" height="256">
  <defs>
    <linearGradient id="qrcode-tile" x1="0" y1="0" x2="0" y2="1">
      <stop offset="0" stop-color="#ffffff"/>
      <stop offset="1" stop-color="#eef0f4"/>
    </linearGradient>
  </defs>
  <ellipse cx="128" cy="214" rx="66" ry="11" fill="#000" opacity="0.10"/>
  <rect x="46" y="46" width="164" height="164" rx="22"
        fill="url(#qrcode-tile)" stroke="#2f3138" stroke-width="6"/>
  <g fill="#2f3138">
    <rect x="68" y="68" width="40" height="40" rx="6"/>
    <rect x="148" y="68" width="40" height="40" rx="6"/>
    <rect x="68" y="148" width="40" height="40" rx="6"/>
  </g>
  <g fill="#ffffff">
    <rect x="80" y="80" width="16" height="16" rx="3"/>
    <rect x="160" y="80" width="16" height="16" rx="3"/>
    <rect x="80" y="160" width="16" height="16" rx="3"/>
  </g>
  <g fill="#2f3138">
    <rect x="126" y="68" width="14" height="14" rx="3"/>
    <rect x="126" y="94" width="14" height="14" rx="3"/>
    <rect x="148" y="130" width="14" height="14" rx="3"/>
    <rect x="174" y="130" width="14" height="14" rx="3"/>
    <rect x="126" y="148" width="14" height="14" rx="3"/>
    <rect x="148" y="170" width="14" height="14" rx="3"/>
    <rect x="174" y="170" width="14" height="14" rx="3"/>
    <rect x="126" y="174" width="14" height="14" rx="3"/>
  </g>
</svg>
