<svg xmlns="http://www.w3.org/2000/svg" viewBox="0 0 256 256" width="256" height="256">
  <defs>
    <linearGradient id="creamcheese_foam_grad" x1="0" y1="0" x2="0" y2="1">
      <stop offset="0" stop-color="#FDF8EF"/>
      <stop offset="1" stop-color="#ECDCC4"/>
    </linearGradient>
  </defs>
  <ellipse cx="128" cy="226" rx="60" ry="11" fill="#000" opacity="0.12"/>
  <!-- thick, dense cream-cheese cap: wide, glossy, billowing -->
  <path d="M58 170
           Q48 142 76 134
           Q72 110 102 108
           Q108 86 132 90
           Q150 80 162 100
           Q190 100 186 128
           Q210 138 198 164
           Q204 184 180 190
           Q150 200 120 198
           Q86 200 70 190
           Q56 184 58 170 Z"
        fill="url(#creamcheese_foam_grad)" stroke="#3c2a1a" stroke-width="6" stroke-linejoin="round"/>
  <!-- billowing lobe separations -->
  <path d="M84 164 Q96 150 110 162" fill="none" stroke="#3c2a1a" stroke-width="5" stroke-linecap="round" opacity="0.5"/>
  <path d="M124 168 Q138 152 154 166" fill="none" stroke="#3c2a1a" stroke-width="5" stroke-linecap="round" opacity="0.5"/>
  <path d="M102 132 Q116 118 132 130" fill="none" stroke="#3c2a1a" stroke-width="5" stroke-linecap="round" opacity="0.5"/>
  <path d="M148 124 Q160 114 172 124" fill="none" stroke="#3c2a1a" stroke-width="5" stroke-linecap="round" opacity="0.5"/>
  <!-- thick drip down the side (cream-cheese richness) -->
  <path d="M186 162 Q192 178 184 192 Q176 200 172 188 Q170 176 178 164 Z" fill="#E2CFAE" opacity="0.5"/>
  <!-- highlight -->
  <path d="M86 124 Q78 144 88 162" fill="none" stroke="#fff" stroke-width="7" stroke-linecap="round" opacity="0.7"/>
  <ellipse cx="106" cy="120" rx="7" ry="9" fill="#fff" opacity="0.6"/>
  <ellipse cx="150" cy="150" rx="5" ry="6" fill="#fff" opacity="0.45"/>
</svg>
