<svg xmlns="http://www.w3.org/2000/svg" viewBox="0 0 256 256" width="256" height="256">
  <ellipse cx="128" cy="226" rx="54" ry="10" fill="#000" opacity="0.12"/>
  <defs>
    <clipPath id="irishcreamlatte_cup">
      <path d="M74 92 L174 92 L166 192 Q163 210 144 210 L104 210 Q85 210 82 192 Z"/>
    </clipPath>
    <linearGradient id="irishcreamlatte_foam" x1="0" y1="0" x2="0" y2="1">
      <stop offset="0" stop-color="#FFFDF6"/>
      <stop offset="1" stop-color="#FBF6EA"/>
    </linearGradient>
  </defs>
  <!-- handle -->
  <path d="M174 112 Q204 114 202 144 Q200 170 172 166" fill="none" stroke="#43291a" stroke-width="6" stroke-linecap="round"/>
  <!-- layered liquid: foam / milk / irish-cream / espresso -->
  <g clip-path="url(#irishcreamlatte_cup)">
    <rect x="74" y="92" width="100" height="30" fill="url(#irishcreamlatte_foam)"/>
    <rect x="74" y="122" width="100" height="40" fill="#F4ECDD"/>
    <rect x="74" y="162" width="100" height="28" fill="#C7A06B"/>
    <rect x="74" y="190" width="100" height="26" fill="#5C3A23"/>
    <rect x="150" y="122" width="24" height="94" fill="#000" opacity="0.06"/>
    <path d="M90 100 L92 200" fill="none" stroke="#FFFFFF" stroke-width="7" stroke-linecap="round" opacity="0.5"/>
  </g>
  <!-- foam cap rim -->
  <path d="M74 92 L174 92" fill="none" stroke="#43291a" stroke-width="6" stroke-linecap="round"/>
  <!-- foam swirl detail (cream tint) -->
  <path d="M102 107 Q124 99 146 107" fill="none" stroke="#C7A06B" stroke-width="4" stroke-linecap="round"/>
  <path d="M110 114 Q124 110 138 114" fill="none" stroke="#E7D9BF" stroke-width="3.5" stroke-linecap="round"/>
  <!-- cup outline -->
  <path d="M74 92 L174 92 L166 192 Q163 210 144 210 L104 210 Q85 210 82 192 Z" fill="none" stroke="#43291a" stroke-width="6" stroke-linejoin="round"/>
</svg>
