<svg xmlns="http://www.w3.org/2000/svg" viewBox="0 0 256 256" width="256" height="256">
  <defs>
    <clipPath id="cream-licorice-clip">
      <path d="M128 36
        C150 36 164 54 158 72
        C176 70 190 86 182 104
        C200 104 210 122 196 138
        C210 142 214 160 198 172
        C206 188 192 206 168 208
        L88 208
        C64 206 50 188 58 172
        C42 160 46 142 60 138
        C46 122 56 104 74 104
        C66 86 80 70 98 72
        C92 54 106 36 128 36 Z"/>
    </clipPath>
  </defs>
  <ellipse cx="128" cy="224" rx="58" ry="11" fill="#000" opacity="0.12"/>
  <g clip-path="url(#cream-licorice-clip)">
    <rect x="20" y="30" width="216" height="200" fill="#f5f1ea"/>
    <!-- black & white diagonal swirl bands -->
    <g fill="#2e2a2a">
      <path d="M20 30 L70 30 L20 90 Z"/>
      <path d="M110 30 L160 30 L60 130 L20 130 L20 110 Z"/>
      <path d="M200 30 L236 30 L236 70 L96 210 L46 210 Z"/>
      <path d="M236 110 L236 160 L150 246 L100 246 Z"/>
      <path d="M236 200 L236 246 L200 246 Z"/>
    </g>
  </g>
  <path d="M128 36
    C150 36 164 54 158 72
    C176 70 190 86 182 104
    C200 104 210 122 196 138
    C210 142 214 160 198 172
    C206 188 192 206 168 208
    L88 208
    C64 206 50 188 58 172
    C42 160 46 142 60 138
    C46 122 56 104 74 104
    C66 86 80 70 98 72
    C92 54 106 36 128 36 Z"
    fill="none" stroke="#3c2a1a" stroke-width="6" stroke-linejoin="round"/>
  <path d="M120 50 C126 44 134 44 138 52" fill="none" stroke="#ffffff" stroke-width="6" stroke-linecap="round"/>
  <ellipse cx="86" cy="118" rx="8" ry="12" fill="#ffffff" opacity="0.5"/>
</svg>
