<svg xmlns="http://www.w3.org/2000/svg" viewBox="0 0 256 256" width="256" height="256">
  <ellipse cx="128" cy="222" rx="70" ry="12" fill="#000" opacity="0.11"/>
  <defs>
    <radialGradient id="banana-slices_r" cx="0.5" cy="0.42" r="0.62">
      <stop offset="0" stop-color="#fcf2c4"/>
      <stop offset="0.7" stop-color="#f2de8a"/>
      <stop offset="1" stop-color="#e2c45f"/>
    </radialGradient>
  </defs>
  <!-- one slice generator: outer ring, rind, three seed dots -->
  <!-- back slice -->
  <g transform="translate(150 92) rotate(14)">
    <circle r="40" fill="url(#banana-slices_r)" stroke="#caa23f" stroke-width="6"/>
    <circle r="32" fill="#f7e9a8" stroke="#d9bd55" stroke-width="3"/>
    <circle cx="-9" cy="-6" r="4.5" fill="#caa23f"/>
    <circle cx="11" cy="-3" r="4.5" fill="#caa23f"/>
    <circle cx="0" cy="13" r="4.5" fill="#caa23f"/>
    <path d="M-18 -22 A28 28 0 0 1 14 -24" fill="none" stroke="#fff" stroke-width="5" stroke-linecap="round" opacity="0.55"/>
  </g>
  <!-- left slice -->
  <g transform="translate(92 134) rotate(-10)">
    <circle r="42" fill="url(#banana-slices_r)" stroke="#caa23f" stroke-width="6"/>
    <circle r="34" fill="#f7e9a8" stroke="#d9bd55" stroke-width="3"/>
    <circle cx="-10" cy="-7" r="5" fill="#caa23f"/>
    <circle cx="12" cy="-4" r="5" fill="#caa23f"/>
    <circle cx="1" cy="14" r="5" fill="#caa23f"/>
    <path d="M-20 -24 A30 30 0 0 1 15 -26" fill="none" stroke="#fff" stroke-width="5" stroke-linecap="round" opacity="0.55"/>
  </g>
  <!-- front slice -->
  <g transform="translate(150 158) rotate(8)">
    <circle r="38" fill="url(#banana-slices_r)" stroke="#caa23f" stroke-width="6"/>
    <circle r="30" fill="#f7e9a8" stroke="#d9bd55" stroke-width="3"/>
    <circle cx="-9" cy="-6" r="4.5" fill="#caa23f"/>
    <circle cx="10" cy="-3" r="4.5" fill="#caa23f"/>
    <circle cx="0" cy="12" r="4.5" fill="#caa23f"/>
    <path d="M-17 -21 A27 27 0 0 1 13 -23" fill="none" stroke="#fff" stroke-width="5" stroke-linecap="round" opacity="0.55"/>
  </g>
</svg>
