<svg xmlns="http://www.w3.org/2000/svg" viewBox="0 0 256 256" width="256" height="256">
  <ellipse cx="128" cy="222" rx="66" ry="12" fill="#000" opacity="0.11"/>
  <defs>
    <radialGradient id="cookie_b" cx="0.4" cy="0.36" r="0.72">
      <stop offset="0" stop-color="#e9c178"/>
      <stop offset="0.65" stop-color="#d8a85a"/>
      <stop offset="1" stop-color="#b9863c"/>
    </radialGradient>
    <radialGradient id="cookie_chip" cx="0.35" cy="0.3" r="0.8">
      <stop offset="0" stop-color="#6b4326"/>
      <stop offset="1" stop-color="#3c2412"/>
    </radialGradient>
  </defs>
  <!-- bumpy cookie body -->
  <path d="M128 60
    Q160 56 178 78
    Q204 86 198 116
    Q210 142 188 162
    Q182 190 152 192
    Q128 206 102 192
    Q72 190 66 162
    Q46 142 58 116
    Q52 86 78 78
    Q96 56 128 60 Z"
    fill="url(#cookie_b)" stroke="#8c5e2a" stroke-width="6" stroke-linejoin="round"/>
  <!-- chips -->
  <circle cx="110" cy="98" r="11" fill="url(#cookie_chip)" stroke="#2c1909" stroke-width="3"/>
  <circle cx="158" cy="108" r="9" fill="url(#cookie_chip)" stroke="#2c1909" stroke-width="3"/>
  <circle cx="132" cy="138" r="12" fill="url(#cookie_chip)" stroke="#2c1909" stroke-width="3"/>
  <circle cx="92" cy="142" r="8" fill="url(#cookie_chip)" stroke="#2c1909" stroke-width="3"/>
  <circle cx="166" cy="156" r="10" fill="url(#cookie_chip)" stroke="#2c1909" stroke-width="3"/>
  <circle cx="118" cy="172" r="7" fill="url(#cookie_chip)" stroke="#2c1909" stroke-width="3"/>
  <!-- chip highlights -->
  <circle cx="106" cy="93" r="3.2" fill="#fff" opacity="0.45"/>
  <circle cx="128" cy="133" r="3.4" fill="#fff" opacity="0.45"/>
  <!-- crumb dots -->
  <circle cx="146" cy="84" r="2.6" fill="#a86f30"/>
  <circle cx="84" cy="118" r="2.6" fill="#a86f30"/>
  <circle cx="150" cy="178" r="2.6" fill="#a86f30"/>
  <!-- soft highlight -->
  <path d="M90 80 Q108 68 132 70" fill="none" stroke="#fff" stroke-width="5" stroke-linecap="round" opacity="0.4"/>
</svg>
