<svg xmlns="http://www.w3.org/2000/svg" viewBox="0 0 256 256" width="256" height="256">
  <defs>
    <linearGradient id="chefhat-puff" x1="0" y1="0" x2="0" y2="1">
      <stop offset="0" stop-color="#ffffff"/>
      <stop offset="1" stop-color="#eef0f3"/>
    </linearGradient>
  </defs>
  <ellipse cx="128" cy="222" rx="56" ry="10" fill="#000" opacity="0.10"/>
  <!-- puffy top -->
  <path d="M86 120
           a34 34 0 0 1 -8 -66
           a30 30 0 0 1 50 -20
           a30 30 0 0 1 50 20
           a34 34 0 0 1 -8 66
           z"
        fill="url(#chefhat-puff)" stroke="#2f3138" stroke-width="6" stroke-linejoin="round"/>
  <!-- band -->
  <rect x="84" y="120" width="88" height="60" rx="10" fill="#ffffff" stroke="#2f3138" stroke-width="6"/>
  <!-- band pleats -->
  <line x1="110" y1="128" x2="110" y2="172" stroke="#2f3138" stroke-width="5" stroke-linecap="round" opacity="0.8"/>
  <line x1="134" y1="128" x2="134" y2="172" stroke="#2f3138" stroke-width="5" stroke-linecap="round" opacity="0.8"/>
  <line x1="158" y1="128" x2="158" y2="172" stroke="#2f3138" stroke-width="5" stroke-linecap="round" opacity="0.8"/>
  <!-- highlight on puff -->
  <ellipse cx="104" cy="70" rx="14" ry="18" fill="#fff" opacity="0.6"/>
</svg>
