<svg xmlns="http://www.w3.org/2000/svg" viewBox="0 0 256 256" width="256" height="256">
  <!-- burger-full : stacked, groups id'd for animation -->
  <ellipse cx="128" cy="226" rx="92" ry="15" fill="#000" opacity="0.13"/>
  <defs>
    <linearGradient id="bf_bot" x1="0" y1="0" x2="0" y2="1"><stop offset="0" stop-color="#E9AC5E"/><stop offset="1" stop-color="#CC8A3C"/></linearGradient>
    <linearGradient id="bf_top" x1="0" y1="0" x2="0" y2="1"><stop offset="0" stop-color="#F2BD6C"/><stop offset="1" stop-color="#DB9A44"/></linearGradient>
  </defs>

  <g id="bun-bottom">
    <path d="M52 196 Q52 188 62 188 L194 188 Q204 188 204 196 L204 210 Q204 220 190 220 L66 220 Q52 220 52 210 Z"
          fill="url(#bf_bot)" stroke="#5a3418" stroke-width="6" stroke-linejoin="round"/>
    <path d="M58 192 Q128 200 198 192" fill="none" stroke="#F4C988" stroke-width="5" stroke-linecap="round" opacity="0.7"/>
  </g>

  <g id="patty">
    <path d="M52 176 Q48 160 70 158 Q90 150 110 158 Q128 152 146 158 Q166 150 186 158 Q208 160 204 176
             Q208 190 186 192 L70 192 Q48 190 52 176 Z"
          fill="#6E4026" stroke="#3c2113" stroke-width="6" stroke-linejoin="round"/>
    <circle cx="92" cy="170" r="3.5" fill="#4a2916"/><circle cx="134" cy="166" r="3.5" fill="#4a2916"/><circle cx="170" cy="172" r="3.5" fill="#4a2916"/>
  </g>

  <g id="cheese">
    <path d="M56 150 L200 150 L200 166 L184 188 L168 168 L146 192 L128 170 L108 190 L88 168 L70 186 L56 166 Z"
          fill="#F8BE3C" stroke="#C8841A" stroke-width="6" stroke-linejoin="round"/>
  </g>

  <g id="tomato">
    <ellipse cx="98" cy="150" rx="40" ry="14" fill="#E8473B" stroke="#B22E26" stroke-width="5"/>
    <ellipse cx="160" cy="150" rx="40" ry="14" fill="#E8473B" stroke="#B22E26" stroke-width="5"/>
  </g>

  <g id="lettuce">
    <path d="M40 140 q12 -22 24 0 q12 -22 24 0 q12 -22 24 0 q12 -22 24 0 q12 -22 24 0 q12 -22 24 0 q12 -22 24 0 q12 -22 24 0
             l0 8 q-88 16 -192 0 z"
          fill="#7FB23E" stroke="#4f7d22" stroke-width="6" stroke-linejoin="round"/>
  </g>

  <g id="bun-top">
    <path d="M50 132 Q50 56 128 50 Q206 56 206 132 Q206 140 196 140 L60 140 Q50 140 50 132 Z"
          fill="url(#bf_top)" stroke="#5a3418" stroke-width="6" stroke-linejoin="round"/>
    <path d="M78 84 Q104 64 140 70" fill="none" stroke="#FBE0AE" stroke-width="9" stroke-linecap="round" opacity="0.7"/>
    <g fill="#FCEFD0" stroke="#C79A55" stroke-width="2">
      <ellipse cx="108" cy="92" rx="6" ry="3.4" transform="rotate(-20 108 92)"/>
      <ellipse cx="140" cy="86" rx="6" ry="3.4" transform="rotate(15 140 86)"/>
      <ellipse cx="124" cy="108" rx="6" ry="3.4" transform="rotate(-8 124 108)"/>
      <ellipse cx="92" cy="112" rx="6" ry="3.4" transform="rotate(25 92 112)"/>
      <ellipse cx="160" cy="110" rx="6" ry="3.4" transform="rotate(-25 160 110)"/>
      <ellipse cx="128" cy="74" rx="6" ry="3.4" transform="rotate(5 128 74)"/>
    </g>
  </g>
</svg>
