<svg xmlns="http://www.w3.org/2000/svg" viewBox="0 0 256 256" width="256" height="256">
  <!-- lettuce : frilly leaf layer -->
  <ellipse cx="128" cy="158" rx="84" ry="11" fill="#000" opacity="0.10"/>
  <path d="M40 140
           q12 -22 24 0 q12 -22 24 0 q12 -22 24 0 q12 -22 24 0 q12 -22 24 0 q12 -22 24 0 q12 -22 24 0 q12 -22 24 0
           l0 6 q-88 16 -192 0 z"
        fill="#7FB23E" stroke="#4f7d22" stroke-width="6" stroke-linejoin="round"/>
  <path d="M64 138 q12 -14 24 -2 M112 138 q12 -14 24 -2 M160 138 q12 -14 24 -2"
        fill="none" stroke="#A6D45F" stroke-width="5" stroke-linecap="round" opacity="0.85"/>
</svg>
