<svg xmlns="http://www.w3.org/2000/svg" viewBox="0 0 256 256" width="256" height="256">
  <defs>
    <linearGradient id="caramelbrittle_g" x1="0" y1="0" x2="1" y2="1">
      <stop offset="0%" stop-color="#D58A45"/>
      <stop offset="100%" stop-color="#B96F2E"/>
    </linearGradient>
  </defs>
  <ellipse cx="128" cy="226" rx="58" ry="11" fill="#000" opacity="0.12"/>
  <!-- angular amber brittle shards -->
  <g stroke="#43291a" stroke-width="5" stroke-linejoin="round">
    <path d="M76 64 L112 74 L96 102 L70 92 Z" fill="url(#caramelbrittle_g)"/>
    <path d="M148 56 L186 70 L164 96 L142 80 Z" fill="url(#caramelbrittle_g)"/>
    <path d="M104 116 L142 122 L126 150 L100 142 Z" fill="url(#caramelbrittle_g)"/>
    <path d="M58 134 L92 146 L74 170 L52 158 Z" fill="url(#caramelbrittle_g)"/>
    <path d="M166 122 L200 134 L182 160 L160 146 Z" fill="url(#caramelbrittle_g)"/>
    <path d="M118 172 L154 180 L138 206 L114 196 Z" fill="url(#caramelbrittle_g)"/>
    <path d="M70 184 L100 192 L86 212 L66 202 Z" fill="url(#caramelbrittle_g)"/>
  </g>
  <!-- glossy facet highlights -->
  <g stroke="#F2C078" stroke-width="4" stroke-linecap="round" fill="none" opacity="0.75">
    <path d="M82 72 L104 78"/>
    <path d="M154 64 L178 74"/>
    <path d="M110 122 L134 126"/>
    <path d="M64 142 L86 150"/>
    <path d="M172 130 L192 138"/>
    <path d="M124 178 L146 184"/>
    <path d="M76 190 L94 196"/>
  </g>
</svg>
