<svg xmlns="http://www.w3.org/2000/svg" viewBox="0 0 256 256" width="256" height="256">
  <defs>
    <linearGradient id="carameldrizzle_g" x1="0" y1="0" x2="1" y2="1">
      <stop offset="0%" stop-color="#EBB066"/>
      <stop offset="100%" stop-color="#D9913B"/>
    </linearGradient>
  </defs>
  <ellipse cx="128" cy="228" rx="62" ry="11" fill="#000" opacity="0.12"/>
  <!-- glossy golden caramel zigzag drizzle -->
  <path d="M58 70
           L132 96
           L70 122
           L150 150
           L82 178
           L172 200"
        fill="none" stroke="#43291a" stroke-width="20" stroke-linecap="round" stroke-linejoin="round"/>
  <path d="M58 70
           L132 96
           L70 122
           L150 150
           L82 178
           L172 200"
        fill="none" stroke="url(#carameldrizzle_g)" stroke-width="13" stroke-linecap="round" stroke-linejoin="round"/>
  <!-- glossy sheen along the ribbon -->
  <path d="M62 68
           L128 91
           L66 119
           L146 148"
        fill="none" stroke="#FBE0AC" stroke-width="4" stroke-linecap="round" stroke-linejoin="round" opacity="0.75"/>
  <!-- a couple of stray drops -->
  <g stroke="#43291a" stroke-width="5" stroke-linejoin="round">
    <path d="M196 96 q9 4 6 14 q-4 9 -13 6 q-8 -4 -4 -13 q3 -7 11 -7 Z" fill="url(#carameldrizzle_g)"/>
    <path d="M44 150 q8 3 5 12 q-4 8 -12 5 q-7 -4 -3 -12 q3 -6 10 -5 Z" fill="url(#carameldrizzle_g)"/>
  </g>
  <g fill="#FBE0AC" opacity="0.7">
    <ellipse cx="198" cy="100" rx="3" ry="2"/>
    <ellipse cx="46" cy="154" rx="3" ry="2"/>
  </g>
</svg>
