<svg xmlns="http://www.w3.org/2000/svg" viewBox="0 0 256 256" width="256" height="256">
  <defs>
    <linearGradient id="chocshavings_g" x1="0" y1="0" x2="1" y2="1">
      <stop offset="0%" stop-color="#6A4530"/>
      <stop offset="100%" stop-color="#4A2F1F"/>
    </linearGradient>
  </defs>
  <ellipse cx="128" cy="226" rx="58" ry="11" fill="#000" opacity="0.12"/>
  <!-- dark chocolate curls / shavings -->
  <g stroke="#2e1c12" stroke-width="5" stroke-linejoin="round" stroke-linecap="round">
    <path d="M70 76 q-8 -26 22 -30 q26 -2 24 18 q-22 -8 -28 14 q-4 16 -18 -2 Z" fill="url(#chocshavings_g)"/>
    <path d="M150 58 q4 -24 32 -20 q22 4 14 22 q-18 -14 -30 6 q-8 16 -16 -8 Z" fill="url(#chocshavings_g)"/>
    <path d="M98 124 q-10 -24 20 -30 q26 -4 24 16 q-22 -8 -28 14 q-4 18 -16 0 Z" fill="url(#chocshavings_g)"/>
    <path d="M56 152 q-6 -22 20 -24 q22 -2 18 14 q-18 -6 -24 12 q-4 14 -14 -2 Z" fill="url(#chocshavings_g)"/>
    <path d="M168 134 q2 -22 28 -18 q20 4 12 20 q-16 -12 -26 6 q-6 14 -14 -8 Z" fill="url(#chocshavings_g)"/>
    <path d="M120 180 q-8 -22 20 -26 q24 -2 20 16 q-20 -8 -26 12 q-4 16 -14 -2 Z" fill="url(#chocshavings_g)"/>
    <path d="M70 192 q-6 -18 18 -20 q20 -2 16 12 q-16 -6 -22 10 q-3 14 -12 -2 Z" fill="url(#chocshavings_g)"/>
  </g>
  <!-- curl sheen highlights -->
  <g stroke="#9A6B4A" stroke-width="3.5" stroke-linecap="round" fill="none" opacity="0.7">
    <path d="M82 54 q14 0 22 12"/>
    <path d="M162 48 q14 2 20 14"/>
    <path d="M110 102 q14 0 20 12"/>
    <path d="M68 134 q12 0 16 10"/>
    <path d="M180 116 q12 2 16 12"/>
    <path d="M132 158 q12 0 18 12"/>
  </g>
</svg>
