<svg xmlns="http://www.w3.org/2000/svg" viewBox="0 0 256 256" width="256" height="256">
  <defs>
    <linearGradient id="hazelnutdrizzle_g" x1="0" y1="0" x2="1" y2="1">
      <stop offset="0%" stop-color="#D7A36A"/>
      <stop offset="100%" stop-color="#C68B4E"/>
    </linearGradient>
  </defs>
  <ellipse cx="128" cy="228" rx="62" ry="11" fill="#000" opacity="0.12"/>
  <!-- glossy hazelnut zigzag drizzle (mirrored pattern, distinct from caramel) -->
  <path d="M198 70
           L122 94
           L188 120
           L104 148
           L176 176
           L84 200"
        fill="none" stroke="#43291a" stroke-width="20" stroke-linecap="round" stroke-linejoin="round"/>
  <path d="M198 70
           L122 94
           L188 120
           L104 148
           L176 176
           L84 200"
        fill="none" stroke="url(#hazelnutdrizzle_g)" stroke-width="13" stroke-linecap="round" stroke-linejoin="round"/>
  <!-- glossy sheen along the ribbon -->
  <path d="M194 68
           L126 90
           L184 117
           L110 146"
        fill="none" stroke="#F2D3AC" stroke-width="4" stroke-linecap="round" stroke-linejoin="round" opacity="0.7"/>
  <!-- a couple of stray drops -->
  <g stroke="#43291a" stroke-width="5" stroke-linejoin="round">
    <path d="M58 96 q9 4 6 14 q-4 9 -13 6 q-8 -4 -4 -13 q3 -7 11 -7 Z" fill="url(#hazelnutdrizzle_g)"/>
    <path d="M210 150 q8 3 5 12 q-4 8 -12 5 q-7 -4 -3 -12 q3 -6 10 -5 Z" fill="url(#hazelnutdrizzle_g)"/>
  </g>
  <g fill="#F2D3AC" opacity="0.65">
    <ellipse cx="60" cy="100" rx="3" ry="2"/>
    <ellipse cx="212" cy="154" rx="3" ry="2"/>
  </g>
</svg>
