<svg xmlns="http://www.w3.org/2000/svg" viewBox="0 0 256 256" width="256" height="256">
  <defs>
    <radialGradient id="strawberrycrumble_g" cx="40%" cy="34%" r="72%">
      <stop offset="0%" stop-color="#EE8597"/>
      <stop offset="100%" stop-color="#E16A7E"/>
    </radialGradient>
  </defs>
  <ellipse cx="128" cy="226" rx="58" ry="11" fill="#000" opacity="0.12"/>
  <!-- freeze-dried strawberry crumble chunks -->
  <g stroke="#43291a" stroke-width="5" stroke-linejoin="round">
    <path d="M80 70 q10 -12 22 -6 q12 4 10 18 q-2 14 -16 16 q-16 2 -20 -12 q-2 -10 4 -16 Z" fill="url(#strawberrycrumble_g)"/>
    <path d="M150 56 q12 -8 22 2 q8 10 -2 20 q-12 10 -24 0 q-8 -12 4 -22 Z" fill="url(#strawberrycrumble_g)"/>
    <path d="M106 118 q14 -10 24 2 q8 12 -4 22 q-16 8 -24 -6 q-6 -12 4 -18 Z" fill="url(#strawberrycrumble_g)"/>
    <path d="M62 140 q10 -10 20 0 q8 10 -2 18 q-12 8 -20 -2 q-6 -10 2 -16 Z" fill="url(#strawberrycrumble_g)"/>
    <path d="M170 124 q12 -8 21 2 q7 11 -4 19 q-14 8 -21 -4 q-5 -11 4 -17 Z" fill="url(#strawberrycrumble_g)"/>
    <path d="M124 176 q14 -8 23 3 q7 13 -6 21 q-16 6 -22 -8 q-3 -12 5 -16 Z" fill="url(#strawberrycrumble_g)"/>
    <path d="M76 188 q10 -7 18 1 q6 10 -4 17 q-12 6 -18 -5 q-3 -9 4 -13 Z" fill="url(#strawberrycrumble_g)"/>
  </g>
  <!-- tiny seed speckles + highlights -->
  <g fill="#FBE3C8" opacity="0.85">
    <circle cx="90" cy="70" r="2.4"/>
    <circle cx="98" cy="82" r="2.2"/>
    <circle cx="160" cy="64" r="2.4"/>
    <circle cx="116" cy="128" r="2.4"/>
    <circle cx="106" cy="136" r="2"/>
    <circle cx="72" cy="148" r="2.2"/>
    <circle cx="180" cy="132" r="2.2"/>
    <circle cx="132" cy="184" r="2.4"/>
    <circle cx="84" cy="194" r="2"/>
  </g>
  <g fill="#F6AEBA" opacity="0.6">
    <ellipse cx="88" cy="68" rx="5" ry="3"/>
    <ellipse cx="156" cy="62" rx="5" ry="3"/>
    <ellipse cx="113" cy="124" rx="5" ry="3"/>
  </g>
</svg>
