<svg xmlns="http://www.w3.org/2000/svg" viewBox="0 0 256 256" width="256" height="256">
  <defs>
    <linearGradient id="coconutflakes_g" x1="0" y1="0" x2="1" y2="1">
      <stop offset="0%" stop-color="#E6CBA1"/>
      <stop offset="100%" stop-color="#D9B98C"/>
    </linearGradient>
  </defs>
  <ellipse cx="128" cy="226" rx="58" ry="11" fill="#000" opacity="0.12"/>
  <!-- thin curled coconut flake ribbons -->
  <g stroke="#5a4a35" stroke-width="5" stroke-linejoin="round" stroke-linecap="round">
    <path d="M72 78 q24 -22 50 -8 q-20 6 -28 22 q-18 8 -22 -14 Z" fill="url(#coconutflakes_g)"/>
    <path d="M150 60 q26 -8 44 12 q-22 0 -34 16 q-16 -2 -10 -28 Z" fill="url(#coconutflakes_g)"/>
    <path d="M96 120 q28 -14 50 4 q-22 4 -30 22 q-18 4 -20 -26 Z" fill="url(#coconutflakes_g)"/>
    <path d="M58 146 q20 -16 40 -6 q-16 6 -22 22 q-16 4 -18 -16 Z" fill="url(#coconutflakes_g)"/>
    <path d="M168 130 q22 -10 38 8 q-20 2 -28 18 q-14 0 -10 -26 Z" fill="url(#coconutflakes_g)"/>
    <path d="M114 178 q26 -12 46 6 q-22 2 -28 20 q-16 2 -18 -26 Z" fill="url(#coconutflakes_g)"/>
    <path d="M70 192 q18 -12 34 -4 q-14 6 -18 20 q-14 2 -16 -16 Z" fill="url(#coconutflakes_g)"/>
  </g>
  <!-- toasted golden edge marks -->
  <g stroke="#B98A52" stroke-width="4" stroke-linecap="round" fill="none" opacity="0.7">
    <path d="M86 66 q14 4 24 18"/>
    <path d="M168 70 q12 6 18 18"/>
    <path d="M110 126 q14 4 22 18"/>
    <path d="M70 152 q12 4 18 16"/>
    <path d="M182 138 q10 4 14 16"/>
    <path d="M128 184 q14 4 20 18"/>
  </g>
</svg>
