<svg xmlns="http://www.w3.org/2000/svg" viewBox="0 0 256 256" width="256" height="256">
  <!-- takeaway coffee cup with lid, sleeve, rising steam (id=steam) -->
  <ellipse cx="128" cy="232" rx="58" ry="10" fill="#000" opacity="0.12"/>
  <defs>
    <linearGradient id="ccup_body" x1="0" y1="0" x2="1" y2="0">
      <stop offset="0" stop-color="#F4EFE6"/><stop offset="0.5" stop-color="#FFFFFF"/><stop offset="1" stop-color="#E4DBCB"/>
    </linearGradient>
  </defs>
  <g id="steam" fill="none" stroke="#C9B79A" stroke-width="6" stroke-linecap="round" opacity="0.7">
    <path d="M108 56 q-10 -14 0 -28 q10 -14 0 -28"/>
    <path d="M148 56 q10 -14 0 -28 q-10 -14 0 -28"/>
  </g>
  <path d="M86 96 L170 96 L158 224 Q156 232 146 232 L110 232 Q100 232 98 224 Z"
        fill="url(#ccup_body)" stroke="#5a4a35" stroke-width="6" stroke-linejoin="round"/>
  <path d="M80 96 L176 96 L172 80 Q172 72 162 72 L94 72 Q84 72 84 80 Z"
        fill="#7A5A3A" stroke="#4a3520" stroke-width="6" stroke-linejoin="round"/>
  <ellipse cx="128" cy="70" rx="48" ry="9" fill="#8A6843" stroke="#4a3520" stroke-width="6"/>
  <rect x="118" y="60" width="20" height="10" rx="3" fill="#5a3f26"/>
  <path d="M94 150 L162 150 L156 188 L100 188 Z" fill="#C98A4B" stroke="#8a5a2c" stroke-width="6" stroke-linejoin="round"/>
  <circle cx="128" cy="169" r="11" fill="#F4EFE6" stroke="#8a5a2c" stroke-width="4"/>
  <path d="M124 169 l3 4 6 -8" fill="none" stroke="#8a5a2c" stroke-width="3" stroke-linecap="round"/>
</svg>
