<svg xmlns="http://www.w3.org/2000/svg" viewBox="0 0 256 256" width="256" height="256">
  <ellipse cx="128" cy="226" rx="74" ry="12" fill="#000" opacity="0.12"/>
  <defs>
    <linearGradient id="cannoli-battenberg_cream" x1="0" y1="0" x2="0" y2="1">
      <stop offset="0" stop-color="#fff8ec"/>
      <stop offset="1" stop-color="#f3e3c4"/>
    </linearGradient>
    <clipPath id="cannoli-battenberg_clip">
      <path d="M58 168 Q52 110 100 86 L176 60 Q210 50 214 78 Q218 104 188 116 L112 144 Q70 158 76 198 Q80 222 56 218 Q40 214 42 188 Q44 174 58 168 Z"/>
    </clipPath>
  </defs>
  <!-- base shell (pink) -->
  <path d="M58 168 Q52 110 100 86 L176 60 Q210 50 214 78 Q218 104 188 116 L112 144 Q70 158 76 198 Q80 222 56 218 Q40 214 42 188 Q44 174 58 168 Z"
        fill="#f4a9c4" stroke="#5a3a1f" stroke-width="6" stroke-linejoin="round"/>
  <!-- pink-and-yellow checkerboard, clipped to the shell -->
  <g clip-path="url(#cannoli-battenberg_clip)">
    <!-- yellow squares filling alternating cells of a rotated grid -->
    <g transform="rotate(-22 128 110)">
      <rect x="20" y="20"  width="26" height="26" fill="#f6dd6e"/>
      <rect x="72" y="20"  width="26" height="26" fill="#f6dd6e"/>
      <rect x="124" y="20" width="26" height="26" fill="#f6dd6e"/>
      <rect x="176" y="20" width="26" height="26" fill="#f6dd6e"/>
      <rect x="46" y="46"  width="26" height="26" fill="#f6dd6e"/>
      <rect x="98" y="46"  width="26" height="26" fill="#f6dd6e"/>
      <rect x="150" y="46" width="26" height="26" fill="#f6dd6e"/>
      <rect x="202" y="46" width="26" height="26" fill="#f6dd6e"/>
      <rect x="20" y="72"  width="26" height="26" fill="#f6dd6e"/>
      <rect x="72" y="72"  width="26" height="26" fill="#f6dd6e"/>
      <rect x="124" y="72" width="26" height="26" fill="#f6dd6e"/>
      <rect x="176" y="72" width="26" height="26" fill="#f6dd6e"/>
      <rect x="46" y="98"  width="26" height="26" fill="#f6dd6e"/>
      <rect x="98" y="98"  width="26" height="26" fill="#f6dd6e"/>
      <rect x="150" y="98" width="26" height="26" fill="#f6dd6e"/>
      <rect x="202" y="98" width="26" height="26" fill="#f6dd6e"/>
    </g>
    <!-- soft grid seams -->
    <path d="M-10 60 L260 -50 M0 100 L270 -10 M10 140 L280 30 M20 180 L290 70 M30 220 L300 110"
          stroke="#d98aa6" stroke-width="2.5" opacity="0.6"/>
  </g>
  <ellipse cx="198" cy="92" rx="22" ry="26" transform="rotate(-20 198 92)" fill="#e08aa8" stroke="#5a3a1f" stroke-width="6"/>
  <ellipse cx="198" cy="92" rx="13" ry="17" transform="rotate(-20 198 92)" fill="url(#cannoli-battenberg_cream)" stroke="#5a3a1f" stroke-width="4"/>
  <ellipse cx="56" cy="196" rx="24" ry="28" transform="rotate(-20 56 196)" fill="#e08aa8" stroke="#5a3a1f" stroke-width="6"/>
  <ellipse cx="56" cy="196" rx="15" ry="19" transform="rotate(-20 56 196)" fill="url(#cannoli-battenberg_cream)" stroke="#5a3a1f" stroke-width="4"/>
  <circle cx="50" cy="190" r="4" fill="#fff" opacity="0.7"/>
  <path d="M104 96 Q150 76 188 70" stroke="#fff" stroke-width="6" stroke-linecap="round" fill="none" opacity="0.4"/>
</svg>
