<svg xmlns="http://www.w3.org/2000/svg" viewBox="0 0 256 256" width="256" height="256">
  <ellipse cx="128" cy="226" rx="74" ry="12" fill="#000" opacity="0.12"/>
  <defs>
    <linearGradient id="cannoli-pizzelle_body" x1="0" y1="0" x2="0" y2="1">
      <stop offset="0" stop-color="#f0cc88"/>
      <stop offset=".5" stop-color="#e0b56a"/>
      <stop offset="1" stop-color="#c8954a"/>
    </linearGradient>
    <linearGradient id="cannoli-pizzelle_cream" x1="0" y1="0" x2="0" y2="1">
      <stop offset="0" stop-color="#fff8ec"/>
      <stop offset="1" stop-color="#f3e3c4"/>
    </linearGradient>
    <clipPath id="cannoli-pizzelle_clip">
      <path d="M58 168 Q52 110 100 86 L176 60 Q210 50 214 78 Q218 104 188 116 L112 144 Q70 158 76 198 Q80 222 56 218 Q40 214 42 188 Q44 174 58 168 Z"/>
    </clipPath>
  </defs>
  <path d="M58 168 Q52 110 100 86 L176 60 Q210 50 214 78 Q218 104 188 116 L112 144 Q70 158 76 198 Q80 222 56 218 Q40 214 42 188 Q44 174 58 168 Z"
        fill="url(#cannoli-pizzelle_body)" stroke="#5a3a1f" stroke-width="6" stroke-linejoin="round"/>
  <!-- faint embossed waffle/grid pattern, clipped to the shell -->
  <g clip-path="url(#cannoli-pizzelle_clip)" stroke="#b3853c" stroke-width="3" opacity="0.5">
    <path d="M60 70 L130 160"/>
    <path d="M84 62 L154 152"/>
    <path d="M108 56 L178 146"/>
    <path d="M132 50 L202 140"/>
    <path d="M156 46 L226 136"/>
    <path d="M30 120 L120 50"/>
    <path d="M40 150 L150 64"/>
    <path d="M52 180 L180 78"/>
    <path d="M64 210 L210 96"/>
  </g>
  <ellipse cx="198" cy="92" rx="22" ry="26" transform="rotate(-20 198 92)" fill="#b3853c" stroke="#5a3a1f" stroke-width="6"/>
  <ellipse cx="198" cy="92" rx="13" ry="17" transform="rotate(-20 198 92)" fill="url(#cannoli-pizzelle_cream)" stroke="#5a3a1f" stroke-width="4"/>
  <ellipse cx="56" cy="196" rx="24" ry="28" transform="rotate(-20 56 196)" fill="#b3853c" stroke="#5a3a1f" stroke-width="6"/>
  <ellipse cx="56" cy="196" rx="15" ry="19" transform="rotate(-20 56 196)" fill="url(#cannoli-pizzelle_cream)" stroke="#5a3a1f" stroke-width="4"/>
  <circle cx="50" cy="190" r="4" fill="#fff" opacity="0.7"/>
  <path d="M104 96 Q150 76 188 70" stroke="#fbe6c0" stroke-width="6" stroke-linecap="round" fill="none" opacity="0.5"/>
</svg>
