<svg xmlns="http://www.w3.org/2000/svg" viewBox="0 0 256 256" width="256" height="256">
  <ellipse cx="128" cy="226" rx="74" ry="12" fill="#000" opacity="0.12"/>
  <defs>
    <linearGradient id="cannoli-caramel-apple_body" x1="0" y1="0" x2="0" y2="1">
      <stop offset="0" stop-color="#e0593f"/>
      <stop offset=".5" stop-color="#b83a2a"/>
      <stop offset="1" stop-color="#8a2418"/>
    </linearGradient>
    <linearGradient id="cannoli-caramel-apple_cream" x1="0" y1="0" x2="0" y2="1">
      <stop offset="0" stop-color="#fff8ec"/>
      <stop offset="1" stop-color="#f3e3c4"/>
    </linearGradient>
  </defs>
  <path d="M58 168 Q52 110 100 86 L176 60 Q210 50 214 78 Q218 104 188 116 L112 144 Q70 158 76 198 Q80 222 56 218 Q40 214 42 188 Q44 174 58 168 Z"
        fill="url(#cannoli-caramel-apple_body)" stroke="#5a2a1f" stroke-width="6" stroke-linejoin="round"/>
  <ellipse cx="198" cy="92" rx="22" ry="26" transform="rotate(-20 198 92)" fill="#7a2014" stroke="#5a2a1f" stroke-width="6"/>
  <ellipse cx="198" cy="92" rx="13" ry="17" transform="rotate(-20 198 92)" fill="url(#cannoli-caramel-apple_cream)" stroke="#5a2a1f" stroke-width="4"/>
  <ellipse cx="56" cy="196" rx="24" ry="28" transform="rotate(-20 56 196)" fill="#7a2014" stroke="#5a2a1f" stroke-width="6"/>
  <ellipse cx="56" cy="196" rx="15" ry="19" transform="rotate(-20 56 196)" fill="url(#cannoli-caramel-apple_cream)" stroke="#5a2a1f" stroke-width="4"/>
  <circle cx="50" cy="190" r="4" fill="#fff" opacity="0.7"/>
  <!-- drizzled caramel running down the glossy shell -->
  <path d="M120 70 Q116 100 132 132 Q138 146 130 160" fill="none" stroke="#e8a23c" stroke-width="5" stroke-linecap="round" opacity="0.85"/>
  <path d="M158 64 Q156 92 168 112" fill="none" stroke="#e8a23c" stroke-width="5" stroke-linecap="round" opacity="0.85"/>
  <path d="M92 92 Q90 116 100 138" fill="none" stroke="#e8a23c" stroke-width="5" stroke-linecap="round" opacity="0.85"/>
  <!-- big glossy candy-apple highlight -->
  <path d="M108 94 Q150 74 186 70" stroke="#ffd9c8" stroke-width="8" stroke-linecap="round" fill="none" opacity="0.55"/>
  <ellipse cx="138" cy="100" rx="9" ry="5" transform="rotate(-22 138 100)" fill="#fff" opacity="0.45"/>
</svg>
