<svg xmlns="http://www.w3.org/2000/svg" viewBox="0 0 256 256" width="256" height="256">
  <ellipse cx="128" cy="226" rx="74" ry="12" fill="#000" opacity="0.12"/>
  <defs>
    <linearGradient id="cannoli-classic_body" x1="0" y1="0" x2="0" y2="1">
      <stop offset="0" stop-color="#eebb74"/>
      <stop offset=".5" stop-color="#d39a52"/>
      <stop offset="1" stop-color="#b3782f"/>
    </linearGradient>
    <linearGradient id="cannoli-classic_cream" x1="0" y1="0" x2="0" y2="1">
      <stop offset="0" stop-color="#fff8ec"/>
      <stop offset="1" stop-color="#f3e3c4"/>
    </linearGradient>
  </defs>
  <path d="M58 168 Q52 110 100 86 L176 60 Q210 50 214 78 Q218 104 188 116 L112 144 Q70 158 76 198 Q80 222 56 218 Q40 214 42 188 Q44 174 58 168 Z"
        fill="url(#cannoli-classic_body)" stroke="#5a3a1f" stroke-width="6" stroke-linejoin="round"/>
  <ellipse cx="198" cy="92" rx="22" ry="26" transform="rotate(-20 198 92)" fill="#a06c2c" stroke="#5a3a1f" stroke-width="6"/>
  <ellipse cx="198" cy="92" rx="13" ry="17" transform="rotate(-20 198 92)" fill="url(#cannoli-classic_cream)" stroke="#5a3a1f" stroke-width="4"/>
  <ellipse cx="56" cy="196" rx="24" ry="28" transform="rotate(-20 56 196)" fill="#a06c2c" stroke="#5a3a1f" stroke-width="6"/>
  <ellipse cx="56" cy="196" rx="15" ry="19" transform="rotate(-20 56 196)" fill="url(#cannoli-classic_cream)" stroke="#5a3a1f" stroke-width="4"/>
  <circle cx="50" cy="190" r="4" fill="#fff" opacity="0.7"/>
  <!-- ridge lines on the rolled shell -->
  <path d="M96 96 L120 140" stroke="#9c6a2c" stroke-width="4" stroke-linecap="round" opacity="0.6"/>
  <path d="M124 84 L150 130" stroke="#9c6a2c" stroke-width="4" stroke-linecap="round" opacity="0.6"/>
  <path d="M152 73 L178 118" stroke="#9c6a2c" stroke-width="4" stroke-linecap="round" opacity="0.6"/>
  <!-- fried-blister highlight dots -->
  <circle cx="118" cy="112" r="3" fill="#f6d49a" opacity="0.8"/>
  <circle cx="146" cy="100" r="2.6" fill="#f6d49a" opacity="0.8"/>
  <circle cx="170" cy="88" r="2.4" fill="#f6d49a" opacity="0.8"/>
  <path d="M104 96 Q150 76 188 70" stroke="#fbe6c0" stroke-width="6" stroke-linecap="round" fill="none" opacity="0.5"/>
  <!-- shaved pistachio specks on cream -->
  <circle cx="200" cy="88" r="2.4" fill="#7fae4b"/>
  <circle cx="60" cy="200" r="2.6" fill="#7fae4b"/>
  <circle cx="52" cy="201" r="2" fill="#7fae4b"/>
</svg>
