<svg xmlns="http://www.w3.org/2000/svg" viewBox="0 0 256 256" width="256" height="256">
  <ellipse cx="128" cy="222" rx="72" ry="13" fill="#000" opacity="0.11"/>
  <defs>
    <radialGradient id="blueberries_g" cx="0.38" cy="0.32" r="0.75">
      <stop offset="0" stop-color="#5a60a8"/>
      <stop offset="0.6" stop-color="#3a3f7a"/>
      <stop offset="1" stop-color="#2a2e5c"/>
    </radialGradient>
  </defs>
  <!-- back berries -->
  <circle cx="92" cy="120" r="34" fill="url(#blueberries_g)" stroke="#23264a" stroke-width="6"/>
  <circle cx="168" cy="118" r="33" fill="url(#blueberries_g)" stroke="#23264a" stroke-width="6"/>
  <!-- front berries -->
  <circle cx="128" cy="150" r="40" fill="url(#blueberries_g)" stroke="#23264a" stroke-width="6"/>
  <circle cx="78" cy="172" r="30" fill="url(#blueberries_g)" stroke="#23264a" stroke-width="6"/>
  <circle cx="182" cy="170" r="31" fill="url(#blueberries_g)" stroke="#23264a" stroke-width="6"/>
  <!-- calyx star crowns -->
  <g fill="#23264a">
    <path d="M128 150 l5 -9 l5 9 l9 1 l-7 6 l3 9 l-10 -5 l-10 5 l3 -9 l-7 -6 z" opacity="0.55"/>
    <path d="M92 120 l4 -7 l4 7 l7 1 l-6 5 l2 7 l-7 -4 l-7 4 l2 -7 l-6 -5 z" opacity="0.5"/>
    <path d="M168 118 l4 -7 l4 7 l7 1 l-6 5 l2 7 l-7 -4 l-7 4 l2 -7 l-6 -5 z" opacity="0.5"/>
  </g>
  <!-- highlights -->
  <ellipse cx="115" cy="135" rx="11" ry="8" fill="#fff" opacity="0.4"/>
  <ellipse cx="80" cy="107" rx="8" ry="6" fill="#fff" opacity="0.35"/>
  <ellipse cx="156" cy="105" rx="8" ry="6" fill="#fff" opacity="0.35"/>
  <ellipse cx="68" cy="162" rx="7" ry="5" fill="#fff" opacity="0.3"/>
  <ellipse cx="171" cy="160" rx="7" ry="5" fill="#fff" opacity="0.3"/>
</svg>
