<svg xmlns="http://www.w3.org/2000/svg" viewBox="0 0 256 256" width="256" height="256">
  <ellipse cx="128" cy="226" rx="56" ry="11" fill="#000" opacity="0.12"/>
  <defs>
    <linearGradient id="cream-creameo_body" x1="0" y1="0" x2="1" y2="0">
      <stop offset="0" stop-color="#d8d2c8"/>
      <stop offset=".5" stop-color="#efebe3"/>
      <stop offset="1" stop-color="#d2ccc1"/>
    </linearGradient>
    <linearGradient id="cream-creameo_base" x1="0" y1="0" x2="0" y2="1">
      <stop offset="0" stop-color="#ece8e0"/>
      <stop offset="1" stop-color="#cfc9bd"/>
    </linearGradient>
    <clipPath id="cream-creameo_swirlclip">
      <path d="M82 196
               Q70 182 88 176 Q72 162 92 152 Q78 138 100 130 Q88 116 110 110
               Q102 96 122 92 Q116 78 128 56
               Q140 78 134 92 Q154 96 146 110 Q168 116 156 130
               Q178 138 164 152 Q184 162 168 176 Q186 182 174 196
               Q150 206 128 206 Q106 206 82 196 Z"/>
    </clipPath>
  </defs>
  <path d="M72 200 Q72 178 128 178 Q184 178 184 200 Q184 222 128 222 Q72 222 72 200 Z" fill="url(#cream-creameo_base)" stroke="#43291a" stroke-width="6" stroke-linejoin="round"/>
  <path d="M82 196
           Q70 182 88 176 Q72 162 92 152 Q78 138 100 130 Q88 116 110 110
           Q102 96 122 92 Q116 78 128 56
           Q140 78 134 92 Q154 96 146 110 Q168 116 156 130
           Q178 138 164 152 Q184 162 168 176 Q186 182 174 196
           Q150 206 128 206 Q106 206 82 196 Z"
        fill="url(#cream-creameo_body)" stroke="#43291a" stroke-width="6" stroke-linejoin="round"/>
  <!-- dark cookie specks -->
  <g clip-path="url(#cream-creameo_swirlclip)" fill="#3a2a2a">
    <circle cx="112" cy="98" r="3.4"/>
    <circle cx="140" cy="106" r="2.8"/>
    <circle cx="126" cy="120" r="3.6"/>
    <circle cx="106" cy="132" r="3"/>
    <circle cx="150" cy="134" r="3.4"/>
    <circle cx="120" cy="148" r="2.8"/>
    <circle cx="138" cy="158" r="3.6"/>
    <circle cx="98" cy="160" r="3"/>
    <circle cx="162" cy="160" r="2.8"/>
    <circle cx="110" cy="176" r="3.4"/>
    <circle cx="148" cy="180" r="3"/>
    <circle cx="128" cy="186" r="3.6"/>
    <circle cx="92" cy="188" r="2.6"/>
    <circle cx="166" cy="184" r="3"/>
  </g>
  <path d="M100 188 Q98 150 116 108 Q124 90 128 70" stroke="#ffffff" stroke-width="6" fill="none" stroke-linecap="round" opacity="0.7"/>
</svg>
