<svg xmlns="http://www.w3.org/2000/svg" viewBox="0 0 256 256" width="256" height="256">
  <defs>
    <radialGradient id="margherita-crust" cx="50%" cy="42%" r="58%">
      <stop offset="0%" stop-color="#F0D199"/>
      <stop offset="100%" stop-color="#E8C27A"/>
    </radialGradient>
    <clipPath id="margherita-clip">
      <circle cx="128" cy="130" r="84"/>
    </clipPath>
  </defs>
  <!-- contact shadow -->
  <ellipse cx="128" cy="222" rx="80" ry="14" fill="#43291a" opacity="0.18"/>
  <!-- crust -->
  <circle cx="128" cy="130" r="92" fill="url(#margherita-crust)" stroke="#9a5f25" stroke-width="6"/>
  <circle cx="128" cy="130" r="84" fill="none" stroke="#C99A52" stroke-width="4" stroke-dasharray="2 0" opacity="0.6"/>
  <!-- tomato sauce -->
  <circle cx="128" cy="130" r="80" fill="#C0392B" stroke="#9a5f25" stroke-width="4"/>
  <g clip-path="url(#margherita-clip)">
    <!-- sauce texture -->
    <path d="M70 90 q20 8 40 -2 t44 6" fill="none" stroke="#A93226" stroke-width="5" stroke-linecap="round" opacity="0.7"/>
    <path d="M64 168 q24 -6 50 4 t60 -4" fill="none" stroke="#A93226" stroke-width="5" stroke-linecap="round" opacity="0.7"/>
    <!-- mozzarella blobs -->
    <ellipse cx="98" cy="92" rx="22" ry="17" fill="#F4ECDD" stroke="#9a5f25" stroke-width="5"/>
    <ellipse cx="92" cy="88" rx="8" ry="5" fill="#FFFFFF" opacity="0.6"/>
    <ellipse cx="166" cy="108" rx="20" ry="16" fill="#F4ECDD" stroke="#9a5f25" stroke-width="5"/>
    <ellipse cx="160" cy="103" rx="7" ry="4" fill="#FFFFFF" opacity="0.6"/>
    <ellipse cx="104" cy="168" rx="21" ry="16" fill="#F4ECDD" stroke="#9a5f25" stroke-width="5"/>
    <ellipse cx="98" cy="164" rx="7" ry="4" fill="#FFFFFF" opacity="0.6"/>
    <ellipse cx="164" cy="166" rx="18" ry="14" fill="#F4ECDD" stroke="#9a5f25" stroke-width="5"/>
    <ellipse cx="132" cy="132" rx="17" ry="13" fill="#F4ECDD" stroke="#9a5f25" stroke-width="5"/>
  </g>
  <!-- fresh basil leaves -->
  <g stroke="#3a6b22" stroke-width="4" stroke-linejoin="round">
    <path d="M128 80 q-16 8 -2 26 q16 -8 2 -26 Z" fill="#4f8a2e"/>
    <path d="M76 134 q-2 18 18 18 q2 -18 -18 -18 Z" fill="#4f8a2e"/>
    <path d="M186 144 q-16 6 -4 24 q15 -8 4 -24 Z" fill="#4f8a2e"/>
    <path d="M120 188 q14 8 26 -4 q-14 -8 -26 4 Z" fill="#4f8a2e"/>
  </g>
  <g stroke="#3a6b22" stroke-width="2.5" stroke-linecap="round">
    <path d="M127 86 l2 16"/>
    <path d="M82 138 l14 8"/>
    <path d="M183 150 l8 14"/>
    <path d="M124 185 l16 -2"/>
  </g>
  <!-- top highlight -->
  <path d="M70 88 q26 -34 70 -30" fill="none" stroke="#FFFFFF" stroke-width="6" stroke-linecap="round" opacity="0.28"/>
</svg>
