<svg xmlns="http://www.w3.org/2000/svg" viewBox="0 0 256 256" width="256" height="256">
  <defs>
    <radialGradient id="peri-peri-chicken-crust" cx="50%" cy="42%" r="58%">
      <stop offset="0%" stop-color="#F0D199"/>
      <stop offset="100%" stop-color="#E8C27A"/>
    </radialGradient>
    <clipPath id="peri-peri-chicken-clip">
      <circle cx="128" cy="130" r="80"/>
    </clipPath>
  </defs>
  <ellipse cx="128" cy="222" rx="80" ry="14" fill="#43291a" opacity="0.18"/>
  <circle cx="128" cy="130" r="92" fill="url(#peri-peri-chicken-crust)" stroke="#9a5f25" stroke-width="6"/>
  <circle cx="128" cy="130" r="80" fill="#C0392B" stroke="#9a5f25" stroke-width="4"/>
  <g clip-path="url(#peri-peri-chicken-clip)">
    <!-- spicy sauce swirls -->
    <path d="M66 100 q26 10 50 -2 t60 6" fill="none" stroke="#A93226" stroke-width="5" stroke-linecap="round" opacity="0.7"/>
    <path d="M64 162 q28 -8 54 4 t58 -6" fill="none" stroke="#A93226" stroke-width="5" stroke-linecap="round" opacity="0.7"/>
    <!-- mozzarella patches -->
    <ellipse cx="100" cy="100" rx="19" ry="14" fill="#F4ECDD" stroke="#9a5f25" stroke-width="4"/>
    <ellipse cx="158" cy="160" rx="18" ry="13" fill="#F4ECDD" stroke="#9a5f25" stroke-width="4"/>
    <ellipse cx="132" cy="132" rx="15" ry="11" fill="#F4ECDD" stroke="#9a5f25" stroke-width="4"/>
    <!-- browned peri chicken chunks -->
    <g fill="#b5683a" stroke="#7d4322" stroke-width="5" stroke-linejoin="round">
      <path d="M150 84 q20 2 18 22 q-18 6 -26 -8 q0 -12 8 -14 Z"/>
      <path d="M82 140 q18 -6 26 8 q-6 18 -24 12 q-8 -14 -2 -20 Z"/>
      <path d="M140 156 q20 -4 24 14 q-14 14 -28 2 q-4 -12 4 -16 Z"/>
      <path d="M104 90 q16 -6 22 8 q-6 14 -22 8 q-6 -10 0 -16 Z"/>
    </g>
    <!-- chicken char marks -->
    <g stroke="#7d4322" stroke-width="3" stroke-linecap="round" opacity="0.8">
      <path d="M152 92 l12 10"/>
      <path d="M90 146 l12 8"/>
      <path d="M146 162 l12 8"/>
    </g>
    <!-- red pepper strips -->
    <path d="M74 118 q20 -4 36 4" fill="none" stroke="#D6453A" stroke-width="8" stroke-linecap="round"/>
    <path d="M118 168 q22 0 38 -10" fill="none" stroke="#D6453A" stroke-width="8" stroke-linecap="round"/>
    <!-- green pepper strips -->
    <path d="M124 78 q-8 18 4 34" fill="none" stroke="#4f8a2e" stroke-width="8" stroke-linecap="round"/>
    <path d="M170 124 q-8 16 0 34" fill="none" stroke="#4f8a2e" stroke-width="8" stroke-linecap="round"/>
  </g>
  <path d="M70 90 q26 -34 70 -30" fill="none" stroke="#FFFFFF" stroke-width="6" stroke-linecap="round" opacity="0.26"/>
</svg>
