<svg xmlns="http://www.w3.org/2000/svg" viewBox="0 0 256 256" width="256" height="256">
  <defs>
    <radialGradient id="veggie-crust" cx="50%" cy="42%" r="58%">
      <stop offset="0%" stop-color="#F0D199"/>
      <stop offset="100%" stop-color="#E8C27A"/>
    </radialGradient>
    <clipPath id="veggie-clip">
      <circle cx="128" cy="130" r="80"/>
    </clipPath>
  </defs>
  <ellipse cx="128" cy="222" rx="80" ry="14" fill="#43291a" opacity="0.18"/>
  <circle cx="128" cy="130" r="92" fill="url(#veggie-crust)" stroke="#9a5f25" stroke-width="6"/>
  <circle cx="128" cy="130" r="80" fill="#C0392B" stroke="#9a5f25" stroke-width="4"/>
  <g clip-path="url(#veggie-clip)">
    <!-- mozzarella base patches -->
    <ellipse cx="100" cy="96" rx="20" ry="15" fill="#F4ECDD" stroke="#9a5f25" stroke-width="4"/>
    <ellipse cx="160" cy="100" rx="18" ry="14" fill="#F4ECDD" stroke="#9a5f25" stroke-width="4"/>
    <ellipse cx="120" cy="160" rx="20" ry="15" fill="#F4ECDD" stroke="#9a5f25" stroke-width="4"/>
    <ellipse cx="166" cy="158" rx="16" ry="12" fill="#F4ECDD" stroke="#9a5f25" stroke-width="4"/>
    <!-- red bell pepper strips -->
    <path d="M74 118 q22 -6 42 4" fill="none" stroke="#D6453A" stroke-width="9" stroke-linecap="round"/>
    <path d="M150 78 q14 14 8 34" fill="none" stroke="#D6453A" stroke-width="9" stroke-linecap="round"/>
    <!-- green bell pepper strips -->
    <path d="M86 150 q18 14 40 8" fill="none" stroke="#4f8a2e" stroke-width="9" stroke-linecap="round"/>
    <path d="M170 120 q-12 18 -2 38" fill="none" stroke="#4f8a2e" stroke-width="9" stroke-linecap="round"/>
    <!-- yellow bell pepper strips -->
    <path d="M118 76 q-6 22 8 40" fill="none" stroke="#E8B83A" stroke-width="9" stroke-linecap="round"/>
    <path d="M132 176 q24 -4 40 -22" fill="none" stroke="#E8B83A" stroke-width="9" stroke-linecap="round"/>
    <!-- onion slivers -->
    <path d="M92 132 q16 -8 30 -2" fill="none" stroke="#E7D7E8" stroke-width="4" stroke-linecap="round"/>
    <path d="M138 116 q14 6 24 -2" fill="none" stroke="#E7D7E8" stroke-width="4" stroke-linecap="round"/>
    <path d="M104 178 q14 -6 26 0" fill="none" stroke="#E7D7E8" stroke-width="4" stroke-linecap="round"/>
    <!-- sweetcorn -->
    <g fill="#f0c020" stroke="#C9971A" stroke-width="2">
      <ellipse cx="118" cy="120" rx="5" ry="4"/>
      <ellipse cx="146" cy="146" rx="5" ry="4"/>
      <ellipse cx="90" cy="156" rx="5" ry="4"/>
      <ellipse cx="158" cy="132" rx="5" ry="4"/>
      <ellipse cx="132" cy="96" rx="5" ry="4"/>
      <ellipse cx="106" cy="142" rx="5" ry="4"/>
    </g>
    <!-- mushroom slices -->
    <path d="M82 86 q12 -10 22 0 q-4 12 -22 8 Z" fill="#EAD9BE" stroke="#9a5f25" stroke-width="4" stroke-linejoin="round"/>
    <rect x="89" y="92" width="6" height="6" rx="2" fill="#C9A877"/>
    <path d="M150 166 q12 -10 22 0 q-4 12 -22 8 Z" fill="#EAD9BE" stroke="#9a5f25" stroke-width="4" stroke-linejoin="round"/>
    <rect x="157" y="172" width="6" height="6" rx="2" fill="#C9A877"/>
    <!-- olives -->
    <g fill="#2e2233" stroke="#1b1320" stroke-width="2">
      <circle cx="128" cy="138" r="7"/>
      <circle cx="128" cy="138" r="2.5" fill="#C0392B"/>
      <circle cx="100" cy="118" r="6"/>
      <circle cx="100" cy="118" r="2.2" fill="#C0392B"/>
      <circle cx="156" cy="110" r="6"/>
      <circle cx="156" cy="110" r="2.2" fill="#C0392B"/>
    </g>
  </g>
  <path d="M70 90 q26 -34 70 -30" fill="none" stroke="#FFFFFF" stroke-width="6" stroke-linecap="round" opacity="0.26"/>
</svg>
