<svg xmlns="http://www.w3.org/2000/svg" viewBox="0 0 256 256" width="256" height="256">
  <ellipse cx="128" cy="216" rx="80" ry="13" fill="#000" opacity="0.12"/>
  <defs>
    <linearGradient id="top-lettuce_leaf" x1="0" y1="0" x2="0" y2="1">
      <stop offset="0" stop-color="#9ace52"/>
      <stop offset="1" stop-color="#7fb23e"/>
    </linearGradient>
  </defs>
  <!-- back curly shreds -->
  <path d="M52 150 q24 -34 56 -18 q26 -28 56 -10 q30 -14 44 18" fill="none" stroke="#5f8a2e" stroke-width="20" stroke-linecap="round"/>
  <!-- main tangle of shreds -->
  <path d="M48 168 q22 -30 50 -16 q24 -26 52 -8 q28 -18 50 12" fill="none" stroke="url(#top-lettuce_leaf)" stroke-width="22" stroke-linecap="round"/>
  <path d="M58 192 q26 -28 56 -12 q26 -22 56 -6" fill="none" stroke="url(#top-lettuce_leaf)" stroke-width="22" stroke-linecap="round"/>
  <path d="M70 150 q16 36 40 30 q22 28 56 8" fill="none" stroke="#8cc049" stroke-width="18" stroke-linecap="round"/>
  <!-- ruffle accents -->
  <path d="M80 162 q12 -14 26 -8" fill="none" stroke="#bfe07a" stroke-width="6" stroke-linecap="round" opacity="0.9"/>
  <path d="M120 156 q12 -14 26 -6" fill="none" stroke="#bfe07a" stroke-width="6" stroke-linecap="round" opacity="0.9"/>
  <path d="M150 170 q12 -12 24 -4" fill="none" stroke="#bfe07a" stroke-width="6" stroke-linecap="round" opacity="0.9"/>
  <path d="M92 188 q12 -12 26 -6" fill="none" stroke="#bfe07a" stroke-width="6" stroke-linecap="round" opacity="0.85"/>
  <!-- outline edge curls -->
  <path d="M50 168 q22 -30 50 -16" fill="none" stroke="#4a6f22" stroke-width="5" stroke-linecap="round" opacity="0.55"/>
  <path d="M150 172 q22 -16 48 8" fill="none" stroke="#4a6f22" stroke-width="5" stroke-linecap="round" opacity="0.5"/>
</svg>
