<svg xmlns="http://www.w3.org/2000/svg" viewBox="0 0 256 256" width="256" height="256">
  <ellipse cx="128" cy="218" rx="74" ry="13" fill="#000" opacity="0.12"/>
  <defs>
    <linearGradient id="bacon_strip1" x1="0" y1="0" x2="0" y2="1">
      <stop offset="0" stop-color="#b5492a"/>
      <stop offset="1" stop-color="#9a3a20"/>
    </linearGradient>
    <linearGradient id="bacon_strip2" x1="0" y1="0" x2="0" y2="1">
      <stop offset="0" stop-color="#ad4327"/>
      <stop offset="1" stop-color="#8f351d"/>
    </linearGradient>
    <linearGradient id="bacon_strip3" x1="0" y1="0" x2="0" y2="1">
      <stop offset="0" stop-color="#b8492a"/>
      <stop offset="1" stop-color="#963820"/>
    </linearGradient>
  </defs>
  <!-- back strip -->
  <path d="M40 96 Q70 78 100 96 Q130 114 160 96 Q190 78 216 98 L210 128 Q186 110 158 126 Q128 144 98 126 Q70 108 44 124 Z"
        fill="url(#bacon_strip3)" stroke="#4a2f1a" stroke-width="6" stroke-linejoin="round"/>
  <path d="M52 104 Q78 90 104 104" stroke="#f3ddc4" stroke-width="6" stroke-linecap="round" fill="none" opacity="0.9"/>
  <path d="M118 116 Q146 104 172 116" stroke="#f3ddc4" stroke-width="6" stroke-linecap="round" fill="none" opacity="0.85"/>
  <!-- middle strip -->
  <path d="M36 130 Q68 112 98 130 Q128 148 158 130 Q188 112 220 132 L214 162 Q184 144 156 160 Q126 178 96 160 Q68 142 42 158 Z"
        fill="url(#bacon_strip1)" stroke="#4a2f1a" stroke-width="6" stroke-linejoin="round"/>
  <path d="M48 138 Q76 124 102 138" stroke="#f6e4cd" stroke-width="7" stroke-linecap="round" fill="none"/>
  <path d="M116 150 Q146 138 174 150" stroke="#f6e4cd" stroke-width="7" stroke-linecap="round" fill="none" opacity="0.92"/>
  <path d="M188 134 Q204 130 212 138" stroke="#f6e4cd" stroke-width="6" stroke-linecap="round" fill="none" opacity="0.85"/>
  <!-- front strip -->
  <path d="M44 162 Q74 146 102 162 Q132 180 160 162 Q188 146 214 166 L208 194 Q184 178 158 192 Q130 208 102 192 Q76 176 50 190 Z"
        fill="url(#bacon_strip2)" stroke="#4a2f1a" stroke-width="6" stroke-linejoin="round"/>
  <path d="M54 170 Q80 158 106 170" stroke="#f3ddc4" stroke-width="6" stroke-linecap="round" fill="none" opacity="0.9"/>
  <path d="M120 182 Q148 170 176 182" stroke="#f3ddc4" stroke-width="6" stroke-linecap="round" fill="none" opacity="0.85"/>
  <path d="M70 156 Q90 150 102 156" stroke="#ffffff" stroke-width="3" stroke-linecap="round" fill="none" opacity="0.4"/>
</svg>
