<svg xmlns="http://www.w3.org/2000/svg" viewBox="0 0 256 256" width="256" height="256">
  <ellipse cx="128" cy="226" rx="52" ry="11" fill="#000" opacity="0.12"/>
  <defs>
    <linearGradient id="milk-strawberry_body" x1="0" y1="0" x2="1" y2="0">
      <stop offset="0" stop-color="#eaa3b6"/>
      <stop offset=".45" stop-color="#f3b9c8"/>
      <stop offset="1" stop-color="#e498ab"/>
    </linearGradient>
    <linearGradient id="milk-strawberry_roof" x1="0" y1="0" x2="0" y2="1">
      <stop offset="0" stop-color="#fad2dd"/>
      <stop offset="1" stop-color="#e9a6b8"/>
    </linearGradient>
  </defs>
  <path d="M88 76 L128 50 L168 76 L168 92 L88 92 Z" fill="url(#milk-strawberry_roof)" stroke="#5a3a1f" stroke-width="6" stroke-linejoin="round"/>
  <path d="M118 50 L138 50 L138 62 L118 62 Z" fill="#e29bb0" stroke="#5a3a1f" stroke-width="5" stroke-linejoin="round"/>
  <path d="M88 92 L168 92 L168 204 Q168 216 156 216 L100 216 Q88 216 88 204 Z" fill="url(#milk-strawberry_body)" stroke="#5a3a1f" stroke-width="6" stroke-linejoin="round"/>
  <path d="M128 50 L128 92" stroke="#5a3a1f" stroke-width="5" stroke-linecap="round" opacity="0.55"/>
  <rect x="104" y="120" width="48" height="58" rx="6" fill="#fff" opacity="0.95" stroke="#5a3a1f" stroke-width="4"/>
  <rect x="104" y="120" width="48" height="16" rx="6" fill="#e25c7a" stroke="#5a3a1f" stroke-width="4"/>
  <!-- strawberry flavor dab -->
  <path d="M128 145 C120 145 115 150 115 157 C115 167 124 172 128 172 C132 172 141 167 141 157 C141 150 136 145 128 145 Z" fill="#e25c7a" stroke="#a63b53" stroke-width="3" stroke-linejoin="round"/>
  <path d="M122 138 L128 146 L134 138 Z" fill="#7aa84a" stroke="#4d6b2c" stroke-width="2.5" stroke-linejoin="round"/>
  <circle cx="123" cy="156" r="1.6" fill="#fff"/>
  <circle cx="131" cy="160" r="1.6" fill="#fff"/>
  <circle cx="127" cy="164" r="1.6" fill="#fff"/>
  <path d="M98 100 L98 198" stroke="#fff" stroke-width="6" stroke-linecap="round" opacity="0.5"/>
</svg>
