<svg xmlns="http://www.w3.org/2000/svg" viewBox="0 0 256 256" width="256" height="256">
  <ellipse cx="128" cy="226" rx="52" ry="11" fill="#000" opacity="0.12"/>
  <defs>
    <linearGradient id="milk-blueberry_body" x1="0" y1="0" x2="1" y2="0">
      <stop offset="0" stop-color="#97a4d6"/>
      <stop offset=".45" stop-color="#aab6e0"/>
      <stop offset="1" stop-color="#8c99ce"/>
    </linearGradient>
    <linearGradient id="milk-blueberry_roof" x1="0" y1="0" x2="0" y2="1">
      <stop offset="0" stop-color="#c3ccec"/>
      <stop offset="1" stop-color="#9aa7da"/>
    </linearGradient>
  </defs>
  <path d="M88 76 L128 50 L168 76 L168 92 L88 92 Z" fill="url(#milk-blueberry_roof)" stroke="#43291a" stroke-width="6" stroke-linejoin="round"/>
  <path d="M118 50 L138 50 L138 62 L118 62 Z" fill="#98a5d4" stroke="#43291a" stroke-width="5" stroke-linejoin="round"/>
  <path d="M88 92 L168 92 L168 204 Q168 216 156 216 L100 216 Q88 216 88 204 Z" fill="url(#milk-blueberry_body)" stroke="#43291a" stroke-width="6" stroke-linejoin="round"/>
  <path d="M128 50 L128 92" stroke="#43291a" stroke-width="5" stroke-linecap="round" opacity="0.55"/>
  <rect x="104" y="120" width="48" height="58" rx="6" fill="#fff" opacity="0.95" stroke="#43291a" stroke-width="4"/>
  <rect x="104" y="120" width="48" height="16" rx="6" fill="#4a4f8c" stroke="#43291a" stroke-width="4"/>
  <!-- blueberry flavor dab (berry cluster) -->
  <circle cx="122" cy="158" r="8" fill="#4a4f8c" stroke="#2f3360" stroke-width="3"/>
  <circle cx="135" cy="161" r="7" fill="#5a5fa0" stroke="#2f3360" stroke-width="3"/>
  <path d="M119 155 l2 0 m1.5 0 l0 2 m0 -2 l-1.4 1.4 m1.4 -1.4 l1.4 1.4" stroke="#1f2347" stroke-width="1.4" stroke-linecap="round"/>
  <circle cx="119" cy="155" r="2" fill="#fff" opacity="0.45"/>
  <circle cx="132" cy="158" r="1.8" fill="#fff" opacity="0.45"/>
  <path d="M98 100 L98 198" stroke="#fff" stroke-width="6" stroke-linecap="round" opacity="0.45"/>
</svg>
