<svg xmlns="http://www.w3.org/2000/svg" viewBox="0 0 256 256" width="256" height="256">
  <ellipse cx="128" cy="226" rx="58" ry="11" fill="#000" opacity="0.12"/>
  <defs>
    <linearGradient id="rainbow-sprinkles_body" x1="0" y1="0" x2="1" y2="0">
      <stop offset="0" stop-color="#7fc8e8"/><stop offset=".5" stop-color="#a9e0f4"/><stop offset="1" stop-color="#5aa9cf"/>
    </linearGradient>
    <linearGradient id="rainbow-sprinkles_cap" x1="0" y1="0" x2="0" y2="1">
      <stop offset="0" stop-color="#f4f7fa"/><stop offset="1" stop-color="#c4cdd6"/>
    </linearGradient>
  </defs>
  <g transform="rotate(28 132 96)">
    <rect x="98" y="64" width="68" height="96" rx="14" fill="url(#rainbow-sprinkles_body)" stroke="#43291a" stroke-width="6" stroke-linejoin="round"/>
    <path d="M112 78 L112 150" stroke="#fff" stroke-width="6" stroke-linecap="round" opacity="0.5"/>
    <rect x="100" y="100" width="64" height="26" rx="4" fill="#fff" opacity="0.8" stroke="#43291a" stroke-width="3"/>
    <rect x="94" y="44" width="76" height="26" rx="10" fill="url(#rainbow-sprinkles_cap)" stroke="#43291a" stroke-width="6" stroke-linejoin="round"/>
    <circle cx="112" cy="57" r="3" fill="#43291a"/><circle cx="126" cy="57" r="3" fill="#43291a"/><circle cx="140" cy="57" r="3" fill="#43291a"/><circle cx="154" cy="57" r="3" fill="#43291a"/>
  </g>
  <!-- falling: short multicolor dashes at varied angles -->
  <rect x="145" y="143" width="13" height="5" rx="2.5" fill="#e7402f" stroke="#43291a" stroke-width="2" transform="rotate(35 151 145)"/>
  <rect x="166" y="160" width="13" height="5" rx="2.5" fill="#3a7de0" stroke="#43291a" stroke-width="2" transform="rotate(-25 172 162)"/>
  <rect x="150" y="174" width="13" height="5" rx="2.5" fill="#f4c020" stroke="#43291a" stroke-width="2" transform="rotate(55 156 176)"/>
  <rect x="174" y="150" width="12" height="5" rx="2.5" fill="#3fb04f" stroke="#43291a" stroke-width="2" transform="rotate(-40 180 152)"/>
  <rect x="138" y="160" width="12" height="5" rx="2.5" fill="#e85aa6" stroke="#43291a" stroke-width="2" transform="rotate(15 144 162)"/>
  <!-- pile of sprinkles -->
  <path d="M94 211 Q128 192 162 211 Q128 219 94 211 Z" fill="#fbe9d2" stroke="#43291a" stroke-width="5" stroke-linejoin="round"/>
  <rect x="103" y="201" width="13" height="5" rx="2.5" fill="#e7402f" stroke="#43291a" stroke-width="2" transform="rotate(-20 109 203)"/>
  <rect x="119" y="203" width="13" height="5" rx="2.5" fill="#3a7de0" stroke="#43291a" stroke-width="2" transform="rotate(12 125 205)"/>
  <rect x="134" y="201" width="13" height="5" rx="2.5" fill="#3fb04f" stroke="#43291a" stroke-width="2" transform="rotate(-15 140 203)"/>
  <rect x="148" y="204" width="12" height="5" rx="2.5" fill="#f4c020" stroke="#43291a" stroke-width="2" transform="rotate(25 154 206)"/>
  <rect x="126" y="200" width="12" height="5" rx="2.5" fill="#e85aa6" stroke="#43291a" stroke-width="2" transform="rotate(40 132 202)"/>
</svg>
