<svg xmlns="http://www.w3.org/2000/svg" viewBox="0 0 256 256" width="256" height="256">
  <ellipse cx="128" cy="226" rx="58" ry="11" fill="#000" opacity="0.12"/>
  <defs>
    <linearGradient id="ground-nutmeg_body" x1="0" y1="0" x2="1" y2="0">
      <stop offset="0" stop-color="#b58850"/><stop offset=".5" stop-color="#d3a972"/><stop offset="1" stop-color="#9e743f"/>
    </linearGradient>
    <linearGradient id="ground-nutmeg_cap" x1="0" y1="0" x2="0" y2="1">
      <stop offset="0" stop-color="#f4f7fa"/><stop offset="1" stop-color="#c4cdd6"/>
    </linearGradient>
  </defs>
  <g transform="rotate(28 132 96)">
    <rect x="98" y="64" width="68" height="96" rx="14" fill="url(#ground-nutmeg_body)" stroke="#4a2f1a" stroke-width="6" stroke-linejoin="round"/>
    <path d="M112 78 L112 150" stroke="#fff" stroke-width="6" stroke-linecap="round" opacity="0.35"/>
    <rect x="100" y="100" width="64" height="26" rx="4" fill="#fff" opacity="0.85" stroke="#4a2f1a" stroke-width="3"/>
    <rect x="94" y="44" width="76" height="26" rx="10" fill="url(#ground-nutmeg_cap)" stroke="#4a2f1a" stroke-width="6" stroke-linejoin="round"/>
    <circle cx="112" cy="57" r="3" fill="#4a2f1a"/><circle cx="126" cy="57" r="3" fill="#4a2f1a"/><circle cx="140" cy="57" r="3" fill="#4a2f1a"/><circle cx="154" cy="57" r="3" fill="#4a2f1a"/>
  </g>
  <!-- falling: warm-brown fine dust, slightly coarser than cocoa, small specks -->
  <circle cx="148" cy="148" r="2.5" fill="#9c6a3c"/><circle cx="158" cy="158" r="2" fill="#b58850"/>
  <circle cx="166" cy="168" r="2.5" fill="#9c6a3c"/><circle cx="172" cy="178" r="2" fill="#82562d"/>
  <circle cx="152" cy="172" r="2" fill="#9c6a3c"/><circle cx="178" cy="160" r="2" fill="#b58850"/>
  <circle cx="142" cy="164" r="2" fill="#9c6a3c"/><circle cx="160" cy="184" r="2" fill="#82562d"/>
  <!-- soft warm pile -->
  <path d="M94 211 Q128 189 162 211 Q128 219 94 211 Z" fill="#9c6a3c" stroke="#4a2f1a" stroke-width="5" stroke-linejoin="round"/>
  <path d="M104 205 Q128 197 152 205" stroke="#c4915a" stroke-width="3" stroke-linecap="round" fill="none" opacity="0.7"/>
  <circle cx="118" cy="206" r="2" fill="#82562d"/><circle cx="138" cy="206" r="2" fill="#82562d"/>
</svg>
