<svg xmlns="http://www.w3.org/2000/svg" viewBox="0 0 256 256" width="256" height="256">
  <ellipse cx="128" cy="226" rx="58" ry="11" fill="#000" opacity="0.12"/>
  <defs>
    <linearGradient id="cocoa-powder_body" x1="0" y1="0" x2="1" y2="0">
      <stop offset="0" stop-color="#7a4a28"/><stop offset=".5" stop-color="#9c6539"/><stop offset="1" stop-color="#653a1f"/>
    </linearGradient>
    <linearGradient id="cocoa-powder_cap" x1="0" y1="0" x2="0" y2="1">
      <stop offset="0" stop-color="#f4f7fa"/><stop offset="1" stop-color="#c4cdd6"/>
    </linearGradient>
  </defs>
  <g transform="rotate(28 132 96)">
    <rect x="98" y="64" width="68" height="96" rx="14" fill="url(#cocoa-powder_body)" stroke="#43291a" stroke-width="6" stroke-linejoin="round"/>
    <path d="M112 78 L112 150" stroke="#fff" stroke-width="6" stroke-linecap="round" opacity="0.3"/>
    <rect x="100" y="100" width="64" height="26" rx="4" fill="#fff" opacity="0.85" stroke="#43291a" stroke-width="3"/>
    <rect x="94" y="44" width="76" height="26" rx="10" fill="url(#cocoa-powder_cap)" stroke="#43291a" stroke-width="6" stroke-linejoin="round"/>
    <circle cx="112" cy="57" r="3" fill="#43291a"/><circle cx="126" cy="57" r="3" fill="#43291a"/><circle cx="140" cy="57" r="3" fill="#43291a"/><circle cx="154" cy="57" r="3" fill="#43291a"/>
  </g>
  <!-- falling cocoa: fine dark dust cloud of tiny dots -->
  <circle cx="148" cy="148" r="2.5" fill="#4a2c17"/><circle cx="158" cy="156" r="2" fill="#4a2c17"/>
  <circle cx="166" cy="166" r="2.5" fill="#3a2210"/><circle cx="172" cy="176" r="2" fill="#4a2c17"/>
  <circle cx="152" cy="170" r="2" fill="#4a2c17"/><circle cx="178" cy="160" r="2" fill="#3a2210"/>
  <circle cx="140" cy="162" r="2" fill="#4a2c17"/><circle cx="162" cy="184" r="2" fill="#4a2c17"/>
  <circle cx="146" cy="180" r="2" fill="#3a2210"/>
  <!-- soft dusty pile -->
  <path d="M94 211 Q128 188 162 211 Q128 219 94 211 Z" fill="#4a2c17" stroke="#43291a" stroke-width="5" stroke-linejoin="round"/>
  <path d="M104 205 Q128 197 152 205" stroke="#653a1f" stroke-width="3" stroke-linecap="round" fill="none" opacity="0.6"/>
</svg>
