<svg xmlns="http://www.w3.org/2000/svg" viewBox="0 0 256 256" width="256" height="256">
  <ellipse cx="128" cy="226" rx="58" ry="11" fill="#000" opacity="0.12"/>
  <defs>
    <linearGradient id="shaved-chocolate_body" x1="0" y1="0" x2="1" y2="0">
      <stop offset="0" stop-color="#6b4226"/><stop offset=".5" stop-color="#8a5934"/><stop offset="1" stop-color="#553420"/>
    </linearGradient>
    <linearGradient id="shaved-chocolate_cap" x1="0" y1="0" x2="0" y2="1">
      <stop offset="0" stop-color="#f4f7fa"/><stop offset="1" stop-color="#c4cdd6"/>
    </linearGradient>
    <linearGradient id="shaved-chocolate_curl" x1="0" y1="0" x2="1" y2="1">
      <stop offset="0" stop-color="#5a3622"/><stop offset="1" stop-color="#2e1c11"/>
    </linearGradient>
  </defs>
  <g transform="rotate(28 132 96)">
    <rect x="98" y="64" width="68" height="96" rx="14" fill="url(#shaved-chocolate_body)" stroke="#3c2a1a" stroke-width="6" stroke-linejoin="round"/>
    <path d="M112 78 L112 150" stroke="#fff" stroke-width="6" stroke-linecap="round" opacity="0.3"/>
    <rect x="100" y="100" width="64" height="26" rx="4" fill="#fff" opacity="0.85" stroke="#3c2a1a" stroke-width="3"/>
    <rect x="94" y="44" width="76" height="26" rx="10" fill="url(#shaved-chocolate_cap)" stroke="#3c2a1a" stroke-width="6" stroke-linejoin="round"/>
    <circle cx="112" cy="57" r="3" fill="#3c2a1a"/><circle cx="126" cy="57" r="3" fill="#3c2a1a"/><circle cx="140" cy="57" r="3" fill="#3c2a1a"/><circle cx="154" cy="57" r="3" fill="#3c2a1a"/>
  </g>
  <!-- falling: curled chocolate shavings -->
  <path d="M146 144 q10 -2 12 8 q-8 0 -12 -8 z" fill="url(#shaved-chocolate_curl)" stroke="#2e1c11" stroke-width="2.5" stroke-linejoin="round"/>
  <path d="M166 164 q12 0 10 11 q-8 -2 -10 -11 z" fill="url(#shaved-chocolate_curl)" stroke="#2e1c11" stroke-width="2.5" stroke-linejoin="round"/>
  <path d="M150 178 q11 1 8 12 q-7 -3 -8 -12 z" fill="url(#shaved-chocolate_curl)" stroke="#2e1c11" stroke-width="2.5" stroke-linejoin="round"/>
  <!-- pile of curls -->
  <path d="M94 211 Q128 191 162 211 Q128 219 94 211 Z" fill="#3a2418" stroke="#3c2a1a" stroke-width="5" stroke-linejoin="round"/>
  <path d="M106 205 q9 -3 12 4 q-7 2 -12 -4 z" fill="#5a3622" stroke="#2e1c11" stroke-width="2"/>
  <path d="M128 203 q9 -1 10 5 q-7 1 -10 -5 z" fill="#5a3622" stroke="#2e1c11" stroke-width="2"/>
  <path d="M146 206 q8 -2 10 3 q-6 2 -10 -3 z" fill="#5a3622" stroke="#2e1c11" stroke-width="2"/>
</svg>
