<svg xmlns="http://www.w3.org/2000/svg" viewBox="0 0 256 256" width="256" height="256">
  <ellipse cx="128" cy="226" rx="58" ry="11" fill="#000" opacity="0.12"/>
  <defs>
    <linearGradient id="crushed-pistachios_body" x1="0" y1="0" x2="1" y2="0">
      <stop offset="0" stop-color="#a8d06a"/><stop offset=".5" stop-color="#c4e58c"/><stop offset="1" stop-color="#8fbb4e"/>
    </linearGradient>
    <linearGradient id="crushed-pistachios_cap" x1="0" y1="0" x2="0" y2="1">
      <stop offset="0" stop-color="#f4f7fa"/><stop offset="1" stop-color="#c4cdd6"/>
    </linearGradient>
  </defs>
  <g transform="rotate(28 132 96)">
    <rect x="98" y="64" width="68" height="96" rx="14" fill="url(#crushed-pistachios_body)" stroke="#4a2f1a" stroke-width="6" stroke-linejoin="round"/>
    <path d="M112 78 L112 150" stroke="#fff" stroke-width="6" stroke-linecap="round" opacity="0.4"/>
    <rect x="100" y="100" width="64" height="26" rx="4" fill="#fff" opacity="0.85" stroke="#4a2f1a" stroke-width="3"/>
    <rect x="94" y="44" width="76" height="26" rx="10" fill="url(#crushed-pistachios_cap)" stroke="#4a2f1a" stroke-width="6" stroke-linejoin="round"/>
    <circle cx="112" cy="57" r="3" fill="#4a2f1a"/><circle cx="126" cy="57" r="3" fill="#4a2f1a"/><circle cx="140" cy="57" r="3" fill="#4a2f1a"/><circle cx="154" cy="57" r="3" fill="#4a2f1a"/>
  </g>
  <!-- falling: irregular angular green chunks -->
  <path d="M148 144 l8 2 -2 8 -7 -3 z" fill="#8db84a" stroke="#4a2f1a" stroke-width="2.5" stroke-linejoin="round"/>
  <path d="M166 162 l9 -1 1 8 -8 2 z" fill="#a8d06a" stroke="#4a2f1a" stroke-width="2.5" stroke-linejoin="round"/>
  <path d="M152 176 l7 3 -3 7 -6 -4 z" fill="#8db84a" stroke="#4a2f1a" stroke-width="2.5" stroke-linejoin="round"/>
  <path d="M176 152 l6 4 -4 5 -5 -3 z" fill="#7da53e" stroke="#4a2f1a" stroke-width="2.5" stroke-linejoin="round"/>
  <!-- chunky pile -->
  <path d="M94 211 Q128 189 162 211 Q128 219 94 211 Z" fill="#8db84a" stroke="#4a2f1a" stroke-width="5" stroke-linejoin="round"/>
  <path d="M110 204 l7 3 -2 5 -6 -3 z" fill="#a8d06a" stroke="#4a2f1a" stroke-width="2"/>
  <path d="M132 203 l7 2 -1 5 -7 -2 z" fill="#7da53e" stroke="#4a2f1a" stroke-width="2"/>
  <path d="M148 206 l6 3 -2 4 -5 -2 z" fill="#a8d06a" stroke="#4a2f1a" stroke-width="2"/>
</svg>
