<svg xmlns="http://www.w3.org/2000/svg" viewBox="0 0 256 256" width="256" height="256">
  <ellipse cx="128" cy="226" rx="58" ry="11" fill="#000" opacity="0.12"/>
  <defs>
    <linearGradient id="toasted-coconut_body" x1="0" y1="0" x2="1" y2="0">
      <stop offset="0" stop-color="#efe2c6"/><stop offset=".5" stop-color="#fbf3df"/><stop offset="1" stop-color="#e3d2ad"/>
    </linearGradient>
    <linearGradient id="toasted-coconut_cap" x1="0" y1="0" x2="0" y2="1">
      <stop offset="0" stop-color="#f4f7fa"/><stop offset="1" stop-color="#c4cdd6"/>
    </linearGradient>
  </defs>
  <g transform="rotate(28 132 96)">
    <rect x="98" y="64" width="68" height="96" rx="14" fill="url(#toasted-coconut_body)" stroke="#5a3a1f" stroke-width="6" stroke-linejoin="round"/>
    <path d="M112 78 L112 150" stroke="#fff" stroke-width="6" stroke-linecap="round" opacity="0.5"/>
    <rect x="100" y="100" width="64" height="26" rx="4" fill="#fff" opacity="0.7" stroke="#5a3a1f" stroke-width="3"/>
    <rect x="94" y="44" width="76" height="26" rx="10" fill="url(#toasted-coconut_cap)" stroke="#5a3a1f" stroke-width="6" stroke-linejoin="round"/>
    <circle cx="112" cy="57" r="3" fill="#5a3a1f"/><circle cx="126" cy="57" r="3" fill="#5a3a1f"/><circle cx="140" cy="57" r="3" fill="#5a3a1f"/><circle cx="154" cy="57" r="3" fill="#5a3a1f"/>
  </g>
  <!-- falling: thin pale flakes, some toasted golden edges -->
  <path d="M146 144 q12 -4 16 2 q-12 5 -16 -2 z" fill="#e6d4b0" stroke="#5a3a1f" stroke-width="2.5" stroke-linejoin="round"/>
  <path d="M164 164 q13 -3 15 4 q-11 4 -15 -4 z" fill="#cda566" stroke="#5a3a1f" stroke-width="2.5" stroke-linejoin="round"/>
  <path d="M150 178 q11 -4 15 1 q-11 5 -15 -1 z" fill="#e6d4b0" stroke="#5a3a1f" stroke-width="2.5" stroke-linejoin="round"/>
  <!-- pile of flakes -->
  <path d="M94 211 Q128 191 162 211 Q128 219 94 211 Z" fill="#e6d4b0" stroke="#5a3a1f" stroke-width="5" stroke-linejoin="round"/>
  <path d="M104 205 q10 -4 14 1 q-10 4 -14 -1 z" fill="#cda566" stroke="#5a3a1f" stroke-width="2"/>
  <path d="M128 203 q10 -3 13 1 q-9 4 -13 -1 z" fill="#fbf3df" stroke="#5a3a1f" stroke-width="2"/>
  <path d="M146 206 q9 -3 12 1 q-8 4 -12 -1 z" fill="#cda566" stroke="#5a3a1f" stroke-width="2"/>
</svg>
