<svg xmlns="http://www.w3.org/2000/svg" viewBox="0 0 256 256" width="256" height="256">
  <ellipse cx="128" cy="216" rx="78" ry="14" fill="#000" opacity="0.12"/>
  <defs>
    <linearGradient id="poutine_gravy" x1="0" y1="0" x2="0" y2="1">
      <stop offset="0" stop-color="#86532f"/>
      <stop offset="1" stop-color="#5c3620"/>
    </linearGradient>
    <radialGradient id="poutine_curd" cx="0.4" cy="0.35" r="0.7">
      <stop offset="0" stop-color="#fdf6e2"/>
      <stop offset="1" stop-color="#eadfbe"/>
    </radialGradient>
  </defs>
  <!-- gravy pool -->
  <path d="M58 138
    q-10 -26 16 -36 q18 -12 32 0
    q14 -16 36 -8 q20 8 16 28
    q24 -2 22 24 q-2 22 -32 24
    q-10 16 -38 12 q-26 0 -32 -22
    q-24 0 -20 -24 q2 -16 0 -20 Z"
    fill="url(#poutine_gravy)" stroke="#3e2412" stroke-width="6" stroke-linejoin="round"/>
  <!-- gravy drips -->
  <path d="M92 184 q-4 14 2 22 q8 -8 4 -22 Z" fill="url(#poutine_gravy)" stroke="#3e2412" stroke-width="5" stroke-linejoin="round"/>
  <!-- cheese curds poking through -->
  <g stroke="#bcae84" stroke-width="4" stroke-linejoin="round">
    <path d="M82 122 q14 -10 26 0 q6 12 -6 18 q-16 6 -24 -6 q-2 -8 4 -12 Z" fill="url(#poutine_curd)"/>
    <path d="M138 110 q14 -8 24 2 q4 12 -8 16 q-15 4 -22 -8 q-1 -7 6 -10 Z" fill="url(#poutine_curd)"/>
    <path d="M110 150 q15 -8 26 2 q4 12 -8 18 q-16 6 -24 -8 q-2 -8 6 -12 Z" fill="url(#poutine_curd)"/>
    <path d="M150 152 q13 -6 22 4 q3 11 -8 15 q-14 3 -20 -8 q-1 -7 6 -11 Z" fill="url(#poutine_curd)"/>
    <path d="M70 158 q12 -6 20 2 q4 11 -6 15 q-14 4 -20 -7 q-1 -6 6 -10 Z" fill="url(#poutine_curd)"/>
  </g>
  <!-- curd highlights -->
  <g fill="#fffdf2" opacity="0.8">
    <ellipse cx="92" cy="126" rx="7" ry="4"/>
    <ellipse cx="148" cy="114" rx="6" ry="3.5"/>
    <ellipse cx="120" cy="154" rx="7" ry="4"/>
  </g>
  <!-- gravy gloss -->
  <path d="M150 132 q14 6 18 18" stroke="#a06a3e" stroke-width="5" stroke-linecap="round" opacity="0.55" fill="none"/>
</svg>
