<svg xmlns="http://www.w3.org/2000/svg" viewBox="0 0 256 256" width="256" height="256">
  <ellipse cx="128" cy="216" rx="70" ry="12" fill="#000" opacity="0.12"/>
  <defs>
    <radialGradient id="seasoning_mound" cx="0.42" cy="0.4" r="0.7">
      <stop offset="0" stop-color="#c47439"/>
      <stop offset="1" stop-color="#9a4f24"/>
    </radialGradient>
  </defs>
  <!-- soft heap of seasoning -->
  <path d="M70 176
    q-18 -6 -6 -24 q-6 -18 16 -22 q8 -16 28 -10
    q14 -10 28 0 q22 -4 24 16 q18 6 8 24
    q8 16 -16 18 q-10 12 -30 8 q-18 8 -36 -2 q-12 4 -16 -6 Z"
    fill="url(#seasoning_mound)" stroke="#5a3018" stroke-width="6" stroke-linejoin="round"/>
  <!-- coarse grains scattered across the heap -->
  <g stroke="#5a3018" stroke-width="2">
    <rect x="92" y="118" width="8" height="7" rx="2" fill="#b85f2c" transform="rotate(20 96 121)"/>
    <rect x="120" y="110" width="9" height="7" rx="2" fill="#a8552a" transform="rotate(-15 124 113)"/>
    <rect x="148" y="124" width="8" height="6" rx="2" fill="#c46a32" transform="rotate(30 152 127)"/>
    <rect x="104" y="140" width="9" height="7" rx="2" fill="#9c4d24" transform="rotate(-25 108 143)"/>
    <rect x="134" y="146" width="8" height="6" rx="2" fill="#b85f2c" transform="rotate(10 138 149)"/>
    <rect x="84" y="150" width="7" height="6" rx="2" fill="#8f4620" transform="rotate(35 87 153)"/>
    <rect x="158" y="150" width="8" height="6" rx="2" fill="#a8552a" transform="rotate(-18 162 153)"/>
    <rect x="118" y="160" width="9" height="7" rx="2" fill="#c46a32" transform="rotate(22 122 163)"/>
    <rect x="100" y="166" width="7" height="6" rx="2" fill="#9c4d24" transform="rotate(-30 103 169)"/>
    <rect x="142" y="166" width="8" height="6" rx="2" fill="#b85f2c" transform="rotate(15 146 169)"/>
  </g>
  <!-- specks falling around -->
  <g fill="#a85a2c">
    <circle cx="62" cy="128" r="3"/>
    <circle cx="178" cy="138" r="3"/>
    <circle cx="74" cy="186" r="2.5"/>
    <circle cx="170" cy="180" r="2.5"/>
  </g>
  <!-- highlight -->
  <path d="M86 116 q22 -10 42 -4" stroke="#dd9a5e" stroke-width="5" stroke-linecap="round" opacity="0.55" fill="none"/>
</svg>
