<svg xmlns="http://www.w3.org/2000/svg" viewBox="0 0 256 256" width="256" height="256">
  <ellipse cx="128" cy="214" rx="78" ry="14" fill="#000" opacity="0.12"/>
  <defs>
    <linearGradient id="nacho_pool" x1="0" y1="0" x2="0" y2="1">
      <stop offset="0" stop-color="#ffc24d"/>
      <stop offset="1" stop-color="#ec9a1f"/>
    </linearGradient>
    <radialGradient id="nacho_gloss" cx="0.42" cy="0.36" r="0.6">
      <stop offset="0" stop-color="#fff0bf" stop-opacity="0.95"/>
      <stop offset="1" stop-color="#fff0bf" stop-opacity="0"/>
    </radialGradient>
  </defs>
  <!-- smooth nacho cheese pool -->
  <path d="M60 124
    q-12 -24 12 -34 q16 -12 30 -2
    q14 -14 32 -8 q18 6 18 24
    q24 -8 30 14 q4 16 -12 24
    q12 16 -6 30 q-14 10 -30 4
    q-8 18 -30 16 q-22 -2 -26 -20
    q-22 4 -30 -14 q-6 -16 10 -24
    q-12 -8 2 -20 Z"
    fill="url(#nacho_pool)" stroke="#5a3a1f" stroke-width="6" stroke-linejoin="round"/>
  <!-- drips -->
  <path d="M92 182 q-4 14 2 22 q8 -8 4 -22 Z" fill="url(#nacho_pool)" stroke="#5a3a1f" stroke-width="5" stroke-linejoin="round"/>
  <path d="M154 178 q6 14 0 22 q-8 -6 -6 -22 Z" fill="url(#nacho_pool)" stroke="#5a3a1f" stroke-width="5" stroke-linejoin="round"/>
  <!-- chili fleck accents -->
  <g fill="#d6541f">
    <circle cx="142" cy="120" r="3.5"/>
    <circle cx="100" cy="150" r="3"/>
    <circle cx="160" cy="148" r="3"/>
  </g>
  <!-- glossy highlight -->
  <ellipse cx="106" cy="108" rx="38" ry="24" fill="url(#nacho_gloss)"/>
  <path d="M86 96 q20 -10 38 -2" stroke="#fff" stroke-width="6" stroke-linecap="round" opacity="0.55" fill="none"/>
</svg>
