<svg xmlns="http://www.w3.org/2000/svg" viewBox="0 0 256 256" width="256" height="256">
  <!-- soda cup with domed lid + straw -->
  <ellipse cx="128" cy="234" rx="56" ry="9" fill="#000" opacity="0.12"/>
  <defs>
    <linearGradient id="soda_cup" x1="0" y1="0" x2="1" y2="0">
      <stop offset="0" stop-color="#D9342B"/><stop offset="0.5" stop-color="#F2554B"/><stop offset="1" stop-color="#C12A22"/>
    </linearGradient>
  </defs>
  <rect x="150" y="34" width="13" height="80" rx="5" fill="#F4D03F" stroke="#b8902a" stroke-width="4" transform="rotate(10 156 74)"/>
  <path d="M86 104 Q128 70 170 104 Z" fill="#BFE3F2" stroke="#3a6b7a" stroke-width="6" stroke-linejoin="round"/>
  <ellipse cx="128" cy="104" rx="46" ry="10" fill="#9FD0E6" stroke="#3a6b7a" stroke-width="6"/>
  <path d="M88 112 L168 112 L156 224 Q154 232 144 232 L112 232 Q102 232 100 224 Z"
        fill="url(#soda_cup)" stroke="#8a1d17" stroke-width="6" stroke-linejoin="round"/>
  <path d="M94 150 L162 150 L158 178 L98 178 Z" fill="#FFFFFF" opacity="0.92"/>
  <g fill="#D9342B"><circle cx="116" cy="164" r="5"/><circle cx="128" cy="164" r="5"/><circle cx="140" cy="164" r="5"/></g>
  <path d="M104 120 L100 210" stroke="#FFFFFF" stroke-width="5" stroke-linecap="round" opacity="0.4"/>
</svg>
