<svg xmlns="http://www.w3.org/2000/svg" viewBox="0 0 256 256" width="256" height="256">
  <defs>
    <linearGradient id="gardenveg-bread" x1="0" y1="0" x2="0" y2="1">
      <stop offset="0" stop-color="#F2B85A"/>
      <stop offset="1" stop-color="#E8A95C"/>
    </linearGradient>
    <linearGradient id="gardenveg-cheese" x1="0" y1="0" x2="0" y2="1">
      <stop offset="0" stop-color="#FBD06A"/>
      <stop offset="1" stop-color="#F8BE3C"/>
    </linearGradient>
    <clipPath id="gardenveg-clip">
      <path d="M44 120 L196 86 L226 150 L92 188 Z"/>
    </clipPath>
  </defs>
  <ellipse cx="132" cy="206" rx="84" ry="17" fill="#43291a" opacity="0.18"/>
  <path d="M40 132 L190 98 L222 158 L88 196 Z" fill="url(#gardenveg-bread)" stroke="#9a5f25" stroke-width="6" stroke-linejoin="round"/>
  <!-- cheese base -->
  <path d="M48 122 L194 88 L222 144 L86 182 Z" fill="url(#gardenveg-cheese)" stroke="#9a5f25" stroke-width="6" stroke-linejoin="round"/>
  <g clip-path="url(#gardenveg-clip)">
    <!-- leafy green (ruffled lettuce) -->
    <path d="M88 132 q10 -18 26 -8 q14 -10 24 2 q12 -8 22 4 q-8 14 -34 16 q-30 2 -38 -14 Z" fill="#7BBF4F" stroke="#3f6e30" stroke-width="4" stroke-linejoin="round"/>
    <path d="M104 126 q8 6 22 4" fill="none" stroke="#3f6e30" stroke-width="3" stroke-linecap="round"/>
    <!-- tomato slices -->
    <circle cx="112" cy="146" r="9" fill="#E25A45" stroke="#7a2018" stroke-width="4"/>
    <circle cx="112" cy="146" r="4" fill="#F08C72"/>
    <circle cx="150" cy="136" r="8" fill="#E25A45" stroke="#7a2018" stroke-width="4"/>
    <circle cx="150" cy="136" r="3.5" fill="#F08C72"/>
  </g>
  <path d="M44 110 L188 76 L208 122 L66 158 Z" fill="url(#gardenveg-bread)" stroke="#9a5f25" stroke-width="6" stroke-linejoin="round"/>
  <path d="M72 95 L94 131" stroke="#C77C2E" stroke-width="6" stroke-linecap="round"/>
  <path d="M108 87 L130 123" stroke="#C77C2E" stroke-width="6" stroke-linecap="round"/>
  <path d="M144 79 L166 115" stroke="#C77C2E" stroke-width="6" stroke-linecap="round"/>
  <path d="M52 104 L150 81" stroke="#FFE3A8" stroke-width="6" stroke-linecap="round" opacity="0.8"/>
</svg>
