<svg xmlns="http://www.w3.org/2000/svg" viewBox="0 0 256 256" width="256" height="256">
  <defs>
    <linearGradient id="steamedmilk_body" x1="0" y1="0" x2="1" y2="1">
      <stop offset="0" stop-color="#FFFFFF"/>
      <stop offset="1" stop-color="#F4ECDD"/>
    </linearGradient>
    <clipPath id="steamedmilk_clip">
      <path d="M70 110 L70 196 Q70 214 88 214 L150 214 Q168 214 168 196 L168 122 L196 138 L196 100 L168 116 L168 110 Q168 96 152 96 L86 96 Q70 96 70 110 Z"/>
    </clipPath>
  </defs>

  <ellipse cx="124" cy="226" rx="58" ry="10" fill="#000" opacity="0.12"/>

  <!-- rising steam -->
  <path d="M104 74 Q94 64 104 54 Q114 44 104 34" fill="none" stroke="#cdbfa6" stroke-width="5" stroke-linecap="round" opacity="0.55"/>
  <path d="M132 78 Q122 66 132 54 Q142 42 132 30" fill="none" stroke="#cdbfa6" stroke-width="5" stroke-linecap="round" opacity="0.7"/>
  <path d="M160 74 Q150 64 160 54 Q170 44 160 34" fill="none" stroke="#cdbfa6" stroke-width="5" stroke-linecap="round" opacity="0.55"/>

  <!-- pitcher body fill -->
  <g clip-path="url(#steamedmilk_clip)">
    <rect x="60" y="90" width="146" height="130" fill="url(#steamedmilk_body)"/>
    <path d="M70 150 L168 150 L168 122 L196 138 L196 100 L168 116 L168 110 L70 110 Z" fill="#fff" opacity="0.5"/>
  </g>

  <!-- pitcher outline -->
  <path d="M70 110 L70 196 Q70 214 88 214 L150 214 Q168 214 168 196 L168 122 L196 138 L196 100 L168 116 L168 110 Q168 96 152 96 L86 96 Q70 96 70 110 Z" fill="none" stroke="#5a4a35" stroke-width="6" stroke-linejoin="round"/>

  <!-- handle -->
  <path d="M168 132 Q196 134 196 158 Q196 182 170 184" fill="none" stroke="#5a4a35" stroke-width="6" stroke-linecap="round"/>

  <!-- milk rim -->
  <path d="M80 110 L158 110" stroke="#5a4a35" stroke-width="5" stroke-linecap="round" opacity="0.45"/>

  <!-- highlight -->
  <path d="M86 124 L86 196" stroke="#fff" stroke-width="7" stroke-linecap="round" opacity="0.7"/>
</svg>
