<svg xmlns="http://www.w3.org/2000/svg" viewBox="0 0 256 256" width="256" height="256">
  <ellipse cx="128" cy="228" rx="52" ry="10" fill="#000" opacity="0.12"/>
  <defs>
    <clipPath id="ehr_glass"><path d="M90 70 L166 70 L159 210 Q157 222 145 222 L111 222 Q99 222 97 210 Z"/></clipPath>
    <linearGradient id="ehr_milk" x1="0" y1="0" x2="0" y2="1">
      <stop offset="0" stop-color="#FBF6EA"/><stop offset="1" stop-color="#F4ECDD"/>
    </linearGradient>
  </defs>
  <g clip-path="url(#ehr_glass)">
    <rect x="84" y="70" width="88" height="78" fill="url(#ehr_milk)"/>
    <rect x="84" y="148" width="88" height="80" fill="#6F9E55"/>
    <path d="M84 148 Q128 138 172 148 L172 162 Q128 152 84 162 Z" fill="#7FAF63"/>
  </g>
  <!-- hazelnut drizzle swirl on milk top -->
  <path d="M98 96 Q116 84 134 96 Q152 108 158 92" fill="none" stroke="#C68B4E" stroke-width="5" stroke-linecap="round"/>
  <path d="M104 116 Q124 106 144 116" fill="none" stroke="#C68B4E" stroke-width="5" stroke-linecap="round"/>
  <!-- hazelnut crumble sprinkle -->
  <circle cx="110" cy="84" r="3.5" fill="#8A5A36"/>
  <circle cx="146" cy="86" r="3" fill="#8A5A36"/>
  <circle cx="128" cy="78" r="3" fill="#8A5A36"/>
  <circle cx="120" cy="104" r="2.6" fill="#8A5A36"/>
  <circle cx="150" cy="106" r="2.6" fill="#8A5A36"/>
  <!-- glass outline -->
  <path d="M90 70 L166 70 L159 210 Q157 222 145 222 L111 222 Q99 222 97 210 Z" fill="none" stroke="#5a4a35" stroke-width="6" stroke-linejoin="round"/>
  <path d="M84 148 Q128 138 172 148" fill="none" stroke="#5a4a35" stroke-width="5" stroke-linecap="round"/>
  <path d="M104 84 L100 196" stroke="#fff" stroke-width="6" stroke-linecap="round" opacity="0.3"/>
</svg>
