<svg xmlns="http://www.w3.org/2000/svg" viewBox="0 0 256 256" width="256" height="256">
  <ellipse cx="128" cy="230" rx="48" ry="9" fill="#000" opacity="0.12"/>
  <defs>
    <clipPath id="isl_glass"><path d="M94 56 L162 56 L156 214 Q155 224 145 224 L111 224 Q101 224 100 214 Z"/></clipPath>
  </defs>
  <g clip-path="url(#isl_glass)">
    <rect x="88" y="56" width="80" height="60" fill="#E16A7E"/>
    <rect x="88" y="116" width="80" height="50" fill="#F4ECDD"/>
    <rect x="88" y="166" width="80" height="62" fill="#E16A7E"/>
    <!-- ice cubes -->
    <g fill="#DDEBF2" opacity="0.85" stroke="#fff" stroke-width="2">
      <rect x="100" y="64" width="22" height="22" rx="4" transform="rotate(-12 111 75)"/>
      <rect x="128" y="72" width="20" height="20" rx="4" transform="rotate(10 138 82)"/>
      <rect x="112" y="92" width="20" height="20" rx="4" transform="rotate(6 122 102)"/>
      <rect x="134" y="98" width="18" height="18" rx="4" transform="rotate(-10 143 107)"/>
    </g>
  </g>
  <!-- straw -->
  <path d="M140 38 L150 200" stroke="#C9485B" stroke-width="9" stroke-linecap="round"/>
  <path d="M140 38 L150 200" stroke="#F2B5C4" stroke-width="3" stroke-linecap="round" opacity="0.7"/>
  <path d="M94 56 L162 56 L156 214 Q155 224 145 224 L111 224 Q101 224 100 214 Z" fill="none" stroke="#5a4a35" stroke-width="6" stroke-linejoin="round"/>
  <path d="M88 116 L168 116" stroke="#5a4a35" stroke-width="5" stroke-linecap="round"/>
  <path d="M88 166 L168 166" stroke="#5a4a35" stroke-width="5" stroke-linecap="round"/>
  <path d="M106 66 L102 204" stroke="#fff" stroke-width="6" stroke-linecap="round" opacity="0.3"/>
</svg>
