<svg xmlns="http://www.w3.org/2000/svg" viewBox="0 0 256 256" width="256" height="256">
  <ellipse cx="128" cy="228" rx="52" ry="10" fill="#000" opacity="0.12"/>
  <defs>
    <clipPath id="rose_glass"><path d="M90 72 L166 72 L159 210 Q157 222 145 222 L111 222 Q99 222 97 210 Z"/></clipPath>
  </defs>
  <g clip-path="url(#rose_glass)">
    <rect x="84" y="72" width="88" height="60" fill="#D87093"/>
    <rect x="84" y="132" width="88" height="96" fill="#6F9E55"/>
    <path d="M84 132 Q128 122 172 132 L172 148 Q128 138 84 148 Z" fill="#7FAF63"/>
    <path d="M84 72 Q128 64 172 72 L172 86 Q128 78 84 86 Z" fill="#E08AA8" opacity="0.8"/>
  </g>
  <!-- dried rose petals garnish on top -->
  <g fill="#C25B6E">
    <path d="M116 76 Q122 68 128 76 Q122 82 116 76 Z"/>
    <path d="M130 72 Q138 66 144 74 Q137 80 130 72 Z"/>
    <path d="M122 84 Q130 80 136 86 Q128 90 122 84 Z"/>
  </g>
  <path d="M120 75 Q126 70 130 76" fill="none" stroke="#A8475A" stroke-width="2" stroke-linecap="round"/>
  <path d="M90 72 L166 72 L159 210 Q157 222 145 222 L111 222 Q99 222 97 210 Z" fill="none" stroke="#5a4a35" stroke-width="6" stroke-linejoin="round"/>
  <path d="M84 132 Q128 122 172 132" fill="none" stroke="#5a4a35" stroke-width="5" stroke-linecap="round"/>
  <path d="M104 86 L100 196" stroke="#fff" stroke-width="6" stroke-linecap="round" opacity="0.3"/>
</svg>
