<svg xmlns="http://www.w3.org/2000/svg" viewBox="0 0 256 256" width="256" height="256">
  <ellipse cx="128" cy="228" rx="52" ry="10" fill="#000" opacity="0.12"/>
  <defs>
    <clipPath id="vv_glass"><path d="M90 70 L166 70 L159 210 Q157 222 145 222 L111 222 Q99 222 97 210 Z"/></clipPath>
    <linearGradient id="vv_blend" x1="0" y1="0" x2="0" y2="1">
      <stop offset="0" stop-color="#FBF3DC"/>
      <stop offset="0.45" stop-color="#C9D9AE"/>
      <stop offset="1" stop-color="#6F9E55"/>
    </linearGradient>
  </defs>
  <g clip-path="url(#vv_glass)">
    <rect x="84" y="70" width="88" height="158" fill="url(#vv_blend)"/>
    <path d="M84 96 Q128 86 172 96 L172 110 Q128 100 84 110 Z" fill="#FBF3DC" opacity="0.5"/>
  </g>
  <!-- vanilla cream swirl on top -->
  <path d="M88 78 Q108 66 128 78 Q148 90 168 76" fill="none" stroke="#FBF3DC" stroke-width="6" stroke-linecap="round" opacity="0.8"/>
  <!-- vanilla pod garnish -->
  <g transform="translate(128 64) rotate(12)">
    <rect x="-3" y="-12" width="6" height="24" rx="3" fill="#5C3A23"/>
    <line x1="0" y1="-9" x2="0" y2="9" stroke="#8A5A36" stroke-width="2"/>
  </g>
  <path d="M90 70 L166 70 L159 210 Q157 222 145 222 L111 222 Q99 222 97 210 Z" fill="none" stroke="#5a4a35" stroke-width="6" stroke-linejoin="round"/>
  <path d="M104 84 L100 196" stroke="#fff" stroke-width="6" stroke-linecap="round" opacity="0.3"/>
</svg>
